<svg width="233" height="209" viewBox="0 0 233 209" fill="none" xmlns="http://www.w3.org/2000/svg">
<g clip-path="url(#clip0_2326:1054)">
<path d="M99.7811 186.723C145.912 195.921 186.389 185.5 208.628 166.998C217.801 159.395 227.08 147.698 230.494 134.088C242.866 84.7484 206.388 43.9161 178.123 59.2814C131.939 84.3763 125.06 66.5121 87.4084 28.4444C58.9834 -0.318985 -31.3047 39.9817 15.6792 124.677C34.7715 159.076 66.823 180.183 99.7811 186.723Z" fill="#DBE6E7"/>
<path d="M177.998 5.75114L168.562 10.1097L173.383 20.481L182.818 16.1224L177.998 5.75114Z" fill="#CE4913"/>
<path d="M182.976 5.63574L165.164 13.8766L163.191 9.67644C162.657 8.55993 163.137 7.17759 164.311 6.64592L178.283 0.212694C179.35 -0.265811 180.63 0.159526 181.11 1.22287L183.083 5.42307C183.083 5.52941 183.083 5.63574 182.976 5.63574Z" fill="#023128"/>
<path d="M224.996 58.546C231.932 39.8444 222.347 19.0785 203.588 12.1641C184.829 5.24968 163.999 14.8051 157.064 33.5067C150.128 52.2083 159.713 72.9742 178.472 79.8886C197.231 86.803 218.06 77.2476 224.996 58.546Z" fill="#FA662E"/>
<path d="M218.174 33.3358C218.334 33.7611 218.547 34.1333 218.707 34.5586C220.094 37.855 220.841 41.3109 220.947 44.8731C221.054 48.7543 220.467 52.5291 219.134 56.1977C217.801 59.8662 215.774 63.1626 213.161 66.0336C210.441 69.0109 207.241 71.3503 203.562 73.0516C202.122 73.6896 200.682 74.2213 199.242 74.6467C196.895 75.3378 194.442 75.71 191.989 75.8163C191.509 75.8163 191.082 75.8163 190.602 75.8163C187.189 75.7632 183.829 75.1783 180.629 74.0086C180.096 73.796 179.616 73.6365 179.083 73.3706C176.043 72.0415 173.27 70.2869 170.763 68.0539C169.27 66.7248 167.937 65.2361 166.764 63.6942C165.857 62.4182 165.004 61.089 164.257 59.7067C164.044 59.3345 163.884 58.9092 163.67 58.537C161.964 54.8685 161.057 50.9873 160.897 46.9997C160.791 43.1185 161.377 39.3437 162.711 35.6751C164.044 32.0066 166.07 28.7103 168.683 25.8392C171.403 22.8619 174.603 20.5225 178.283 18.8212C180.15 17.9705 182.016 17.3325 183.989 16.854C185.909 16.3755 187.882 16.1096 189.856 16.0565C193.162 15.9501 196.469 16.3755 199.615 17.3325C200.148 17.492 200.682 17.6515 201.215 17.8642C204.415 19.0338 207.401 20.7352 210.014 22.915C210.388 23.1809 210.708 23.4999 211.028 23.8189C212.841 25.4671 214.441 27.3279 215.827 29.3483C216.734 30.5711 217.481 31.9003 218.174 33.3358Z" fill="#DBE6E7"/>
<path d="M218.707 34.5055C220.094 37.8018 220.84 41.2577 220.947 44.8199C221.054 48.7011 220.467 52.476 219.134 56.1445C217.801 59.813 215.774 63.1094 213.161 65.9804C210.441 68.9578 207.241 71.2971 203.561 72.9985C202.122 73.6365 200.682 74.1681 199.242 74.5935C196.895 75.2847 194.442 75.6568 191.989 75.7632C191.509 75.7632 191.082 75.7632 190.602 75.7632C187.189 75.71 183.829 75.1252 180.629 73.9555C180.096 73.7428 179.616 73.5833 179.083 73.3175C176.043 71.9883 173.27 70.2338 170.763 68.0008C169.27 66.6716 167.937 65.1829 166.764 63.6411C165.857 62.365 165.004 61.0359 164.257 59.6535C162.87 56.3572 162.124 52.9013 162.017 49.3391C161.911 45.4579 162.497 41.683 163.83 38.0145C165.164 34.346 167.19 31.0496 169.803 28.1786C172.523 25.2012 175.723 22.8619 179.403 21.1605C181.269 20.3098 183.136 19.6718 185.109 19.1933C187.029 18.7148 189.002 18.449 190.976 18.3958C194.282 18.2895 197.588 18.7148 200.735 19.6718C201.268 19.8313 201.802 19.9908 202.335 20.2035C205.535 21.3732 208.521 23.0745 211.134 25.2544C211.508 25.5202 211.828 25.8392 212.148 26.1582C213.961 27.8064 215.561 29.6673 216.947 31.6876C217.587 32.5915 218.174 33.5485 218.707 34.5055Z" fill="white"/>
<path d="M183.029 28.8698C182.763 28.9761 182.496 28.8698 182.336 28.6039L180.416 24.4037C180.309 24.1379 180.416 23.8721 180.683 23.7126C180.949 23.6062 181.216 23.7126 181.376 23.9784L183.296 28.1786C183.403 28.4444 183.296 28.7103 183.029 28.8698Z" fill="#023128"/>
<path d="M201.215 68.0008C200.948 68.1071 200.682 68.0008 200.522 67.7349L198.602 63.5347C198.495 63.2689 198.602 63.003 198.868 62.8435C199.135 62.7372 199.402 62.8435 199.562 63.1094L201.482 67.3096C201.588 67.5754 201.482 67.8944 201.215 68.0008Z" fill="#023128"/>
<path d="M173.856 53.7519C173.963 54.0178 173.856 54.2836 173.59 54.4431L169.377 56.3571C169.11 56.4634 168.843 56.3571 168.683 56.0913C168.577 55.8254 168.683 55.5596 168.95 55.4001L173.163 53.4861C173.43 53.4329 173.75 53.5393 173.856 53.7519Z" fill="#023128"/>
<path d="M213.107 35.622C213.214 35.8878 213.107 36.1536 212.841 36.3131L208.628 38.2271C208.361 38.3335 208.094 38.2271 207.934 37.9613C207.828 37.6955 207.934 37.4296 208.201 37.2701L212.414 35.3561C212.734 35.2498 213.001 35.3561 213.107 35.622Z" fill="#023128"/>
<path d="M198.888 22.8732L196.959 28.1141L197.911 28.462L199.839 23.2211L198.888 22.8732Z" fill="#023128"/>
<path d="M182.549 68.7451C182.283 68.6388 182.176 68.3729 182.229 68.1071L183.829 63.8006C183.936 63.5347 184.203 63.4284 184.469 63.4816C184.736 63.5879 184.843 63.8537 184.789 64.1196L183.189 68.4261C183.083 68.7451 182.763 68.8514 182.549 68.7451Z" fill="#023128"/>
<path d="M173.27 39.3969C173.163 39.6627 172.897 39.7691 172.63 39.7159L168.31 38.1209C168.043 38.0145 167.937 37.7487 167.99 37.4829C168.097 37.217 168.363 37.1107 168.63 37.1639L172.95 38.7589C173.217 38.8652 173.377 39.1842 173.27 39.3969Z" fill="#023128"/>
<path d="M213.908 54.2837C213.801 54.5495 213.534 54.6558 213.268 54.6027L208.948 53.0077C208.681 52.9013 208.575 52.6355 208.628 52.3696C208.734 52.1038 209.001 51.9975 209.268 52.0506L213.588 53.6457C213.854 53.752 214.014 54.0178 213.908 54.2837Z" fill="#023128"/>
<path d="M203.295 45.5111L193.482 46.0959L193.429 45.2452L203.241 44.6604C203.455 44.6604 203.668 44.8199 203.721 45.0857C203.721 45.2452 203.561 45.4579 203.295 45.5111Z" fill="#028076"/>
<path d="M191.509 46.0959L177.643 52.5291C177.43 52.6355 177.163 52.5291 177.056 52.3165C176.95 52.1038 177.056 51.838 177.27 51.7316L190.389 45.6706L185.429 35.0371C185.322 34.8245 185.429 34.5586 185.642 34.4523C185.856 34.346 186.122 34.4523 186.229 34.665L191.509 46.0959Z" fill="#023128"/>
<path d="M193.482 44.7136C194.122 46.1491 193.535 47.7973 192.096 48.4353C190.656 49.0733 189.002 48.4884 188.362 47.0529C187.722 45.6174 188.309 43.9692 189.749 43.3312C191.189 42.6932 192.842 43.278 193.482 44.7136Z" fill="#023128"/>
<path d="M191.615 47.3719C190.815 47.7441 189.802 47.3719 189.429 46.5744C189.056 45.7769 189.429 44.7667 190.229 44.3946C191.029 44.0224 192.042 44.3946 192.415 45.1921C192.842 45.9896 192.469 46.9998 191.615 47.3719Z" fill="#565960"/>
<path d="M230.227 200.493C230.227 205.172 183.403 209 125.699 209C67.9961 209 21.1721 205.225 21.1721 200.493C21.1721 195.815 67.9961 191.987 125.699 191.987C183.403 191.987 230.227 195.815 230.227 200.493Z" fill="#DBE6E7"/>
<path d="M52.157 148.815C51.4637 148.815 50.8237 148.549 50.2904 148.07C49.2238 147.06 49.2238 145.359 50.2371 144.296L72.3691 121.646C73.3824 120.583 75.089 120.583 76.1556 121.593C77.2222 122.603 77.2222 124.305 76.2089 125.368L54.0768 148.017C53.5435 148.549 52.8502 148.815 52.157 148.815Z" fill="#005646"/>
<path d="M188.736 172.581C187.616 172.581 186.549 171.836 186.176 170.72L169.004 115.904C168.577 114.522 169.324 112.98 170.764 112.555C172.15 112.13 173.697 112.874 174.123 114.309L191.296 169.125C191.722 170.507 190.976 172.049 189.536 172.474C189.269 172.581 189.003 172.581 188.736 172.581Z" fill="#005646"/>
<path d="M170.87 129.409C170.87 129.409 181.59 122.497 198.442 128.292C209.801 132.227 214.654 140.893 216.628 146.157C217.001 147.167 215.774 147.911 215.028 147.167C209.215 141.212 194.655 129.834 173.217 137.224L170.87 129.409Z" fill="#005646"/>
<path d="M192.842 122.55C190.229 122.55 187.669 123.242 185.483 124.518C185.376 124.571 185.269 124.624 185.163 124.677C184.896 124.837 184.576 125.049 184.309 125.209C182.923 126.219 181.643 127.442 180.63 128.877C180.416 129.196 180.203 129.515 179.99 129.834C172.683 142.169 158.338 165.988 153.698 173.644C152.791 175.133 151.138 176.09 149.378 176.09H113.86C109.807 176.09 105.967 174.388 103.301 171.358C101.327 169.072 98.2343 166.466 93.7012 164.499C83.9417 160.352 67.7293 127.07 67.7293 127.07L43.6241 116.542C39.251 114.628 37.3311 109.365 39.6776 105.165C40.7976 103.144 42.0775 102.878 42.0775 102.878C42.0775 102.878 116.26 123.188 116.633 128.239C117.007 133.29 108.1 141.85 108.1 141.85L108.154 141.903C110.874 143.924 113.167 149.666 113.167 149.666C113.273 149.719 113.38 149.719 113.487 149.772C129.006 153.494 144.792 144.934 150.178 129.994C152.471 123.561 154.284 118.403 154.284 118.403C152.578 111.279 141.432 87.8854 139.085 82.994C138.819 82.4623 139.032 81.8775 139.512 81.5585C139.619 81.5053 139.672 81.4521 139.779 81.399C140.845 80.8141 142.498 79.9635 144.632 79.2723C146.818 78.5811 149.485 77.9963 152.365 78.0494C159.937 78.2089 162.817 81.8775 162.817 81.8775L167.35 83.0472C168.844 83.4193 170.017 84.5358 170.55 85.9713L172.577 91.5539C172.95 92.6704 172.95 93.8933 172.47 94.9566L171.777 96.5516L174.337 97.2428L179.243 98.572C188.522 102.347 193.802 111.438 196.362 117.287C197.429 119.732 195.615 122.55 192.842 122.55Z" fill="#028076"/>
<path d="M153.591 86.9815C152.045 86.9815 150.498 86.184 149.698 84.7484L138.925 65.9805C137.699 63.8538 138.445 61.0891 140.579 59.8662C142.712 58.6434 145.485 59.3877 146.712 61.5144L157.484 80.2824C158.711 82.4091 157.964 85.1738 155.831 86.3966C155.084 86.822 154.338 86.9815 153.591 86.9815Z" fill="#028076"/>
<path d="M152.204 72.201H143.245C142.125 72.201 141.378 73.4239 141.965 74.4341L144.685 79.2191C148.205 78.3684 149.005 78.1026 150.765 78.0494C152.524 77.9963 154.071 77.9963 155.778 78.3684C156.258 78.4748 157.164 78.6874 157.591 78.7938L154.658 73.6366C154.178 72.7327 153.218 72.201 152.204 72.201Z" fill="#005646"/>
<path d="M134.232 166.945C118.447 166.945 101.968 162.426 101.754 162.372C101.434 162.266 101.221 161.947 101.328 161.628C101.434 161.309 101.754 161.096 102.074 161.203C102.287 161.256 125.113 167.53 142.445 165.244C146.765 164.659 152.151 159.023 157.218 149.719C161.484 141.903 164.844 132.705 165.164 127.867C165.164 127.654 165.271 127.495 165.484 127.389L180.523 119.201C180.79 119.041 181.163 119.148 181.323 119.413C181.483 119.679 181.376 120.051 181.11 120.211L166.39 128.292C165.964 133.45 162.657 142.435 158.338 150.304C155.244 155.992 149.058 165.616 142.659 166.413C139.939 166.785 137.059 166.945 134.232 166.945Z" fill="#005646"/>
<path d="M98.9276 136.108C95.4078 136.108 91.8347 135.736 88.7948 134.779C80.8486 132.227 75.1956 120.689 74.3423 118.829L39.4643 107.61C39.1443 107.504 38.9844 107.185 39.091 106.866C39.1977 106.547 39.5177 106.387 39.8376 106.494L74.929 117.765C75.089 117.818 75.2489 117.925 75.3023 118.084C75.3556 118.191 81.2219 131.057 89.1681 133.609C98.1276 136.48 111.46 133.715 114.073 133.131C114.393 133.077 114.713 133.237 114.82 133.609C114.873 133.928 114.713 134.247 114.34 134.353C112.527 134.726 105.914 136.108 98.9276 136.108Z" fill="#005646"/>
<path d="M147.725 92.1387C147.458 92.1387 147.245 91.9792 147.138 91.7665C147.031 91.4475 147.191 91.1285 147.458 90.969C149.431 90.2247 166.604 83.5256 170.603 85.0143C170.923 85.1206 171.083 85.4928 170.977 85.8118C170.87 86.1308 170.497 86.2903 170.177 86.184C167.19 85.0675 153.111 90.0652 147.885 92.1387C147.885 92.1387 147.778 92.1387 147.725 92.1387Z" fill="#005646"/>
<path d="M149.645 96.2326C149.431 96.2326 149.218 96.0731 149.111 95.8604C148.951 95.5414 149.111 95.2224 149.431 95.0629C151.298 94.2122 167.99 86.9815 171.937 88.5233C172.257 88.6297 172.417 89.0018 172.31 89.3208C172.203 89.6398 171.83 89.7993 171.51 89.693C168.524 88.5765 154.924 94.0527 149.911 96.2326C149.805 96.2326 149.751 96.2326 149.645 96.2326Z" fill="#005646"/>
<path d="M109.807 103.357C98.5543 94.1059 91.6213 101.762 45.4373 93.0426C42.5042 92.5109 39.6243 94.1059 38.5577 96.8706C38.5577 96.9238 38.5044 96.9238 38.5044 96.9769C37.2245 100.273 39.0377 103.942 42.3975 105.005C58.5566 110.003 77.5421 115.958 77.5421 115.958C77.5421 115.958 85.0084 129.196 92.208 131.11C97.4343 132.493 109.54 131.536 115.673 130.26C118.18 129.728 119.726 126.432 119.833 123.88C119.993 118.935 118.66 110.641 109.807 103.357Z" fill="#023128"/>
<path d="M192.202 149.931C192.202 149.931 189.802 150.888 188.842 153.44C187.776 156.365 189.909 165.882 189.909 165.882L186.549 166.732C186.549 166.732 183.883 157.375 181.536 155.301C179.456 153.494 176.896 153.813 176.896 153.813L181.43 149.612L186.176 148.39L192.202 149.931Z" fill="#023128"/>
<path d="M201.428 186.138C201.428 186.138 198.868 186.457 196.789 184.649C194.442 182.629 191.776 173.219 191.776 173.219L188.416 174.069C188.416 174.069 190.549 183.586 189.482 186.51C188.522 189.062 186.123 190.019 186.123 190.019L192.096 191.561L196.842 190.338L201.428 186.138Z" fill="#023128"/>
<path d="M172.363 182.735C172.363 182.735 172.043 180.183 173.857 178.11C175.883 175.771 185.323 173.112 185.323 173.112L184.469 169.763C184.469 169.763 174.923 171.889 171.99 170.826C169.43 169.869 168.47 167.477 168.47 167.477L166.924 173.431L168.15 178.163L172.363 182.735Z" fill="#023128"/>
<path d="M209.055 173.484C209.055 173.484 208.095 171.092 205.535 170.135C202.602 169.072 193.055 171.198 193.055 171.198L192.202 167.849C192.202 167.849 201.588 165.19 203.668 162.851C205.481 160.777 205.161 158.225 205.161 158.225L209.375 162.745L210.601 167.477L209.055 173.484Z" fill="#023128"/>
<path d="M184.416 144.88C170.55 147.273 161.217 160.405 163.617 174.282C166.017 188.105 179.19 197.41 193.109 195.017C206.975 192.625 216.308 179.492 213.908 165.616C211.508 151.792 198.282 142.488 184.416 144.88ZM204.842 167.157C205.535 171.251 204.682 175.398 202.442 178.854C200.202 182.31 196.789 184.756 192.789 185.766C192.362 185.872 191.936 185.979 191.509 186.032C187.189 186.776 182.869 185.819 179.296 183.267C175.723 180.768 173.377 176.993 172.63 172.74C171.937 168.646 172.79 164.499 175.03 161.043C177.27 157.587 180.683 155.142 184.683 154.132C185.109 154.025 185.536 153.919 185.963 153.866C190.282 153.121 194.602 154.078 198.175 156.63C201.748 159.129 204.095 162.851 204.842 167.157Z" fill="#FA662E"/>
<path d="M183.456 139.245C166.444 142.169 155.031 158.279 157.964 175.186C160.897 192.146 177.056 203.524 194.015 200.6C211.028 197.675 222.441 181.566 219.507 164.659C216.574 147.698 200.415 136.321 183.456 139.245ZM208.468 166.573C209.321 171.57 208.255 176.621 205.481 180.875C202.708 185.075 198.549 188.105 193.642 189.328C193.109 189.435 192.629 189.594 192.096 189.647C186.816 190.551 181.536 189.328 177.163 186.298C172.79 183.214 169.91 178.642 169.004 173.378C168.15 168.38 169.217 163.329 171.99 159.076C174.763 154.876 178.923 151.845 183.829 150.623C184.363 150.516 184.843 150.357 185.376 150.304C190.656 149.4 195.935 150.569 200.308 153.653C204.628 156.684 207.561 161.309 208.468 166.573Z" fill="#023128"/>
<path d="M190.922 179.226C196.042 178.004 199.242 172.846 198.015 167.742C196.789 162.638 191.616 159.448 186.496 160.671C181.376 161.894 178.176 167.051 179.403 172.155C180.629 177.259 185.803 180.396 190.922 179.226Z" fill="#FA662E"/>
<path d="M190.176 175.93C193.482 175.133 195.509 171.836 194.762 168.54C193.962 165.243 190.656 163.223 187.349 163.967C184.043 164.765 182.016 168.061 182.763 171.358C183.509 174.654 186.869 176.674 190.176 175.93Z" fill="#023128"/>
<path d="M70.609 149.931C70.609 149.931 68.2092 150.888 67.2492 153.44C66.1826 156.365 68.3158 165.882 68.3158 165.882L64.956 166.732C64.956 166.732 62.2895 157.375 59.943 155.301C57.8631 153.494 55.3032 153.813 55.3032 153.813L59.8363 149.612L64.5827 148.39L70.609 149.931Z" fill="#023128"/>
<path d="M79.7819 186.138C79.7819 186.138 77.222 186.457 75.1421 184.649C72.7956 182.629 70.1291 173.219 70.1291 173.219L66.7693 174.069C66.7693 174.069 68.9025 183.586 67.8359 186.51C66.8759 189.062 64.4761 190.019 64.4761 190.019L70.4491 191.561L75.1955 190.338L79.7819 186.138Z" fill="#023128"/>
<path d="M50.7169 182.735C50.7169 182.735 50.3969 180.183 52.2102 178.11C54.2367 175.771 63.6762 173.112 63.6762 173.112L62.8229 169.763C62.8229 169.763 53.2768 171.889 50.3436 170.826C47.7838 169.869 46.8238 167.477 46.8238 167.477L45.3306 173.431L46.5572 178.163L50.7169 182.735Z" fill="#023128"/>
<path d="M87.4083 173.484C87.4083 173.484 86.4483 171.092 83.8885 170.135C80.9553 169.072 71.4092 171.198 71.4092 171.198L70.5559 167.849C70.5559 167.849 79.942 165.19 82.0219 162.851C83.8351 160.777 83.5152 158.225 83.5152 158.225L87.7283 162.745L88.9548 167.477L87.4083 173.484Z" fill="#023128"/>
<path d="M62.7695 144.88C48.9037 147.273 39.5709 160.405 41.9707 174.282C44.3706 188.105 57.5432 197.41 71.4624 195.017C85.3283 192.625 94.661 179.492 92.2612 165.616C89.8613 151.792 76.6887 142.488 62.7695 144.88ZM83.195 167.157C83.8883 171.251 83.035 175.398 80.7952 178.854C78.5553 182.31 75.1422 184.756 71.1424 185.766C70.7158 185.872 70.2891 185.979 69.8625 186.032C65.5427 186.776 61.223 185.819 57.6498 183.267C54.0767 180.768 51.7302 176.993 50.9836 172.74C50.2903 168.646 51.1435 164.499 53.3834 161.043C55.6233 157.587 59.0364 155.142 63.0362 154.132C63.4628 154.025 63.8895 153.919 64.3161 153.866C68.6359 153.121 72.9556 154.078 76.5288 156.63C80.1019 159.129 82.5017 162.851 83.195 167.157Z" fill="#FA662E"/>
<path d="M61.8096 139.245C44.7973 142.169 33.3846 158.279 36.3178 175.186C39.2509 192.146 55.41 203.524 72.369 200.6C89.3814 197.675 100.794 181.566 97.8609 164.659C94.9811 147.698 78.822 136.321 61.8096 139.245ZM86.8215 166.573C87.6748 171.57 86.6082 176.621 83.835 180.875C81.0619 185.075 76.9021 188.105 71.9957 189.328C71.4624 189.435 70.9824 189.594 70.4491 189.647C65.1694 190.551 59.8897 189.328 55.5167 186.298C51.1436 183.214 48.2637 178.642 47.3571 173.378C46.5038 168.38 47.5704 163.329 50.3436 159.076C53.1168 154.876 57.2766 151.845 62.1829 150.623C62.7162 150.516 63.1962 150.357 63.7295 150.304C69.0092 149.4 74.2889 150.569 78.662 153.653C83.0351 156.684 85.9149 161.309 86.8215 166.573Z" fill="#023128"/>
<path d="M69.3292 179.226C74.4489 178.004 77.6487 172.846 76.4221 167.742C75.1955 162.638 70.0225 159.448 64.9028 160.671C59.7831 161.894 56.5833 167.051 57.8099 172.155C59.0365 177.259 64.1562 180.396 69.3292 179.226Z" fill="#FA662E"/>
<path d="M68.5292 175.93C71.8357 175.133 73.8622 171.836 73.1156 168.54C72.3156 165.243 69.0092 163.223 65.7027 163.967C62.3962 164.765 60.3697 168.061 61.1163 171.358C61.9162 174.654 65.2227 176.674 68.5292 175.93Z" fill="#023128"/>
<path d="M149.005 157.162C146.125 161.309 141.272 163.649 136.205 163.383C128.099 162.904 115.993 162 110.02 160.405C100.634 157.96 98.3943 145.944 98.3943 145.944L108.207 141.903C110.927 143.924 113.22 149.666 113.22 149.666C113.327 149.719 113.433 149.719 113.54 149.772C129.059 153.494 144.845 144.934 150.231 129.994C152.525 123.56 154.338 118.403 154.338 118.403C152.631 111.279 141.485 87.8854 139.139 82.994C138.872 82.4623 139.085 81.8775 139.565 81.5585C139.672 81.5053 139.725 81.4521 139.832 81.399C140.899 80.8141 142.552 79.9635 144.685 79.2723C149.911 86.6625 161.751 104.633 163.671 118.403C165.43 131.27 155.404 147.964 149.005 157.162Z" fill="#005646"/>
<path d="M192.842 122.55C190.229 122.55 187.669 123.241 185.483 124.517C185.376 124.571 185.269 124.624 185.163 124.677C184.896 124.836 184.576 125.049 184.309 125.209C181.803 122.976 179.83 120.105 178.283 117.18C175.723 112.183 174.177 106.547 174.07 100.911C174.07 99.6884 174.07 98.4656 174.23 97.2427L179.136 98.5719C188.416 102.347 193.696 111.438 196.255 117.287C197.429 119.732 195.615 122.55 192.842 122.55Z" fill="#023128"/>
<path d="M107.514 173.75C100.261 172.793 31.8381 146.848 33.438 134.566C33.7047 132.652 34.1846 131.057 34.8246 129.728C35.8379 127.707 37.1711 126.325 38.6111 125.315C41.7575 123.188 45.8106 122.976 49.2771 124.464C60.6365 129.409 89.8615 143.285 99.1943 151.739C105.114 157.109 109.38 163.914 110.554 168.54C111.407 171.943 110.607 174.176 107.514 173.75Z" fill="#FA662E"/>
<path d="M110.553 168.54C63.2495 147.486 34.8245 129.728 34.8245 129.728C35.8377 127.707 37.171 126.325 38.6109 125.315C41.7574 123.188 45.8105 122.976 49.277 124.464C60.6363 129.409 89.8613 143.285 99.1941 151.739C105.06 157.109 109.38 163.914 110.553 168.54Z" fill="#CE4913"/>
<path d="M166.39 64.2259H127.673C126.233 64.2259 125.059 63.0563 125.059 61.6208C125.059 60.1852 126.233 59.0156 127.673 59.0156H166.39C167.83 59.0156 169.003 60.1852 169.003 61.6208C169.003 63.1094 167.83 64.2259 166.39 64.2259Z" fill="#028076"/>
<path d="M129.432 65.6083H114.5C112.313 65.6083 110.553 63.8538 110.553 61.6739C110.553 59.4941 112.313 57.7396 114.5 57.7396H129.432C131.619 57.7396 133.379 59.4941 133.379 61.6739C133.379 63.8538 131.619 65.6083 129.432 65.6083Z" fill="#023128"/>
<path d="M169.27 65.6083L154.444 65.5551C152.258 65.5551 150.498 63.8006 150.551 61.6208C150.551 59.4409 152.311 57.7396 154.498 57.7396L169.323 57.7927C171.51 57.7927 173.27 59.5472 173.217 61.7271C173.217 63.8538 171.457 65.6083 169.27 65.6083Z" fill="#023128"/>
<path d="M26.4518 124.198H0.746624C0.319982 124.198 0 123.879 0 123.454C0 123.029 0.319982 122.71 0.746624 122.71H26.4518C26.8785 122.71 27.1984 123.029 27.1984 123.454C27.1984 123.879 26.8785 124.198 26.4518 124.198Z" fill="#028076"/>
<path d="M26.4518 136.533H0.746624C0.319982 136.533 0 136.214 0 135.789C0 135.364 0.319982 135.045 0.746624 135.045H26.4518C26.8785 135.045 27.1984 135.364 27.1984 135.789C27.1984 136.161 26.8785 136.533 26.4518 136.533Z" fill="#028076"/>
<path d="M26.4518 149.559H0.746624C0.319982 149.559 0 149.24 0 148.815C0 148.389 0.319982 148.07 0.746624 148.07H26.4518C26.8785 148.07 27.1984 148.389 27.1984 148.815C27.1984 149.24 26.8785 149.559 26.4518 149.559Z" fill="#028076"/>
<path d="M102.181 98.9972C84.5285 100.699 66.8228 100.699 49.1172 98.9972C49.4372 98.0402 49.8105 96.711 50.2371 95.116C50.3438 94.6907 50.5038 94.2122 50.6104 93.7336C52.6903 86.0776 55.7301 73.6896 57.65 65.5551C58.3433 62.7372 58.8766 60.451 59.1966 59.0155L91.9414 58.9623C92.1014 59.5472 92.2614 60.2384 92.4214 61.089C94.1279 68.3198 98.0211 84.4294 100.528 93.6805C100.634 94.159 100.794 94.6375 100.901 95.0628C101.488 96.711 101.861 98.0402 102.181 98.9972Z" fill="#FA662E"/>
<path d="M60.6849 63.5105L53.8237 94.0162L54.3441 94.1326L61.2053 63.6268L60.6849 63.5105Z" fill="#CE4913"/>
<path d="M90.4 60.8492L89.8796 60.9654L97.3257 94.117L97.8461 94.0008L90.4 60.8492Z" fill="#CE4913"/>
<path d="M83.9953 78.6342C83.9953 83.4192 80.1022 87.3536 75.2491 87.3536C70.396 87.3536 66.5029 83.4724 66.5029 78.6342C66.5029 73.796 70.396 69.9148 75.2491 69.9148C80.1022 69.9148 83.9953 73.796 83.9953 78.6342Z" fill="#CE4913"/>
<path d="M101.008 95.0628C92.1015 96.0198 83.462 96.3388 75.8357 96.3388C64.5297 96.3388 55.3036 95.5945 50.2905 95.116C50.3972 94.6907 50.5572 94.2122 50.6638 93.7337C59.09 94.5843 78.9289 96.0198 100.634 93.6805C100.741 94.159 100.901 94.6375 101.008 95.0628Z" fill="#CE4913"/>
<path d="M92.528 61.089L57.7034 65.5551C58.3967 62.7372 58.93 60.451 59.2499 59.0155L91.9947 58.9623C92.1547 59.5472 92.3147 60.2384 92.528 61.089Z" fill="#CE4913"/>
<path d="M94.2346 60.2384H57.0634C56.6367 60.2384 56.2634 59.8662 56.2634 59.4409V56.1445C56.2634 55.7192 56.6367 55.347 57.0634 55.347H94.2346C94.6612 55.347 95.0345 55.7192 95.0345 56.1445V59.4409C95.0345 59.8662 94.7146 60.2384 94.2346 60.2384Z" fill="#FA662E"/>
<path d="M218.121 94.478C218.121 91.8197 220.254 89.693 222.921 89.693C225.587 89.693 227.721 91.8197 227.721 94.478C227.721 97.1364 225.587 99.2631 222.921 99.2631C220.254 99.2631 218.121 97.1364 218.121 94.478ZM219.508 94.478C219.508 96.3921 221.054 97.9339 222.974 97.9339C224.894 97.9339 226.441 96.3921 226.441 94.478C226.441 92.564 224.894 91.0222 222.974 91.0222C221.054 91.0222 219.508 92.564 219.508 94.478Z" fill="#FA662E"/>
<path d="M211.135 106.813C211.455 106.813 211.775 106.547 211.775 106.175V102.453C211.775 102.134 211.508 101.815 211.135 101.815C210.815 101.815 210.495 102.081 210.495 102.453V106.175C210.548 106.547 210.815 106.813 211.135 106.813Z" fill="#028076"/>
<path d="M212.361 108.036H216.095C216.415 108.036 216.734 107.77 216.734 107.398C216.734 107.025 216.468 106.76 216.095 106.76H212.361C212.041 106.76 211.721 107.025 211.721 107.398C211.721 107.77 212.041 108.036 212.361 108.036Z" fill="#028076"/>
<path d="M206.175 108.036H209.908C210.228 108.036 210.548 107.77 210.548 107.398C210.548 107.025 210.282 106.76 209.908 106.76H206.175C205.855 106.76 205.535 107.025 205.535 107.398C205.535 107.77 205.855 108.036 206.175 108.036Z" fill="#028076"/>
<path d="M211.135 112.714C211.455 112.714 211.775 112.449 211.775 112.076V108.355C211.775 108.036 211.508 107.717 211.135 107.717C210.815 107.717 210.495 107.983 210.495 108.355V112.076C210.548 112.449 210.815 112.714 211.135 112.714Z" fill="#028076"/>
<path d="M57.0635 28.6039C57.0635 25.9456 59.1967 23.8189 61.8632 23.8189C64.5297 23.8189 66.6629 25.9456 66.6629 28.6039C66.6629 31.2623 64.5297 33.389 61.8632 33.389C59.25 33.389 57.0635 31.2623 57.0635 28.6039ZM58.3967 28.6039C58.3967 30.518 59.9433 32.0598 61.8632 32.0598C63.7831 32.0598 65.3297 30.518 65.3297 28.6039C65.3297 26.6899 63.7831 25.1481 61.8632 25.1481C59.9966 25.1481 58.3967 26.6899 58.3967 28.6039Z" fill="#028076"/>
<path d="M47.1976 37.7487C47.5176 37.7487 47.8375 37.4829 47.8375 37.1107V33.389C47.8375 33.07 47.5709 32.751 47.1976 32.751C46.8243 32.751 46.5576 33.0168 46.5576 33.389V37.1107C46.5576 37.4297 46.8243 37.7487 47.1976 37.7487Z" fill="#FA662E"/>
<path d="M48.4241 38.9716H52.1573C52.4772 38.9716 52.7972 38.7057 52.7972 38.3336C52.7972 38.0146 52.5306 37.6956 52.1573 37.6956H48.4241C48.1042 37.6956 47.7842 37.9614 47.7842 38.3336C47.7842 38.6526 48.0508 38.9716 48.4241 38.9716Z" fill="#FA662E"/>
<path d="M42.1844 38.9716H45.9175C46.2375 38.9716 46.5575 38.7057 46.5575 38.3336C46.5575 38.0146 46.2908 37.6956 45.9175 37.6956H42.1844C41.8644 37.6956 41.5444 37.9614 41.5444 38.3336C41.5978 38.6526 41.8644 38.9716 42.1844 38.9716Z" fill="#FA662E"/>
<path d="M47.1976 43.6502C47.5176 43.6502 47.8375 43.3844 47.8375 43.0122V39.2905C47.8375 38.9715 47.5709 38.6525 47.1976 38.6525C46.8243 38.6525 46.5576 38.9184 46.5576 39.2905V43.0122C46.5576 43.3844 46.8243 43.6502 47.1976 43.6502Z" fill="#FA662E"/>
</g>
<defs>
<clipPath id="clip0_2326:1054">
<rect width="233" height="209" fill="white"/>
</clipPath>
</defs>
</svg>
