<svg width="227" height="186" viewBox="0 0 227 186" fill="none" xmlns="http://www.w3.org/2000/svg">
<g clip-path="url(#clip0_2326:389)">
<path d="M116.452 186C173.267 186 219.325 184.217 219.325 182.017C219.325 179.818 173.267 178.035 116.452 178.035C59.6368 178.035 13.5789 179.818 13.5789 182.017C13.5789 184.217 59.6368 186 116.452 186Z" fill="#DEE6E7"/>
<path d="M95.9366 165.201C141.396 174.347 181.098 164.021 203.09 145.731C212.093 138.209 221.244 126.703 224.639 113.281C236.742 64.6051 200.876 24.3371 173.128 39.5298C127.522 64.3101 120.732 46.6099 83.6863 9.14438C55.6433 -19.176 -33.2084 20.502 13.1362 103.988C31.8807 137.914 63.4658 158.711 95.9366 165.201Z" fill="#DEE6E7"/>
<path d="M75.2732 25.3703V173.61C75.2732 178.33 79.1106 182.017 83.6861 182.017H157.483C159.845 182.017 161.911 181.132 163.387 179.51C164.863 178.035 165.896 175.822 165.896 173.61V25.3703C165.896 20.6503 162.059 16.9627 157.483 16.9627H83.6861C82.3577 16.9627 81.0294 17.2577 79.8486 17.8477C77.1919 19.3227 75.2732 22.1253 75.2732 25.3703Z" fill="#3F5651"/>
<path d="M78.3728 25.3703V173.61C78.3728 178.33 82.2103 182.017 86.7857 182.017H160.583C162.944 182.017 165.011 181.132 166.487 179.51C167.963 178.035 168.996 175.822 168.996 173.61V25.3703C168.996 20.6503 165.158 16.9627 160.583 16.9627H86.7857C85.4573 16.9627 84.129 17.2577 82.9482 17.8477C80.2915 19.3227 78.3728 22.1253 78.3728 25.3703Z" fill="#1E342D"/>
<path d="M130.916 169.627C130.916 173.315 127.964 176.412 124.127 176.412C120.437 176.412 117.338 173.462 117.338 169.627C117.338 165.94 120.29 162.842 124.127 162.842C127.817 162.99 130.916 165.94 130.916 169.627Z" fill="#3F5651"/>
<path d="M76.8968 53.3957H74.0926C73.945 53.3957 73.7974 53.2482 73.7974 53.1007V40.4155C73.7974 40.268 73.945 40.1205 74.0926 40.1205H76.8968V53.3957Z" fill="#3F5651"/>
<path d="M169.143 65.7858H171.357C171.505 65.7858 171.652 65.6383 171.652 65.4908V52.6582C171.652 52.5107 171.505 52.3632 171.357 52.3632H169.143V65.7858Z" fill="#3F5651"/>
<path d="M169.143 83.3386H171.357C171.505 83.3386 171.652 83.1911 171.652 83.0436V70.211C171.652 70.0635 171.505 69.916 171.357 69.916H169.143V83.3386Z" fill="#3F5651"/>
<path d="M164.863 24.3378V155.32C164.863 155.762 164.715 156.205 164.568 156.647C163.978 157.827 162.649 158.565 161.173 158.565H86.3429C84.2766 158.565 82.6531 157.09 82.6531 155.32V24.3378C82.6531 24.1903 82.6531 24.0428 82.6531 23.7478C82.8007 22.7153 83.6862 21.6828 84.867 21.2403C85.1622 21.0928 85.3098 21.0928 85.605 21.0928C85.9001 21.0928 86.0477 21.0928 86.3429 21.0928H161.173C163.24 21.0928 164.863 22.5678 164.863 24.3378Z" fill="#DEE6E7"/>
<path d="M82.6531 24.9278V39.383H165.011V24.9278C165.011 22.8628 163.387 21.2403 161.321 21.2403H86.3429C86.0477 21.2403 85.9002 21.2403 85.605 21.2403C85.3098 21.2403 85.1622 21.3878 84.867 21.5353C83.6862 21.9778 82.9483 23.0103 82.6531 24.3378C82.6531 24.4853 82.6531 24.6328 82.6531 24.9278Z" fill="#F7F9FF"/>
<path d="M101.693 36.2854H158.221C158.664 36.2854 159.107 35.8429 159.107 35.4004V35.2529C159.107 34.8104 158.664 34.3679 158.221 34.3679H101.693C101.25 34.3679 100.807 34.8104 100.807 35.2529V35.4004C100.807 35.9904 101.25 36.2854 101.693 36.2854Z" fill="#DEE6E7"/>
<path d="M88.4092 35.253C88.5568 36.138 87.8189 36.728 86.9333 36.728C86.3429 36.728 85.9001 36.138 85.7525 35.548C85.6049 34.6629 86.3429 34.0729 87.2285 34.0729C87.8189 34.2204 88.2617 34.6629 88.4092 35.253Z" fill="#E79C4D"/>
<path d="M92.9847 35.253C93.1323 36.138 92.3943 36.728 91.5087 36.728C90.9184 36.728 90.4756 36.138 90.328 35.548C90.1804 34.6629 90.9184 34.0729 91.8039 34.0729C92.3943 34.2204 92.8371 34.6629 92.9847 35.253Z" fill="#487F76"/>
<path d="M97.5601 35.253C97.7077 36.138 96.9697 36.728 96.0842 36.728C95.4938 36.728 95.051 36.138 94.9034 35.548C94.7558 34.6629 95.4938 34.0729 96.3794 34.0729C96.9697 34.2204 97.4125 34.6629 97.5601 35.253Z" fill="#DD6635"/>
<path d="M166.044 20.5027H81.4722V32.0079H166.044V20.5027Z" fill="#1E342D"/>
<path d="M160.288 26.5503H131.359C130.769 26.5503 130.326 26.1078 130.326 25.5178C130.326 24.9278 130.769 24.4853 131.359 24.4853H160.435C161.026 24.4853 161.468 24.9278 161.468 25.5178C161.321 25.9603 160.878 26.5503 160.288 26.5503Z" fill="#3F5651"/>
<path d="M141.395 112.838C133.573 112.838 127.226 106.496 127.226 98.6782C127.226 90.8606 133.573 84.518 141.395 84.518C149.218 84.518 155.565 90.8606 155.565 98.6782C155.417 106.643 149.218 112.838 141.395 112.838ZM139.034 69.4728C121.913 70.6529 108.334 84.8131 107.892 101.923C107.744 108.413 109.368 114.461 112.467 119.624C113.943 122.131 115.419 124.639 116.895 127.146L134.311 158.564H147.742L156.893 142.191C159.402 137.619 162.206 133.046 164.863 128.474V79.0605C158.369 72.5704 149.218 68.8828 139.034 69.4728Z" fill="#B1BEC2"/>
<path d="M133.721 98.8263C133.721 91.0087 140.067 84.6661 147.89 84.6661C155.712 84.6661 162.059 91.0087 162.059 98.8263C162.059 106.644 155.712 112.986 147.89 112.986C140.067 112.839 133.721 106.644 133.721 98.8263ZM114.386 101.924C114.238 108.414 115.862 114.462 118.961 119.624C120.437 122.132 121.913 124.639 123.389 127.147L147.594 170.66L163.387 142.192C167.52 134.669 172.095 127.294 176.523 119.772C179.475 114.757 181.246 109.004 181.246 102.809C181.246 83.6336 165.011 68.1459 145.528 69.4734C128.555 70.6534 114.828 84.8136 114.386 101.924Z" fill="#DD6635"/>
<path d="M99.4788 95.7288H36.0132C32.3234 95.7288 29.2239 92.6312 29.2239 88.9437V77.881C29.2239 74.1935 32.3234 71.0959 36.0132 71.0959H99.4788C103.169 71.0959 106.268 74.1935 106.268 77.881V88.9437C106.268 92.6312 103.169 95.7288 99.4788 95.7288Z" fill="white"/>
<path d="M100.955 80.6835H59.1855C58.5951 80.6835 58.1523 80.241 58.1523 79.651V79.5035C58.1523 78.9135 58.5951 78.471 59.1855 78.471H100.955C101.545 78.471 101.988 78.9135 101.988 79.5035V79.651C101.988 80.0935 101.545 80.6835 100.955 80.6835Z" fill="#DEE6E7"/>
<path d="M100.955 85.4036H59.1855C58.5951 85.4036 58.1523 84.9611 58.1523 84.3711V84.2236C58.1523 83.6336 58.5951 83.1911 59.1855 83.1911H100.955C101.545 83.1911 101.988 83.6336 101.988 84.2236V84.3711C101.988 84.9611 101.545 85.4036 100.955 85.4036Z" fill="#DEE6E7"/>
<path d="M100.955 89.6812H59.1855C58.5951 89.6812 58.1523 89.2387 58.1523 88.6486V88.5011C58.1523 87.9111 58.5951 87.4686 59.1855 87.4686H100.955C101.545 87.4686 101.988 87.9111 101.988 88.5011V88.6486C101.988 89.2387 101.545 89.6812 100.955 89.6812Z" fill="#DEE6E7"/>
<path d="M42.655 91.8937C37.7844 91.8937 33.7993 87.9112 33.7993 83.0436C33.7993 78.176 37.7844 74.1935 42.655 74.1935C47.5256 74.1935 51.5106 78.176 51.5106 83.0436C51.5106 87.9112 47.5256 91.8937 42.655 91.8937Z" fill="#487F76"/>
<path d="M46.9351 80.6836C46.9351 80.5361 46.9351 80.5361 46.7875 80.3886C46.6399 79.9461 46.4924 79.6511 46.1972 79.3561C46.0496 79.2086 45.7544 78.9136 45.6068 78.7661C45.3116 78.6186 44.8688 78.6186 44.7212 78.9136C44.2784 79.5036 43.8357 79.9461 43.3929 80.5361C43.0977 80.8311 43.2453 81.2736 43.5405 81.5686C43.8357 81.7161 43.9832 82.0111 44.2784 82.1586C44.2784 82.1586 44.2784 82.1586 44.426 82.1586C43.8357 83.6336 42.9501 84.8137 41.4741 85.6987C41.3266 85.5512 41.179 85.4037 40.8838 85.2562C40.7362 85.1087 40.7362 85.1087 40.5886 84.9612C40.2934 84.8137 39.9982 84.6662 39.703 84.9612C39.5554 84.9612 39.5554 85.1087 39.4078 85.2562C38.965 85.6987 38.6699 86.1412 38.2271 86.7312C38.0795 86.8787 38.0795 87.0262 37.9319 87.1737V87.3212C37.9319 87.4687 38.0795 87.6162 38.0795 87.6162C38.3747 87.9112 38.5223 88.0587 38.8174 88.2062C39.1126 88.3537 39.5554 88.5012 39.8506 88.3537C40.1458 88.3537 40.2934 88.2062 40.5886 88.2062C41.179 88.0587 41.7693 87.7637 42.3597 87.3212C42.9501 87.0262 43.3929 86.5837 43.8357 86.1412C44.426 85.5512 45.0164 84.8137 45.4592 84.0762C45.902 83.4861 46.1972 82.8961 46.3448 82.3061C46.4924 82.0111 46.4924 81.7161 46.4924 81.2736C46.4924 81.1261 46.4924 80.9786 46.4924 80.8311C47.0827 80.9786 47.0827 80.8311 46.9351 80.6836Z" fill="white"/>
<path d="M169.881 38.9405V44.6931C169.881 47.0531 170.914 49.2656 172.39 50.8882C174.014 52.5107 176.08 53.3957 178.589 53.3957C183.017 53.3957 186.707 50.0032 187.15 45.7256C187.15 45.4306 187.15 45.1356 187.15 44.6931V39.088L166.044 17.9952C165.453 17.4052 164.568 16.9627 163.682 16.9627H148.185L169.881 38.9405Z" fill="#DD6635"/>
<path d="M169.881 38.9405V44.6931C169.881 47.0531 170.914 49.2656 172.39 50.8882C174.014 52.5107 176.08 53.3957 178.589 53.3957C183.017 53.3957 186.707 50.0031 187.15 45.7256V39.088L169.881 38.9405Z" fill="#B44A1E"/>
<path d="M113.5 16.9627L135.197 38.6455V44.8406C135.197 47.2006 136.23 49.4131 137.706 51.0357C139.329 52.6582 141.396 53.5432 143.905 53.5432C148.628 53.5432 152.613 49.7081 152.613 44.8406V38.9405L130.916 16.9627H113.5Z" fill="#DD6635"/>
<path d="M135.197 38.6455V44.6931C135.197 47.0531 136.23 49.2656 137.706 50.8882C139.329 52.5107 141.395 53.3957 143.905 53.3957C148.628 53.3957 152.613 49.5607 152.613 44.6931V38.793L135.197 38.6455Z" fill="#B44A1E"/>
<path d="M99.9216 38.3505V44.6931C99.9216 47.0531 100.955 49.2656 102.431 50.8882C104.054 52.5107 106.121 53.3957 108.63 53.3957C113.353 53.3957 117.78 49.5606 117.78 44.6931V38.498L117.633 38.3505L96.2317 16.9627H78.3728L99.9216 38.3505Z" fill="#DD6635"/>
<path d="M99.9216 44.6931C99.9216 47.0531 100.955 49.2657 102.431 50.8882C104.054 52.5107 106.121 53.3957 108.63 53.3957C113.353 53.3957 117.781 49.5607 117.781 44.6931V38.498L117.633 38.3505L99.9216 38.203V44.6931Z" fill="#B44A1E"/>
<path d="M82.6529 38.203V44.6931C82.6529 47.0531 83.6861 49.2656 85.162 50.8882C86.7856 52.5107 88.8519 53.3957 91.361 53.3957C96.084 53.3957 100.069 49.5606 100.069 44.6931V38.3505L78.3727 16.9627C78.0775 16.9627 77.7823 17.1102 77.4871 17.2577C76.1588 17.8477 75.2732 19.0277 74.978 20.3553C74.978 20.6503 74.978 20.7978 74.978 21.0928V30.6804L82.6529 38.203Z" fill="white"/>
<path d="M82.6528 44.6931C82.6528 47.0531 83.686 49.2657 85.1619 50.8882C86.7855 52.5107 88.8518 53.3957 91.3609 53.3957C96.0839 53.3957 100.069 49.5607 100.069 44.6931V38.3505L82.6528 38.203V44.6931Z" fill="#B1BEC2"/>
<path d="M130.916 16.9627L152.613 38.793V44.6931C152.613 47.0531 153.646 49.2656 155.122 50.8882C156.745 52.5107 158.812 53.3957 161.321 53.3957C166.044 53.3957 170.029 49.5606 170.029 44.6931V38.9405L148.332 16.9627H130.916Z" fill="white"/>
<path d="M152.465 38.793V44.693C152.465 47.0531 153.498 49.2656 154.974 50.8881C156.598 52.5107 158.664 53.3957 161.173 53.3957C165.896 53.3957 169.881 49.5606 169.881 44.693V38.9405L152.465 38.793Z" fill="#B1BEC2"/>
<path d="M96.2314 16.9627L117.928 38.6455V44.8406C117.928 47.2006 118.961 49.4131 120.437 51.0357C122.06 52.6582 124.127 53.5432 126.636 53.5432C131.359 53.5432 135.344 49.7081 135.344 44.8406V38.6455L113.5 16.9627H96.2314Z" fill="white"/>
<path d="M117.78 38.498L117.928 44.6931C117.928 47.0531 118.961 49.2656 120.437 50.8882C122.06 52.5107 124.127 53.3957 126.636 53.3957C131.359 53.3957 135.344 49.5606 135.344 44.6931V38.6455L117.78 38.498Z" fill="#B1BEC2"/>
<path d="M47.9682 135.997C47.9682 135.997 41.9168 126.409 27.1574 117.854C16.8258 111.659 10.7744 94.4012 10.7744 94.4012C10.7744 94.4012 30.6996 95.2863 39.4077 107.381C47.9682 119.477 47.9682 135.997 47.9682 135.997Z" fill="#487F76"/>
<path d="M48.1157 136.144C47.9681 136.144 47.8205 135.997 47.8205 135.997C45.0162 125.377 38.9648 117.854 34.2418 113.282C29.2236 108.266 24.7958 105.906 24.7958 105.906C24.6482 105.759 24.6482 105.611 24.6482 105.464C24.7958 105.316 24.9434 105.316 25.091 105.316C25.091 105.316 29.6664 107.824 34.6846 112.839C39.4076 117.412 45.6066 125.229 48.4109 135.849C48.4109 135.997 48.2633 136.144 48.1157 136.144Z" fill="#315748"/>
<path d="M45.4591 135.702C45.4591 135.702 43.688 132.309 35.8655 133.047C28.043 133.932 23.7628 138.209 9.88892 130.392C9.88892 130.392 20.2205 121.689 31.5853 123.459C42.8024 125.377 43.688 129.654 45.4591 135.702Z" fill="#487F76"/>
<path d="M45.4592 135.997C45.3116 135.997 45.3116 135.997 45.164 135.849C45.164 135.849 41.6217 130.392 36.0131 129.359C26.2719 127.589 19.4826 130.687 19.4826 130.687C19.335 130.687 19.1874 130.687 19.0398 130.539C19.0398 130.392 19.0398 130.244 19.1874 130.097C19.1874 130.097 26.1243 126.852 36.0131 128.622C41.9169 129.654 45.4592 135.259 45.4592 135.407C45.6068 135.554 45.4592 135.702 45.3116 135.849C45.6068 135.997 45.4592 135.997 45.4592 135.997Z" fill="#315748"/>
<path d="M48.8539 134.817C48.8539 134.817 48.116 130.982 54.9053 126.999C61.6946 123.017 67.746 123.902 74.2402 109.446C74.2402 109.446 60.8091 108.709 52.6914 116.822C44.7213 124.934 46.64 128.917 48.8539 134.817Z" fill="#487F76"/>
<path d="M48.854 135.259C48.7064 135.259 48.5588 135.112 48.5588 134.964C48.5588 134.669 48.116 128.179 52.1011 123.754C59.038 116.379 66.4177 114.904 66.5653 114.756C66.7129 114.756 66.8605 114.904 66.8605 115.051C66.8605 115.199 66.7129 115.346 66.5653 115.346C66.5653 115.346 59.3332 116.821 52.5439 124.049C48.7064 128.179 49.1492 134.669 49.1492 134.669C49.1492 135.112 49.0016 135.112 48.854 135.259Z" fill="#315748"/>
<path d="M66.8602 178.625C65.8271 179.215 64.6463 179.805 63.318 180.1C59.1853 181.427 53.7243 181.87 47.2302 181.87C37.489 181.87 29.9617 180.837 26.1242 177.445C24.7959 176.265 23.9103 174.79 23.4675 172.872C23.3199 171.987 23.1723 170.955 23.3199 169.775V169.627C23.3199 169.185 23.3199 168.89 23.4675 168.447C23.4675 168.005 23.6151 167.71 23.6151 167.267C23.9103 165.94 24.3531 164.76 24.7959 163.58C24.7959 163.432 24.9435 163.285 24.9435 163.285C25.2386 162.547 25.5338 161.81 25.9766 161.072C26.7146 159.597 27.7478 157.975 28.7809 156.647C28.9285 156.352 29.0761 156.205 29.2237 156.057C29.6665 155.467 30.1093 154.877 30.6996 154.287C31.29 153.55 31.7328 152.96 32.3232 152.37C32.766 151.78 33.3563 151.337 33.7991 150.747C34.3895 150.157 34.8323 149.714 35.2751 149.272C36.751 147.944 37.6366 147.059 37.6366 147.059V146.764L37.9318 145.289L38.2269 143.519L38.9649 139.537L39.2601 138.062L47.3778 137.767L55.7907 138.062L55.9383 139.537L56.2334 141.749L56.6762 145.289L56.8238 146.764V147.059C56.8238 147.059 57.7094 147.797 59.1853 149.272C59.6281 149.714 60.2185 150.305 60.6613 150.747C61.1041 151.337 61.6944 151.927 62.2848 152.517C62.7276 153.107 63.1704 153.55 63.7608 154.14C64.3511 154.877 65.0891 155.762 65.6795 156.647C65.9747 157.09 66.2699 157.532 66.7126 158.122C67.303 159.007 67.8934 160.04 68.4838 161.072C68.9266 161.957 69.3693 162.695 69.6645 163.58C69.9597 164.317 70.2549 165.055 70.4025 165.792C70.5501 166.382 70.6977 166.825 70.8453 167.415C70.8453 167.562 70.9929 167.857 70.9929 168.005C70.9929 168.152 70.9929 168.3 71.1405 168.447C71.1405 168.89 71.2881 169.332 71.2881 169.775C71.4357 174.052 69.9597 176.855 66.8602 178.625Z" fill="#DD6635"/>
<path d="M65.827 156.795H28.9285C29.0761 156.5 29.2237 156.352 29.3712 156.205C29.814 155.615 30.2568 155.025 30.8472 154.435H63.9083C64.4987 155.172 65.2367 155.91 65.827 156.795Z" fill="#B44A1E"/>
<path d="M69.6644 163.727H24.9434C24.9434 163.58 25.091 163.432 25.091 163.432C25.3861 162.695 25.6813 161.957 26.1241 161.22H68.4837C68.9265 162.105 69.3692 162.842 69.6644 163.727Z" fill="#B44A1E"/>
<path d="M71.2881 169.922H23.4675V169.775C23.4675 169.332 23.4675 169.037 23.6151 168.595C23.6151 168.152 23.7627 167.857 23.7627 167.415H70.8453C70.8453 167.562 70.9929 167.857 70.9929 168.005C70.9929 168.152 70.9929 168.3 71.1405 168.447C71.1405 169.037 71.2881 169.48 71.2881 169.922Z" fill="#B44A1E"/>
<path d="M58.4474 139.537H36.1607C36.0131 139.537 35.8655 139.389 35.8655 139.242V134.964C35.8655 134.817 36.0131 134.669 36.1607 134.669H58.4474C58.595 134.669 58.7426 134.817 58.7426 134.964V139.242C58.7426 139.389 58.595 139.537 58.4474 139.537Z" fill="#DD6635"/>
<path d="M56.3813 141.749L38.3748 143.667L39.1127 139.537H56.0861L56.3813 141.749Z" fill="#B44A1E"/>
<path d="M200.433 130.539C200.433 127.884 202.499 125.819 205.156 125.819C207.813 125.819 209.879 127.884 209.879 130.539C209.879 133.194 207.813 135.259 205.156 135.259C202.499 135.259 200.433 133.194 200.433 130.539ZM201.761 130.539C201.761 132.457 203.237 133.932 205.156 133.932C207.075 133.932 208.551 132.457 208.551 130.539C208.551 128.622 207.075 127.147 205.156 127.147C203.237 127.147 201.761 128.622 201.761 130.539Z" fill="#DD6635"/>
<path d="M190.692 139.537C190.987 139.537 191.282 139.242 191.282 138.947V135.259C191.282 134.964 190.987 134.669 190.692 134.669C190.397 134.669 190.101 134.964 190.101 135.259V138.947C190.101 139.242 190.397 139.537 190.692 139.537Z" fill="#487F76"/>
<path d="M191.873 140.717H195.562C195.858 140.717 196.153 140.422 196.153 140.127C196.153 139.832 195.858 139.537 195.562 139.537H191.873C191.577 139.537 191.282 139.832 191.282 140.127C191.282 140.422 191.577 140.717 191.873 140.717Z" fill="#487F76"/>
<path d="M185.821 140.717H189.511C189.806 140.717 190.101 140.422 190.101 140.127C190.101 139.832 189.806 139.537 189.511 139.537H185.821C185.526 139.537 185.231 139.832 185.231 140.127C185.231 140.422 185.526 140.717 185.821 140.717Z" fill="#487F76"/>
<path d="M190.692 145.437C190.987 145.437 191.282 145.142 191.282 144.847V141.159C191.282 140.864 190.987 140.569 190.692 140.569C190.397 140.569 190.101 140.864 190.101 141.159V144.847C190.101 145.142 190.397 145.437 190.692 145.437Z" fill="#487F76"/>
<path d="M25.8289 53.5432C25.8289 50.8881 27.8952 48.8231 30.5519 48.8231C33.2086 48.8231 35.2749 50.8881 35.2749 53.5432C35.2749 56.1982 33.2086 58.2632 30.5519 58.2632C27.8952 58.2632 25.8289 56.1982 25.8289 53.5432ZM27.1572 53.5432C27.1572 55.4607 28.6332 56.9357 30.5519 56.9357C32.4706 56.9357 33.9465 55.4607 33.9465 53.5432C33.9465 51.6257 32.4706 50.1506 30.5519 50.1506C28.6332 50.1506 27.1572 51.7732 27.1572 53.5432Z" fill="#487F76"/>
<path d="M16.0877 62.5408C16.3829 62.5408 16.6781 62.2458 16.6781 61.9508V58.2632C16.6781 57.9682 16.3829 57.6732 16.0877 57.6732C15.7925 57.6732 15.4973 57.9682 15.4973 58.2632V61.9508C15.4973 62.3933 15.6449 62.5408 16.0877 62.5408Z" fill="#DD6635"/>
<path d="M17.2686 63.8683H20.9585C21.2536 63.8683 21.5488 63.5733 21.5488 63.2783C21.5488 62.9833 21.2536 62.6883 20.9585 62.6883H17.2686C16.9734 62.6883 16.6782 62.9833 16.6782 63.2783C16.6782 63.5733 16.9734 63.8683 17.2686 63.8683Z" fill="#DD6635"/>
<path d="M11.2171 63.8683H14.907C15.2022 63.8683 15.4974 63.5733 15.4974 63.2783C15.4974 62.9833 15.2022 62.6883 14.907 62.6883H11.2171C10.922 62.6883 10.6268 62.9833 10.6268 63.2783C10.4792 63.5733 10.7744 63.8683 11.2171 63.8683Z" fill="#DD6635"/>
<path d="M16.0877 68.4409C16.3829 68.4409 16.6781 68.1459 16.6781 67.8509V64.1633C16.6781 63.8683 16.3829 63.5733 16.0877 63.5733C15.7925 63.5733 15.4973 63.8683 15.4973 64.1633V67.8509C15.4973 68.1459 15.6449 68.4409 16.0877 68.4409Z" fill="#DD6635"/>
</g>
<defs>
<clipPath id="clip0_2326:389">
<rect width="227" height="186" fill="white"/>
</clipPath>
</defs>
</svg>
