<svg width="225" height="227" viewBox="0 0 225 227" fill="none" xmlns="http://www.w3.org/2000/svg">
<g clip-path="url(#clip0_2326:1288)">
<path d="M114.385 220.654C170.191 220.654 215.432 215.489 215.432 209.117C215.432 202.745 170.191 197.579 114.385 197.579C58.578 197.579 13.3376 202.745 13.3376 209.117C13.3376 215.489 58.578 220.654 114.385 220.654Z" fill="#DEE6E7"/>
<path d="M94.2333 201.329C138.885 210.271 177.883 200.175 199.485 182.292C208.328 174.937 217.316 163.688 220.651 150.564C232.539 102.972 197.31 63.6004 170.055 78.4549C125.403 102.684 118.734 85.5216 82.3454 48.7459C54.8003 21.0559 -32.4742 59.8507 13.0478 141.478C31.3145 174.649 62.339 194.984 94.2333 201.329Z" fill="#DEE6E7"/>
<path d="M117.284 48.8901C117.284 48.8901 118.444 38.5063 107.716 40.0927C97.1327 41.6791 95.393 55.8126 106.266 58.4085C117.429 61.0044 117.284 48.8901 117.284 48.8901Z" fill="#DD6635"/>
<path d="M118.299 47.4479C118.299 47.4479 108.296 44.2751 103.367 51.7744C99.1623 58.1201 101.192 62.4466 99.3073 65.9079C97.2777 69.2249 93.2184 69.2249 93.9433 74.9936C94.6681 80.7624 88.4342 79.0317 87.9993 84.8005C87.5644 90.7134 92.9284 92.2999 88.5792 94.3189C84.23 96.4822 79.4458 101.963 80.8956 107.154C82.2003 112.202 105.541 104.414 116.124 111.192C126.707 118.115 139.32 115.663 139.03 110.183C138.74 104.703 131.782 101.386 134.681 97.3475C137.581 93.3094 139.9 87.8291 137.146 82.6372C134.391 77.4453 135.841 78.1664 136.711 72.6861C137.291 69.3691 136.566 64.7541 136.276 60.8602C135.841 56.2452 135.696 54.2262 131.347 50.6207C124.678 44.9962 118.299 47.4479 118.299 47.4479Z" fill="#DD6635"/>
<path d="M101.337 55.9568H101.192C100.902 55.8126 100.902 55.5241 100.902 55.3799C100.902 55.2357 105.976 44.1309 117.574 46.7268C117.864 46.7268 118.009 47.0152 117.864 47.3037C117.864 47.5921 117.574 47.7363 117.284 47.5921C106.411 45.1404 101.772 55.2357 101.627 55.6683C101.627 55.8126 101.482 55.9568 101.337 55.9568Z" fill="#F7F9FF"/>
<path d="M93.0735 159.794C93.0735 159.794 93.0735 162.967 97.4227 163.255L140.915 158.352C140.915 158.352 143.669 156.477 142.51 152.872C142.365 152.727 122.648 145.228 93.0735 159.794Z" fill="#315748"/>
<path d="M143.38 173.639C117.139 181.138 96.1179 176.235 96.1179 176.235C96.8428 172.774 97.1327 169.024 97.2777 165.563C97.4227 161.525 97.4227 158.064 97.2777 156.189C106.701 154.314 130.042 149.843 139.465 150.564L140.045 154.17L143.38 173.639Z" fill="#EAAD91"/>
<path d="M123.518 161.381C123.518 162.534 123.083 163.544 122.648 163.544C122.213 163.544 121.778 162.534 121.778 161.381C121.778 160.227 122.213 159.217 122.648 159.217C123.083 159.217 123.518 160.227 123.518 161.381Z" fill="#E2806D"/>
<path d="M140.19 154.314C130.477 155.179 111.775 157.775 97.2778 165.563C97.4228 161.525 97.4228 158.064 97.2778 156.189C106.701 154.314 130.042 149.843 139.465 150.564L140.19 154.314Z" fill="#E2806D"/>
<path d="M148.019 135.998C147.004 139.027 144.829 141.623 143.38 143.353C143.235 143.497 142.945 143.786 142.8 143.93C142.51 144.218 142.22 144.507 142.075 144.651C141.785 144.94 141.64 145.084 141.64 145.084C141.64 145.228 141.64 145.372 141.64 145.661C141.64 146.382 141.785 147.247 141.93 148.112C142.075 148.833 142.075 149.699 142.22 150.708C142.365 151.429 142.365 152.15 142.51 152.872C141.205 152.583 139.9 152.295 138.595 152.15C138.305 152.15 138.16 152.15 137.871 152.006C135.116 151.718 132.217 151.718 129.027 152.006C128.737 152.006 128.592 152.006 128.302 152.006C115.399 153.016 100.467 157.487 93.2184 159.794C93.2184 159.217 93.2184 158.785 93.3634 158.208C93.3634 157.775 93.3634 157.487 93.3634 157.054C93.5084 153.016 93.3634 149.266 93.0735 146.093C93.0735 145.805 93.0735 145.516 92.9285 145.228C92.3486 140.469 90.8989 133.691 88.8692 126.768C88.7242 126.335 88.5793 125.758 88.4343 125.326C88.2893 125.037 88.2893 124.749 88.1443 124.461C87.4195 122.153 86.6946 119.846 85.8248 117.682C85.5348 116.961 85.2449 116.24 85.0999 115.375C84.8099 114.509 84.665 113.644 84.375 112.779C83.9401 110.616 83.6501 108.596 83.6501 106.577C83.6501 102.972 84.665 99.7992 86.8396 97.6359C88.1443 96.3379 89.884 95.3284 92.0587 94.7515C92.7835 94.6073 93.5084 94.3189 94.2333 94.1746C96.4079 93.5978 98.4375 93.1651 100.032 92.7325C100.612 92.5882 101.047 92.444 101.482 92.444C102.642 92.1556 103.512 92.0114 103.802 92.0114C103.947 92.0114 104.092 92.0114 104.092 92.0114L124.388 94.7515L126.273 95.0399C127.142 95.1842 127.867 95.3284 128.592 95.4726C130.332 95.761 131.927 96.1937 133.231 96.4821C134.826 96.9148 136.276 97.4917 137.291 97.9243C142.075 100.376 141.93 103.837 142.8 110.616C142.8 110.76 142.8 110.904 142.8 110.904V111.048C142.945 111.625 142.945 112.058 143.09 112.635C143.235 113.211 143.38 113.933 143.524 114.509C143.814 115.807 144.104 116.961 144.394 118.259C145.699 123.163 147.294 127.633 147.874 131.239C147.874 131.671 148.019 132.104 148.019 132.537C148.309 133.691 148.309 134.988 148.019 135.998Z" fill="#487F76"/>
<path d="M136.711 148.545C135.551 147.536 133.811 147.103 131.637 147.391C128.157 147.824 128.157 149.843 128.157 151.574C128.157 151.718 128.157 151.862 128.157 151.862C128.447 151.862 128.592 151.862 128.882 151.862C128.882 151.718 128.882 151.718 128.882 151.574C128.882 149.843 128.882 148.401 131.782 148.112C133.811 147.824 135.261 148.257 136.276 149.122C137.436 150.131 137.726 151.718 137.726 152.006C138.015 152.006 138.16 152.006 138.45 152.151C138.45 151.862 138.305 149.843 136.711 148.545Z" fill="#315748"/>
<path d="M105.396 129.508C105.106 129.508 104.816 129.364 104.381 129.364C102.497 128.787 101.482 127.489 101.192 125.903C100.902 123.739 102.497 121.288 105.106 119.846C107.281 118.548 106.556 117.25 105.831 115.663C105.251 114.509 104.526 113.212 105.396 112.202C107.281 110.039 110.035 111.337 110.325 111.481C114.095 112.779 116.124 115.952 116.124 118.259C116.124 119.701 115.4 120.855 114.095 121.432C112.79 121.865 111.63 123.595 110.615 125.326C109.166 127.345 107.716 129.652 105.396 129.508ZM108.586 111.481C107.861 111.481 106.846 111.625 106.121 112.49C105.541 113.067 105.976 113.933 106.556 115.086C107.426 116.673 108.441 118.692 105.541 120.278C103.222 121.576 101.772 123.739 102.062 125.759C102.207 127.056 103.077 128.066 104.671 128.643C106.991 129.364 108.441 127.056 110.035 124.605C111.195 122.874 112.355 120.999 113.95 120.422C114.965 119.99 115.545 119.124 115.545 117.971C115.545 115.952 113.66 113.067 110.325 111.914C110.18 111.914 109.456 111.625 108.586 111.481Z" fill="#315748"/>
<path d="M138.885 121.432C137.726 121.432 137.001 120.999 136.421 120.422C135.696 119.701 135.551 118.259 136.276 116.529C137.291 113.933 136.131 113.212 134.536 112.346C133.666 111.914 132.651 111.337 131.927 110.327C130.332 107.443 135.551 103.549 135.841 103.405C135.986 103.26 136.131 103.26 136.276 103.405L140.915 105.568C141.06 105.568 141.06 105.712 141.06 105.856C141.205 106.289 144.684 117.538 142.945 120.567C142.655 120.999 142.365 121.288 141.785 121.432C140.625 121.432 139.61 121.576 138.885 121.432ZM136.131 103.982C134.681 105.135 131.492 108.02 132.651 109.895C133.086 110.76 134.101 111.192 134.971 111.769C136.566 112.635 138.305 113.644 137.146 116.817C136.566 118.403 136.566 119.557 137.146 120.134C137.871 120.855 139.465 120.999 141.785 120.567C142.075 120.567 142.22 120.422 142.365 120.134C143.67 117.827 141.495 109.462 140.48 106.145L136.131 103.982Z" fill="#315748"/>
<path d="M98.1476 109.75C95.5381 109.606 93.2185 106.145 93.2185 106.001C93.2185 105.856 93.0735 105.856 93.2185 105.712L96.9878 95.04C96.9878 94.8958 97.2778 94.7515 97.4227 94.7515C98.0026 94.8957 103.512 96.7706 103.802 99.2223C103.947 100.52 102.932 100.809 102.207 101.097C101.337 101.386 100.612 101.674 100.902 102.972C101.337 105.424 101.627 107.299 100.757 108.597C100.322 109.173 99.7423 109.462 98.8725 109.606C98.5825 109.75 98.2926 109.75 98.1476 109.75ZM93.7984 105.856C94.2333 106.577 96.4079 109.462 98.5825 109.029C99.3074 108.885 99.7423 108.741 100.032 108.308C100.757 107.299 100.467 105.568 100.032 103.26C99.5973 101.241 100.902 100.809 101.917 100.52C102.787 100.232 103.077 100.088 103.077 99.3665C102.932 97.9243 99.3074 96.3379 97.5677 95.6168L93.7984 105.856Z" fill="#315748"/>
<path d="M111.485 139.603C111.195 139.603 105.396 138.45 105.251 134.123C105.251 133.258 105.396 132.681 105.831 132.248C106.846 131.239 108.586 131.383 110.615 131.527C112.355 131.671 114.095 131.671 115.399 131.095C117.139 130.229 117.139 128.931 117.284 127.633C117.284 126.48 117.429 125.326 118.444 124.605C119.024 124.172 119.749 124.172 120.329 124.316C122.068 124.893 123.228 127.778 123.373 127.922V128.066C122.793 131.96 120.618 135.133 116.994 137.44C114.095 139.027 111.63 139.603 111.485 139.603ZM119.749 124.893C119.459 124.893 119.169 125.037 118.879 125.182C118.154 125.614 118.009 126.624 118.009 127.633C117.864 129.076 117.864 130.806 115.834 131.816C114.385 132.537 112.5 132.393 110.76 132.393C109.021 132.248 107.281 132.248 106.556 132.969C106.266 133.258 106.121 133.69 106.121 134.267C106.266 137.873 111.05 139.027 111.63 139.027C112.5 138.738 121.488 136.431 122.793 128.066C122.648 127.633 121.633 125.47 120.329 125.037C119.894 124.893 119.894 124.893 119.749 124.893Z" fill="#315748"/>
<path d="M148.164 132.393C147.294 131.383 146.424 130.806 145.409 130.662C143.38 130.374 141.495 131.96 141.495 132.104C141.495 132.104 141.35 132.248 141.205 132.248C141.06 132.248 131.637 132.537 130.767 136.431C130.477 137.44 130.622 138.306 131.057 139.027C132.072 140.469 134.826 140.757 137.146 141.046C138.45 141.19 139.61 141.767 140.77 142.344C141.64 142.776 142.365 143.209 143.09 143.353C142.945 143.497 142.655 143.786 142.51 143.93C141.785 143.642 141.06 143.353 140.335 142.921C139.175 142.344 138.16 141.767 137.001 141.623C134.391 141.478 131.637 141.046 130.332 139.315C129.752 138.45 129.607 137.44 129.897 136.142C130.912 131.96 139.61 131.383 140.915 131.383C141.35 130.95 143.09 129.508 145.264 129.941C146.134 130.085 147.004 130.518 147.729 131.239C148.164 131.527 148.164 131.96 148.164 132.393Z" fill="#315748"/>
<path d="M143.379 112.49C132.796 109.895 129.607 99.2223 128.882 95.3284C130.622 95.6169 132.216 96.0495 133.521 96.338C135.116 96.7706 136.566 97.3475 137.581 97.7802C142.365 100.232 142.22 103.693 143.09 110.471C143.09 110.616 143.09 110.76 143.09 110.76V110.904C143.09 111.481 143.235 112.058 143.379 112.49Z" fill="#EAAD91"/>
<path d="M124.533 94.6073C123.663 96.4821 121.778 98.6454 117.139 99.0781C110.76 99.5107 105.686 94.1746 103.947 92.0114C104.092 92.0114 104.236 92.0114 104.236 92.0114L124.533 94.6073Z" fill="#315748"/>
<path d="M119.459 106.722C119.604 106.722 119.894 106.722 120.039 106.722C121.778 106.577 123.083 105.856 123.953 104.558C126.562 100.809 124.098 93.4536 123.953 93.1651C123.808 92.8767 123.663 92.7325 123.373 92.8767C123.083 93.0209 122.938 93.1651 123.083 93.4536C123.083 93.4536 125.403 100.664 123.083 103.982C122.358 104.991 121.343 105.568 119.894 105.712C113.66 106.145 104.526 91.7229 104.526 91.5787C104.381 91.2903 104.091 91.2903 103.946 91.4345C103.657 91.5787 103.657 91.8672 103.802 92.0114C104.091 92.7325 112.79 106.433 119.459 106.722Z" fill="white"/>
<path d="M111.775 146.238C111.92 146.382 112.065 146.526 112.21 146.526C112.355 146.526 112.355 146.526 112.5 146.526C112.645 146.526 120.474 142.632 129.752 144.94C134.536 146.093 138.45 146.238 141.64 145.661C141.64 145.516 141.64 145.228 141.64 145.084C141.64 145.084 141.785 144.94 142.075 144.651C139.03 145.228 134.826 145.228 129.897 143.93C120.329 141.478 112.355 145.516 111.92 145.661C111.775 145.805 111.63 146.093 111.775 146.238Z" fill="#315748"/>
<path d="M123.228 111.625C129.172 111.914 130.912 105.568 130.912 105.568C130.912 105.28 130.767 104.991 130.622 104.991C130.332 104.991 130.042 105.135 130.042 105.28C130.042 105.568 128.592 110.904 123.373 110.616C117.864 110.327 106.556 101.386 106.411 101.386C106.266 101.241 105.976 101.241 105.686 101.53C105.541 101.674 105.541 101.962 105.831 102.251C106.121 102.539 117.429 111.337 123.228 111.625Z" fill="#315748"/>
<path d="M120.908 147.536L118.444 148.689L115.979 149.843C114.529 150.564 112.935 151.141 111.485 151.862C111.34 151.862 111.195 152.006 111.195 152.006C111.05 152.006 110.905 152.151 110.905 152.151C109.31 152.727 107.861 153.449 106.266 154.025C105.251 154.458 104.091 154.891 103.076 155.179C102.787 155.323 102.497 155.323 102.352 155.468C101.917 155.612 101.627 155.756 101.192 155.9C99.4521 156.477 97.7124 157.054 95.8278 157.487C94.9579 157.775 94.0881 157.919 93.2182 158.064C93.0733 158.064 92.9283 158.064 92.9283 158.208C91.9135 158.352 91.0436 158.64 89.8838 158.785H89.7389C89.4489 158.785 89.3039 158.785 89.014 158.929C87.9992 159.073 86.9843 159.073 85.8246 159.073C85.6796 159.073 85.3896 159.073 85.2447 159.073C85.0997 159.073 84.8097 159.073 84.5198 159.073C84.2298 159.073 84.0849 159.073 83.7949 158.929C83.505 158.929 83.215 158.785 82.9251 158.785C82.7801 158.785 82.6351 158.785 82.4901 158.64L82.0552 158.496L81.6203 158.352H81.4753H81.3303H81.1854H81.0404C80.8954 158.352 80.6055 158.208 80.4605 158.064C79.8806 157.775 79.3007 157.487 78.7208 157.054C78.4309 156.91 78.2859 156.766 77.9959 156.477L77.706 156.189C77.561 156.044 77.416 156.044 77.416 155.9C77.1261 155.612 76.9811 155.468 76.8361 155.179C76.6912 155.035 76.6912 154.891 76.5462 154.891C76.4012 154.747 76.4012 154.602 76.2562 154.458C75.8213 153.881 75.5314 153.304 75.2414 152.727C74.9515 152.151 74.8065 151.429 74.6615 150.997C74.5166 150.42 74.3716 149.843 74.3716 149.41C74.3716 149.122 74.3716 148.978 74.3716 148.689V148.257V148.112V147.247V146.382C74.3716 146.093 74.3716 145.805 74.3716 145.517V144.94L74.5166 144.074C74.6615 143.065 74.8065 142.2 74.9515 141.334L75.0965 140.036L75.2414 138.738C75.3864 138.161 75.3864 137.729 75.5314 137.152C75.5314 136.863 75.6764 136.719 75.6764 136.431C75.8213 135.421 75.9663 134.556 76.2562 133.546C76.8361 130.085 77.561 126.768 78.2859 123.307C78.4309 122.586 78.5758 121.865 78.7208 121.144C78.7208 120.855 78.8658 120.711 78.8658 120.423C79.1557 119.125 79.4457 117.682 79.7356 116.384C80.0256 115.375 80.1706 114.365 80.4605 113.212C81.1854 109.895 82.0552 106.578 82.9251 103.116C83.505 100.809 84.9547 99.0782 86.8394 97.9244C88.869 96.7707 91.1886 96.338 93.6532 96.9149C96.1177 97.636 98.0024 99.2224 99.1622 101.241C100.032 102.972 100.467 104.991 100.032 107.01C98.7273 113.644 97.2775 120.278 95.8278 126.912L94.813 131.816C94.523 133.402 94.0881 135.133 93.7981 136.719L92.7833 141.046C93.9431 140.757 95.1029 140.469 96.2627 140.18C97.8574 139.748 99.3072 139.315 100.902 138.882C102.497 138.45 104.091 138.017 105.686 137.44C107.281 137.008 108.875 136.431 110.47 135.998L115.109 134.412H115.254C119.024 133.258 123.083 135.277 124.243 139.027C125.547 142.344 123.953 146.093 120.908 147.536Z" fill="#487F76"/>
<path d="M86.2596 125.326C85.3897 127.057 83.94 127.778 82.6352 128.499C80.6056 129.508 79.0109 130.374 79.1558 133.691C79.3008 136.431 77.8511 136.863 76.9812 137.008C76.8363 137.008 76.6913 137.008 76.5463 137.008C76.2564 137.008 75.9664 137.008 75.5315 136.863C75.5315 136.575 75.6765 136.431 75.6765 136.142C76.1114 136.287 76.5463 136.287 76.8363 136.287C77.2712 136.287 78.431 136.142 78.286 133.835C77.9961 130.085 80.1707 129.076 82.0553 127.922C83.3601 127.201 84.6649 126.624 85.3897 125.182C85.6797 124.605 85.6797 124.172 85.3897 123.74C84.5199 122.153 80.8955 121.288 78.576 120.855C78.576 120.567 78.7209 120.423 78.7209 120.134C80.8955 120.423 84.9548 121.432 86.1146 123.307C86.5495 123.884 86.5495 124.605 86.2596 125.326Z" fill="#315748"/>
<path d="M92.9285 110.039C91.1888 108.597 89.7391 108.02 88.4343 108.308C87.4195 108.597 86.8396 109.318 86.6946 109.606C85.9698 109.75 83.5052 110.471 83.6502 113.356C83.7952 114.942 85.0999 116.096 86.4047 117.25C87.8544 118.403 89.1592 119.557 88.7243 120.999C88.2894 122.586 88.7243 124.028 89.8841 125.037C90.464 125.47 91.1888 125.759 91.9137 125.903C92.3486 125.903 92.9285 125.903 93.3634 125.614C94.5232 125.037 95.3931 122.297 95.683 119.99C95.683 118.548 96.118 112.779 92.9285 110.039ZM94.6682 120.134C94.3783 122.874 93.3634 124.893 92.7835 125.326C91.9137 125.759 91.0439 125.614 90.174 124.893C89.3042 124.172 88.8692 122.874 89.3042 121.576C89.8841 119.701 88.2894 118.403 86.8396 117.105C85.6798 116.096 84.3751 114.942 84.3751 113.644C84.2301 110.904 86.8396 110.616 86.9846 110.616C87.1296 110.616 87.2745 110.471 87.2745 110.471C87.2745 110.471 87.7095 109.606 88.7243 109.318C89.7391 109.029 91.0439 109.606 92.4936 110.904C94.8132 112.635 95.1031 116.817 94.6682 120.134Z" fill="#315748"/>
<path d="M83.0702 154.17C82.9252 155.468 82.2003 156.766 81.0405 158.064H80.8956C80.7506 158.064 80.4607 157.919 80.3157 157.775C81.3305 156.621 82.0554 155.323 82.2003 154.025C82.3453 152.728 81.9104 152.006 80.8956 151.574C78.576 150.564 78.8659 149.41 79.1559 148.257C79.4458 147.247 79.7358 146.093 78.1411 144.795C77.4162 144.074 76.6913 143.786 75.8215 143.93C75.2416 144.074 74.5167 144.363 74.0818 144.651L74.2268 143.786C74.6617 143.498 75.2416 143.353 75.8215 143.209C76.8363 143.065 77.8511 143.498 78.721 144.219C80.4606 145.805 80.1707 147.247 79.8808 148.401C79.5908 149.555 79.4458 150.132 81.1855 150.853C82.7802 151.43 83.3601 152.728 83.0702 154.17Z" fill="#315748"/>
<path d="M116.704 140.902C116.704 141.046 116.559 141.19 116.269 141.19C113.805 141.046 107.426 141.334 106.701 143.209C106.556 143.353 106.556 143.642 106.701 143.786C106.846 144.074 107.861 144.074 108.586 144.074C109.89 144.074 111.485 144.219 111.775 145.372C111.92 146.238 111.485 146.814 110.905 147.391C110.035 148.257 109.31 149.122 111.485 151.862C111.485 151.862 111.485 151.862 111.485 152.006C111.34 152.006 111.195 152.151 111.195 152.151C111.05 152.151 110.905 152.295 110.905 152.295C108.296 149.122 109.6 147.824 110.47 146.959C110.905 146.382 111.195 146.093 111.195 145.661C111.05 145.084 110.035 144.94 108.731 144.94C107.716 144.94 106.701 144.94 106.266 144.219C106.121 143.93 106.121 143.497 106.266 143.065C107.426 140.469 115.544 140.613 116.559 140.613C116.559 140.469 116.704 140.613 116.704 140.902Z" fill="#315748"/>
<path d="M102.932 152.583C102.497 149.843 100.902 147.247 99.4523 146.815C98.0026 146.382 97.2777 147.968 96.5528 149.41C95.9729 150.708 95.3931 152.151 94.3782 152.439C93.3634 152.727 92.7835 152.006 92.0586 150.564C91.3338 149.41 90.6089 148.112 89.1592 148.689C87.9994 149.266 87.1295 150.276 86.9845 151.574C86.6946 153.016 87.2745 154.458 88.5793 155.612C89.1592 156.045 89.3041 156.621 89.3041 157.198C89.3041 157.775 89.1592 158.352 88.8692 158.785C89.1592 158.785 89.3041 158.785 89.5941 158.64H89.7391C89.884 158.208 90.029 157.631 90.029 157.198C90.029 156.477 89.7391 155.756 89.0142 155.179C87.9994 154.314 87.4195 153.016 87.7094 151.862C87.8544 150.853 88.5793 149.987 89.4491 149.555C90.174 149.266 90.6089 149.843 91.4787 151.141C92.2036 152.295 93.0735 153.881 94.6682 153.304C96.1179 152.727 96.6978 151.285 97.2777 149.843C98.0026 148.257 98.4375 147.391 99.3074 147.68C100.322 147.968 101.772 150.276 102.207 152.872C102.352 153.593 102.352 154.602 102.062 155.756C102.352 155.612 102.642 155.612 102.787 155.468C103.077 154.17 103.077 153.304 102.932 152.583Z" fill="#315748"/>
<path d="M91.6236 128.499C89.594 127.345 87.9992 127.057 87.1294 127.633C86.1146 128.21 86.1146 129.508 86.2595 130.518C86.4045 131.816 86.2595 132.681 85.0998 133.114C83.3601 133.691 82.7802 135.421 82.9251 136.719C83.0701 137.729 83.94 138.738 85.5347 138.738C85.6796 138.738 85.9696 138.738 86.2595 138.738C88.2892 138.594 89.159 137.296 89.8839 136.431C90.6088 135.421 90.8987 134.989 91.9135 135.421C92.4934 135.71 92.9284 135.71 93.3633 135.421C93.6532 135.277 93.7982 134.989 93.9432 134.7C94.0882 134.412 94.2331 133.979 94.2331 133.546C94.5231 131.527 93.3633 129.508 91.6236 128.499ZM93.5083 133.402C93.3633 134.123 93.2183 134.556 92.9284 134.7C92.7834 134.844 92.4934 134.844 92.0585 134.7C90.6088 134.123 89.8839 134.989 89.159 135.998C88.4342 136.863 87.7093 137.873 86.1146 138.017C84.8098 138.161 83.795 137.585 83.65 136.575C83.505 135.565 83.94 134.268 85.2447 133.835C86.9844 133.258 86.9844 131.672 86.8394 130.518C86.8394 129.364 86.8394 128.643 87.4193 128.355C87.7093 128.21 87.9992 128.21 88.2892 128.21C89.0141 128.21 90.0289 128.643 91.1887 129.22C92.7834 129.941 93.6532 131.672 93.5083 133.402Z" fill="#315748"/>
<path d="M106.121 154.458C105.976 154.458 105.831 154.314 105.686 154.17C105.541 153.881 105.686 153.737 105.976 153.593C114.675 150.564 120.619 146.67 120.764 146.526C120.909 146.382 121.199 146.382 121.343 146.67C121.488 146.815 121.488 147.103 121.199 147.247C121.199 147.247 115.11 151.43 106.266 154.314C106.266 154.458 106.266 154.458 106.121 154.458Z" fill="#315748"/>
<path d="M94.8131 140.757C94.6681 140.757 94.5231 140.757 94.5231 140.613C94.3782 140.469 94.3782 140.325 94.3782 140.18C95.8279 134.7 97.4226 126.047 98.4375 119.701C98.8724 117.25 99.3073 115.231 99.5972 113.5C99.5972 113.212 99.8872 113.067 100.177 113.212C100.467 113.212 100.612 113.5 100.467 113.788C100.177 115.375 99.7422 117.538 99.3073 119.846C98.1475 126.191 96.6978 134.123 95.393 139.748C98.0025 139.459 108.441 138.017 112.645 136.287C112.935 136.142 113.08 136.287 113.225 136.575C113.37 136.863 113.225 137.008 112.935 137.152C108.151 139.171 95.538 140.613 94.8131 140.757C94.9581 140.757 94.8131 140.757 94.8131 140.757Z" fill="#315748"/>
<path d="M89.4489 143.786C89.3039 143.786 89.1589 143.786 89.1589 143.642C89.014 143.497 89.014 143.209 89.3039 143.065C90.6087 142.2 92.4934 141.19 93.6531 140.469C92.3484 140.325 90.7537 140.469 90.0288 140.469C89.7388 140.469 89.5939 140.325 89.5939 140.036C89.5939 139.748 89.7388 139.604 90.0288 139.604C90.1738 139.604 93.7981 139.315 95.2479 139.892C95.3928 139.892 95.5378 140.18 95.5378 140.325C95.5378 140.469 95.3928 140.613 95.2479 140.757C95.2479 140.757 91.7685 142.344 89.8838 143.786C89.5939 143.786 89.4489 143.786 89.4489 143.786Z" fill="#315748"/>
<path d="M99.3071 118.403C99.1621 118.403 99.0172 118.403 99.0172 118.259C98.8722 118.115 98.8722 117.827 99.0172 117.682L102.207 115.086C102.352 114.942 102.642 114.942 102.787 115.086C102.931 115.231 102.931 115.519 102.787 115.663L99.5971 118.259C99.5971 118.403 99.4521 118.403 99.3071 118.403Z" fill="#315748"/>
<path d="M99.1624 100.953C97.7126 106.722 94.0883 113.356 84.9549 115.375C83.3602 115.663 81.6205 115.952 79.7358 115.952C80.0258 114.942 80.1708 113.933 80.4607 112.779C81.1856 109.462 82.0554 106.145 82.9253 102.684C83.5052 100.376 84.9549 98.6455 86.8396 97.4918C88.1443 96.1938 89.884 95.1843 92.0587 94.6074C92.7835 94.4632 93.5084 94.1747 94.2333 94.0305C96.4079 93.4536 98.4375 93.021 100.032 92.5883C100.032 94.6074 99.8873 97.636 99.1624 100.953Z" fill="#EAAD91"/>
<path d="M126.708 136.142C126.708 136.142 129.752 132.537 130.912 128.931C132.072 125.326 132.217 121.576 131.057 121.288C129.897 121.144 129.317 124.028 126.998 127.922C124.678 132.104 126.708 136.142 126.708 136.142Z" fill="#E2806D"/>
<path d="M125.693 124.749C125.693 124.749 127.867 121.865 130.477 120.567C134.246 118.836 132.072 116.817 129.172 118.548C126.273 120.278 124.678 121.576 124.678 121.576L125.693 124.749Z" fill="#E2806D"/>
<path d="M114.385 137.008C114.385 137.008 119.024 134.556 119.604 132.104C120.184 129.652 122.358 123.451 125.258 119.125C129.027 113.788 131.492 116.384 130.332 117.538C129.607 118.259 128.012 118.836 127.287 122.874C126.563 126.912 128.882 137.44 127.287 140.757C125.548 143.93 120.764 146.093 120.764 146.093C120.764 146.093 114.675 140.757 114.385 137.008Z" fill="#EAAD91"/>
<path d="M121.489 126.48C121.489 126.48 122.938 118.548 125.113 116.384C127.287 114.221 128.882 111.337 130.332 111.769C131.782 112.058 128.882 116.817 128.882 116.817L121.489 126.48Z" fill="#EAAD91"/>
<path d="M162.661 141.911C162.516 141.623 162.516 141.334 162.371 141.046C162.081 139.892 161.501 138.738 160.921 137.296C160.776 137.008 160.631 136.719 160.487 136.431C159.182 133.402 157.297 129.941 155.412 126.48C155.267 126.191 155.122 126.047 154.978 125.759C152.078 120.422 148.889 114.942 146.569 111.048C145.554 109.318 144.684 107.731 143.959 106.722C143.525 105.856 141.93 102.684 140.77 100.809C141.06 102.539 142.655 108.308 142.945 110.76C142.945 110.904 142.945 111.048 142.945 111.048V111.193C143.09 111.769 143.09 112.202 143.235 112.779C143.38 113.356 143.525 114.077 143.67 114.654C143.959 115.952 144.249 117.105 144.539 118.403C146.569 125.903 149.179 132.393 147.874 136.142C146.569 140.18 143.09 143.642 141.93 144.795C141.64 145.084 141.495 145.228 141.495 145.228C141.495 145.372 141.495 145.517 141.495 145.805V145.949C141.64 146.238 141.785 146.526 142.075 146.815C142.22 146.959 142.365 147.247 142.51 147.391L142.655 147.536C142.8 147.68 143.959 148.978 145.264 150.276C146.279 151.141 147.149 152.006 147.874 152.583C148.309 152.872 148.744 153.16 149.179 153.449C149.324 153.593 149.613 153.737 149.758 153.737C150.483 154.025 151.353 154.314 151.933 154.458C152.223 154.458 152.513 154.602 152.658 154.602C152.803 154.602 152.948 154.602 153.093 154.602C155.267 154.747 157.007 154.025 157.877 153.593C158.457 153.304 160.197 152.295 161.356 150.276C161.501 150.132 161.646 149.843 161.791 149.555C162.081 148.978 162.371 148.257 162.516 147.536C162.516 147.247 162.661 147.103 162.661 146.815C163.241 145.228 163.096 143.642 162.661 141.911Z" fill="#487F76"/>
<path d="M157.877 146.959C156.572 147.103 156.717 148.257 156.862 149.122C157.007 150.42 157.152 151.862 154.832 152.439C153.673 152.727 152.803 153.449 152.368 154.314C152.658 154.314 152.948 154.458 153.093 154.458C153.383 153.881 153.963 153.449 154.977 153.16C157.877 152.439 157.732 150.42 157.587 149.122C157.442 147.968 157.587 147.824 158.022 147.68C158.167 147.68 158.167 147.68 158.312 147.68C159.472 147.68 160.921 148.978 161.936 150.131C162.081 149.987 162.226 149.699 162.371 149.41C161.066 148.257 159.327 146.814 157.877 146.959Z" fill="#315748"/>
<path d="M153.673 148.545C153.673 148.257 153.528 147.968 153.383 147.824C152.368 146.959 151.498 147.391 150.773 147.824C150.048 148.112 149.468 148.545 148.599 148.257C147.874 147.968 147.729 147.536 147.439 146.67C147.294 145.805 147.004 144.795 145.554 144.651C143.959 144.507 142.8 145.661 142.22 146.67C142.365 146.814 142.51 147.103 142.655 147.247C143.09 146.382 144.104 145.228 145.264 145.372H145.409C146.424 145.517 146.424 146.093 146.569 146.814C146.714 147.536 147.004 148.545 148.164 148.978C149.323 149.266 150.193 148.834 150.918 148.545C151.788 148.112 152.223 147.968 152.803 148.401C152.948 148.545 152.948 148.545 152.948 148.545C152.948 148.978 152.223 149.699 151.498 150.42C150.773 151.141 149.903 152.151 149.323 153.16C149.468 153.304 149.758 153.449 149.903 153.449C150.338 152.583 151.208 151.718 151.933 150.853C152.948 150.131 153.673 149.266 153.673 148.545Z" fill="#315748"/>
<path d="M159.617 143.642C159.182 142.921 159.182 142.344 159.327 142.055C159.617 141.623 160.197 141.478 160.776 141.623C161.356 141.623 162.081 141.767 162.661 142.055C162.661 141.767 162.516 141.478 162.371 141.19C161.066 140.902 159.472 140.613 158.747 141.767C158.312 142.344 158.312 143.209 158.892 144.219C159.617 145.517 161.211 146.959 162.806 147.536C162.806 147.247 162.951 147.103 162.951 146.815C161.646 145.949 160.342 144.795 159.617 143.642Z" fill="#315748"/>
<path d="M160.487 136.431C159.327 135.998 158.457 134.844 158.457 133.835C158.312 132.681 157.442 132.248 156.572 131.816C155.413 131.239 154.543 130.806 154.688 128.787C154.833 127.922 155.123 127.057 155.413 126.48C155.268 126.191 155.123 126.047 154.978 125.759C154.398 126.624 154.108 127.633 153.963 128.787C153.673 131.383 155.123 131.96 156.282 132.537C157.152 132.969 157.732 133.258 157.732 133.979C157.877 135.421 159.037 136.719 160.487 137.296C160.632 137.296 160.777 137.44 161.067 137.44C160.777 137.008 160.632 136.719 160.487 136.431Z" fill="#315748"/>
<path d="M159.472 140.325C159.327 140.325 159.327 140.325 159.182 140.18C157.442 138.45 153.963 135.71 153.818 135.71C153.673 135.565 153.528 135.277 153.673 135.133C153.818 134.989 154.108 134.844 154.253 134.989C154.398 135.133 157.877 137.729 159.617 139.604C159.762 139.748 159.762 140.036 159.617 140.18C159.762 140.325 159.617 140.325 159.472 140.325Z" fill="#315748"/>
<path d="M146.569 110.904C144.974 112.346 143.38 112.49 143.38 112.49C143.235 111.914 143.235 111.481 143.09 110.904V110.76C143.09 110.616 143.09 110.471 143.09 110.471C142.8 108.02 141.205 102.251 140.915 100.52C142.075 102.395 143.67 105.712 144.104 106.433C144.684 107.587 145.554 109.173 146.569 110.904Z" fill="#EAAD91"/>
<path d="M153.383 129.797C153.383 129.797 149.613 122.009 145.699 120.567C141.785 119.124 144.394 123.307 146.424 126.191C148.454 129.22 153.383 129.797 153.383 129.797Z" fill="#E2806D"/>
<path d="M140.915 114.654L130.477 137.296C130.332 137.729 130.912 138.738 131.492 139.171L145.409 139.748C145.844 139.748 146.279 139.604 146.424 139.171L157.877 117.394C158.022 116.961 156.862 115.807 156.572 115.663L142.075 113.933C141.64 113.933 141.06 114.221 140.915 114.654Z" fill="#3F5651"/>
<path d="M141.785 115.952L131.202 138.738C131.057 139.171 131.202 139.459 131.637 139.459L146.134 141.19C146.569 141.19 147.004 141.046 147.149 140.613L157.732 117.827C157.877 117.394 157.732 117.105 157.297 117.105L142.8 115.375C142.51 115.375 142.075 115.519 141.785 115.952Z" fill="#1E342D"/>
<path d="M151.788 145.516C148.743 146.526 145.699 144.651 144.539 141.767C143.959 140.18 143.234 138.594 142.22 137.44C139.9 134.844 135.841 132.969 134.826 130.518C133.811 128.066 134.536 127.633 136.711 128.787C138.885 129.797 142.51 132.248 142.51 132.248C142.51 132.248 138.595 127.778 136.566 126.624C134.391 125.614 133.956 123.451 136.566 123.307C139.03 123.163 144.394 127.345 145.554 128.787C145.554 128.787 143.959 125.326 141.06 123.884C138.305 122.442 136.566 121.576 135.986 120.567C135.261 119.413 137.436 118.403 141.205 120.567C145.119 122.73 147.149 124.461 148.309 126.191C148.309 126.191 148.019 124.461 146.859 121.865C145.699 119.269 142.365 117.682 142.51 115.952C142.655 114.221 146.424 116.096 148.019 118.115C149.613 120.134 151.063 121.432 151.933 124.461C152.948 127.633 153.673 130.662 153.818 132.681C153.963 134.7 155.412 141.767 153.673 144.219C153.383 144.795 152.658 145.228 151.788 145.516Z" fill="#EAAD91"/>
<path d="M123.228 95.04C116.994 101.818 106.121 95.04 105.831 92.2998C108.296 85.81 108.151 77.5895 108.151 77.5895L123.953 84.0794C123.953 84.512 123.808 84.9447 123.808 85.5216C123.518 87.6848 123.228 89.8481 123.228 92.1556C123.228 93.1651 123.228 93.8862 123.228 95.04Z" fill="#EAAD91"/>
<path d="M123.228 92.1556C114.964 89.8481 109.89 81.0508 109.89 81.0508L123.953 85.5216C123.518 87.5406 123.228 89.7039 123.228 92.1556Z" fill="#1E342D"/>
<path d="M128.012 72.3977C128.012 72.3977 129.462 68.5038 132.651 69.5133C135.841 70.5228 135.551 81.195 129.462 80.6181L128.012 72.3977Z" fill="#E2806D"/>
<path d="M124.678 83.3583C124.388 80.4739 126.562 77.878 129.462 77.5895C132.361 77.3011 134.971 79.4644 135.261 82.3487C135.551 85.2331 133.376 87.8291 130.477 88.1175C127.432 88.4059 124.823 86.2427 124.678 83.3583ZM125.403 83.2141C125.548 85.6658 127.867 87.5406 130.332 87.2522C132.796 87.108 134.681 84.8005 134.391 82.3487C134.246 79.897 131.927 78.0222 129.462 78.3106C126.997 78.5991 125.258 80.7623 125.403 83.2141Z" fill="white"/>
<path d="M108.006 78.8875C109.6 83.2141 120.473 88.406 125.113 86.5311C127.867 85.3774 130.477 82.9257 131.926 77.3011C131.926 77.3011 131.926 77.3011 131.926 77.1569C132.071 76.8685 132.071 76.4358 132.216 76.1474C132.361 75.5705 132.506 74.9936 132.651 74.4168C132.651 74.2725 132.651 74.1283 132.651 73.9841C132.651 73.6957 132.796 73.263 132.796 72.9746C132.796 72.5419 132.941 72.2535 132.941 71.8208C133.231 66.1963 133.811 59.8507 128.592 56.101C123.518 52.3513 115.399 51.1976 110.615 56.2452C110.615 56.2452 106.991 60.5718 106.991 68.7922C106.846 77.0127 106.846 75.7147 108.006 78.8875Z" fill="#EAAD91"/>
<path d="M127.432 70.9555C127.432 71.6766 127.577 72.2535 128.012 72.3977C128.447 72.3977 128.737 71.8208 128.882 71.0997C128.882 70.3786 128.737 69.8018 128.302 69.6575C127.867 69.6575 127.432 70.2344 127.432 70.9555Z" fill="#1E342D"/>
<path d="M119.459 69.5133C119.459 70.2344 119.604 70.8113 120.039 70.9555C120.474 70.9555 120.764 70.3786 120.908 69.6575C121.053 68.9364 120.764 68.3596 120.329 68.2153C119.894 68.2153 119.459 68.7922 119.459 69.5133Z" fill="#1E342D"/>
<path d="M114.965 55.3799C114.965 55.3799 112.065 64.1772 109.456 65.9079C106.846 67.6385 104.671 63.3119 104.671 63.3119C104.671 63.3119 110.325 49.7554 114.965 55.3799Z" fill="#DD6635"/>
<path d="M126.127 55.8125C126.127 55.8125 120.908 63.0235 114.529 61.1486C108.151 59.2738 112.5 54.0819 112.5 54.0819C112.5 54.0819 124.533 49.6111 126.127 55.8125Z" fill="#DD6635"/>
<path d="M124.388 55.2357C124.388 55.2357 127.432 64.7541 133.666 63.1677C139.9 61.5813 131.347 52.2071 127.142 52.4955C122.938 52.784 124.388 55.2357 124.388 55.2357Z" fill="#DD6635"/>
<path d="M131.927 77.0127C132.072 76.7243 132.072 76.2916 132.216 76.0032C132.361 75.4263 132.506 74.8494 132.651 74.2726C132.651 74.1283 132.651 73.9841 132.651 73.8399C132.506 73.8399 132.506 73.8399 132.361 73.8399C130.187 73.6957 128.447 74.2725 128.447 75.1379C128.302 76.1474 129.897 76.8685 131.927 77.0127Z" fill="#E2806D"/>
<path d="M111.775 72.9745C111.775 73.8398 113.37 74.7052 115.544 74.8494C117.719 74.9936 119.459 74.4167 119.459 73.5514C119.459 72.6861 117.864 71.8208 115.689 71.6766C113.66 71.5323 111.92 72.1092 111.775 72.9745Z" fill="#E2806D"/>
<path d="M121.343 63.0235C121.343 63.0235 119.169 62.3024 117.284 63.7446C116.269 64.6099 116.994 65.6194 118.299 65.0425C119.169 64.6099 119.749 64.3214 120.909 64.3214C122.068 64.3214 121.923 63.1677 121.343 63.0235Z" fill="#DD6635"/>
<path d="M128.157 63.8888C128.157 63.8888 130.477 63.3119 132.071 64.8983C133.086 65.7636 132.216 66.7731 130.912 66.052C130.042 65.4752 129.462 65.331 128.302 65.1867C127.287 65.1867 127.577 64.033 128.157 63.8888Z" fill="#DD6635"/>
<path d="M109.02 67.7827C109.02 67.7827 107.281 64.4656 103.801 65.7636C100.322 67.0616 101.337 78.7433 108.006 77.7338L109.02 67.7827Z" fill="#EAAD91"/>
<path d="M111.195 62.7351C111.195 62.7351 110.035 64.3215 110.035 69.946C110.035 75.5705 113.66 79.7529 113.66 79.7529C113.66 79.7529 105.976 76.0032 108.151 64.6099C110.325 53.2166 111.195 62.7351 111.195 62.7351Z" fill="#DD6635"/>
<path d="M103.367 75.4263C103.512 75.7147 103.656 75.8589 103.801 76.1473C101.627 76.58 100.177 78.5991 100.322 80.9066C100.467 83.3583 102.787 85.2331 105.251 84.9447C107.716 84.8005 109.6 82.493 109.31 80.0413C109.166 78.3106 108.151 77.0127 106.701 76.2916C105.686 76.0031 105.541 75.5705 105.541 75.1378C108.006 75.4263 109.89 77.4453 110.035 79.897C110.325 82.7814 108.151 85.3773 105.251 85.6658C102.352 85.9542 99.7422 83.7909 99.4522 80.9066C99.3073 78.4548 100.902 76.1473 103.367 75.4263Z" fill="white"/>
<path d="M107.426 73.263C107.426 73.4072 107.281 73.5514 107.136 73.6956C106.991 73.6956 106.846 73.5514 106.846 73.4072C106.846 73.4072 106.556 72.2535 105.831 71.2439C105.106 71.8208 104.671 72.2535 104.671 72.2535C104.671 72.2535 104.526 72.3977 104.381 72.3977C104.236 72.3977 104.236 72.3977 104.091 72.2535C103.946 72.1092 103.946 71.965 104.091 71.8208C104.091 71.8208 104.671 71.2439 105.396 70.6671C104.961 70.0902 104.236 69.6575 103.511 69.5133C103.366 69.5133 103.221 69.3691 103.221 69.0807C103.221 68.9365 103.366 68.7922 103.656 68.7922C106.701 69.6575 107.426 73.1188 107.426 73.263Z" fill="#1E342D"/>
<path d="M118.444 75.1378C118.444 75.1378 118.879 79.6086 122.213 80.9066C125.983 82.493 127.867 77.7338 127.867 77.7338L118.444 75.1378Z" fill="white"/>
<path d="M123.228 82.7814C123.373 82.7814 123.518 82.7814 123.518 82.7814C123.663 82.7814 123.808 82.6372 123.808 82.3488C123.808 82.2045 123.663 82.0603 123.373 82.0603C123.373 82.0603 122.213 82.2046 121.488 81.3392C121.343 81.195 121.198 81.195 121.053 81.3392C120.908 81.4835 120.908 81.6277 121.053 81.7719C121.633 82.7814 122.793 82.7814 123.228 82.7814Z" fill="#E2806D"/>
<path d="M124.388 74.7052C124.243 74.7052 123.953 74.7052 123.808 74.7052C123.518 74.7052 123.373 74.4167 123.518 74.2725C123.518 73.9841 123.808 73.8398 123.953 73.9841C124.823 74.1283 125.403 73.6956 125.693 73.4072C124.533 71.6766 123.808 67.4942 123.808 67.35C123.808 67.0616 123.953 66.9174 124.098 66.9174C124.388 66.9174 124.533 67.0616 124.533 67.2058C124.678 68.5038 125.403 72.1092 126.418 73.1188C126.563 73.263 126.563 73.5514 126.418 73.6956C126.418 73.6956 125.693 74.5609 124.388 74.7052Z" fill="#1E342D"/>
<path d="M107.571 182.148C109.021 183.158 111.195 184.311 114.53 185.465C133.521 191.955 151.353 182.725 151.353 182.725C152.513 177.533 152.078 171.62 150.338 169.313C150.918 168.591 150.628 167.582 150.628 167.582L168.75 149.843C158.457 157.919 145.989 160.227 136.131 165.851C133.231 167.438 130.767 168.88 128.882 169.889C125.983 171.332 122.503 171.476 119.024 170.899C112.21 169.745 105.686 166.284 105.686 166.284C105.686 166.284 83.9401 155.756 79.8808 156.044C76.6914 156.189 93.5084 174.504 107.571 182.148Z" fill="#1E342D"/>
<path d="M97.2778 161.381C97.2778 161.381 114.24 168.447 124.388 166.572C134.391 164.698 141.06 159.65 141.06 159.65L142.655 170.034C142.655 170.034 124.823 177.1 114.24 173.639C103.657 170.178 97.5678 166.572 97.5678 166.572L97.2778 161.381Z" fill="#1E342D"/>
<path d="M141.205 198.301C141.205 198.301 135.551 196.57 133.956 194.695L129.752 203.781L143.09 208.252C142.945 208.252 143.38 200.175 141.205 198.301Z" fill="#EAAD9D"/>
<path d="M172.809 225.702L156.427 187.052C155.847 187.052 154.977 187.196 154.108 187.484C150.773 188.638 145.989 191.811 142.8 193.686C142.51 193.974 142.075 194.118 141.785 194.262C141.205 194.551 140.77 194.839 140.48 194.984C137.726 196.137 139.32 198.301 139.32 198.301C144.829 200.608 140.915 207.386 143.959 209.261C143.959 209.261 145.264 209.982 149.323 212.001C153.383 213.876 157.442 218.347 161.211 221.952" fill="#DD6635"/>
<path d="M172.809 225.702L156.427 187.052C155.847 187.052 154.978 187.196 154.108 187.484L170.78 227" fill="#B44A1E"/>
<path d="M158.167 191.09L157.732 189.936C156.862 191.666 155.267 193.541 152.368 194.551C148.454 195.993 144.829 194.695 142.945 193.686C142.655 193.974 142.22 194.118 141.93 194.262C143.959 195.416 148.019 197.147 152.803 195.416C155.412 194.551 157.152 192.82 158.167 191.09Z" fill="#B44A1E"/>
<path d="M151.208 210.415C151.063 210.126 150.773 209.982 150.483 209.982C150.048 209.982 149.903 210.415 149.903 210.703L150.338 213.299C150.338 213.732 150.773 213.876 151.063 213.876C151.498 213.876 151.643 213.443 151.643 213.155L151.208 210.559V210.415Z" fill="white"/>
<path d="M148.164 208.828C148.019 208.54 147.729 208.396 147.439 208.396C147.004 208.396 146.859 208.828 146.859 209.117L147.294 211.713C147.294 212.146 147.729 212.29 148.019 212.29C148.454 212.29 148.599 211.857 148.599 211.569L148.164 208.973V208.828Z" fill="white"/>
<path d="M153.673 212.145C153.528 211.857 153.238 211.713 152.948 211.713C152.513 211.713 152.368 212.145 152.368 212.434L152.803 215.03C152.803 215.463 153.238 215.607 153.528 215.607C153.963 215.607 154.108 215.174 154.108 214.886L153.673 212.29C153.673 212.29 153.673 212.29 153.673 212.145Z" fill="white"/>
<path d="M155.992 214.02C155.847 213.732 155.557 213.588 155.267 213.588C154.832 213.588 154.688 214.02 154.688 214.309L155.122 216.905C155.122 217.337 155.557 217.482 155.847 217.482C156.282 217.482 156.427 217.049 156.427 216.76L155.992 214.165C155.992 214.165 155.992 214.165 155.992 214.02Z" fill="white"/>
<path d="M158.457 216.184C158.312 215.895 158.022 215.751 157.732 215.751C157.297 215.751 157.152 216.184 157.152 216.472L157.587 219.068C157.587 219.501 158.022 219.645 158.312 219.645C158.747 219.645 158.892 219.212 158.892 218.924L158.457 216.328V216.184Z" fill="white"/>
<path d="M161.066 221.375L160.631 218.78V218.635C160.486 218.347 160.197 218.203 159.907 218.203C159.472 218.203 159.327 218.635 159.327 218.924L159.762 221.52" fill="white"/>
<path d="M79.8809 156.044C79.8809 156.044 66.1084 148.257 57.9898 153.737C42.9125 163.976 67.4131 184.888 95.8281 195.56C124.243 206.233 133.521 205.079 133.521 205.079C133.521 205.079 139.755 203.492 137.871 193.397C137.871 193.397 121.489 186.763 113.08 179.985C104.672 173.206 99.0175 165.13 79.8809 156.044Z" fill="#1E342D"/>
<path d="M136.566 196.281C130.622 194.695 118.589 188.782 104.236 180.562C93.5083 174.36 81.3305 166.428 79.4458 163.832C78.431 162.39 78.286 161.236 78.7209 160.371C79.4458 159.073 81.6204 159.073 82.6352 159.073C82.9252 159.073 83.0701 159.361 83.0701 159.506C83.0701 159.794 82.9252 159.938 82.6352 159.938C81.6204 159.938 80.0257 160.083 79.4458 160.804C79.0109 161.525 79.5908 162.534 80.0257 163.4C81.4754 165.563 91.7686 172.485 104.526 179.841C115.544 186.186 129.752 193.686 136.566 195.56V196.281Z" fill="#3F5651"/>
<path d="M135.551 191.955C134.681 197.147 133.231 201.906 130.187 205.511C130.187 205.511 132.652 207.386 135.116 206.088C136.856 205.079 140.625 197.003 139.32 192.532C137.871 191.955 136.566 191.522 135.551 191.955Z" fill="#3F5651"/>
<path d="M99.3072 197.147C99.3072 197.147 104.961 195.272 106.556 193.397L110.905 202.483L97.7125 207.242C97.7125 207.098 97.1326 199.022 99.3072 197.147Z" fill="#EAAD9D"/>
<path d="M68.1379 225.125L83.7952 186.186C84.3751 186.042 85.2449 186.186 86.1147 186.475C89.4492 187.484 94.3783 190.657 97.5677 192.532C98.0026 192.82 98.2926 192.964 98.5825 193.109C99.1624 193.397 99.5974 193.686 99.8873 193.83C102.642 194.983 101.192 197.147 101.192 197.147C95.6831 199.598 99.7423 206.377 96.8428 208.107C96.8428 208.107 95.5381 208.973 91.4788 210.848C87.4195 212.867 83.5052 217.337 79.7359 221.087" fill="#DD6635"/>
<path d="M68.1379 225.125L83.7952 186.186C84.3751 186.042 85.2449 186.186 86.1147 186.475L70.0226 226.135" fill="#B44A1E"/>
<path d="M82.2004 190.08L82.6354 188.926C83.5052 190.657 85.0999 192.532 87.9994 193.541C91.9137 194.839 95.5381 193.686 97.4227 192.532C97.8576 192.82 98.1476 192.964 98.4376 193.109C96.4079 194.262 92.3486 195.993 87.5645 194.407C84.955 193.541 83.2153 191.811 82.2004 190.08Z" fill="#B44A1E"/>
<path d="M89.4491 209.405C89.5941 209.117 89.884 208.973 90.174 208.973C90.6089 208.973 90.7538 209.405 90.7538 209.694L90.3189 212.434C90.3189 212.867 89.884 213.011 89.5941 213.011C89.1591 213.011 89.0142 212.578 89.0142 212.29L89.4491 209.55C89.4491 209.405 89.4491 209.405 89.4491 209.405Z" fill="white"/>
<path d="M92.4935 207.675C92.6385 207.386 92.9284 207.242 93.2184 207.242C93.6533 207.242 93.7983 207.675 93.7983 207.963L93.3634 210.703C93.3634 211.136 92.9284 211.28 92.6385 211.28C92.2036 211.28 92.0586 210.848 92.0586 210.559L92.4935 207.819C92.4935 207.819 92.4935 207.819 92.4935 207.675Z" fill="white"/>
<path d="M87.1295 211.28C87.2745 210.992 87.5644 210.848 87.8544 210.848C88.2893 210.848 88.4343 211.28 88.4343 211.569L87.9994 214.309C87.9994 214.741 87.5644 214.886 87.2745 214.886C86.8396 214.886 86.6946 214.453 86.6946 214.165L87.1295 211.424C86.9845 211.28 86.9845 211.28 87.1295 211.28Z" fill="white"/>
<path d="M84.6649 213.155C84.8099 212.867 85.0998 212.722 85.3898 212.722C85.8247 212.722 85.9697 213.155 85.9697 213.444L85.5348 216.184C85.5348 216.616 85.0998 216.761 84.8099 216.761C84.375 216.761 84.23 216.328 84.23 216.039L84.6649 213.299C84.6649 213.155 84.6649 213.155 84.6649 213.155Z" fill="white"/>
<path d="M82.3453 215.174C82.4903 214.886 82.7802 214.741 83.0702 214.741C83.5051 214.741 83.6501 215.174 83.6501 215.463L83.2152 218.203C83.2152 218.635 82.7802 218.78 82.4903 218.78C82.0554 218.78 81.9104 218.347 81.9104 218.058L82.3453 215.318C82.3453 215.318 82.3453 215.318 82.3453 215.174Z" fill="white"/>
<path d="M80.3157 221.231C79.8808 221.231 79.7358 220.799 79.7358 220.51L80.1708 217.77V217.626C80.3157 217.337 80.6057 217.193 80.8956 217.193C81.3306 217.193 81.4755 217.626 81.4755 217.914L81.0406 220.654C81.0406 221.087 80.7507 221.375 80.3157 221.231Z" fill="white"/>
<path d="M163.096 152.006C163.096 152.006 176.434 143.642 184.842 148.834C200.209 158.352 176.724 180.273 148.744 192.099C120.908 203.925 111.485 203.204 111.485 203.204C111.485 203.204 105.106 201.906 106.701 191.811C106.701 191.811 122.793 184.456 130.912 177.389C139.03 170.322 144.394 161.957 163.096 152.006Z" fill="#1E342D"/>
<path d="M137.871 196.57C136.276 197.003 134.826 197.435 133.231 198.012C126.997 199.743 119.894 201.618 113.515 203.06V203.925C119.314 202.627 126.128 200.896 133.521 198.877C134.971 198.445 136.421 198.012 137.871 197.579V196.57Z" fill="#3F5651"/>
<path d="M108.006 194.551C113.95 192.676 125.693 186.33 139.61 177.533C150.048 170.899 161.936 162.534 163.676 159.794C164.546 158.352 164.691 157.198 164.256 156.333C163.386 155.035 161.211 155.035 160.341 155.179C160.052 155.179 159.907 155.468 159.907 155.612C159.907 155.9 160.196 156.044 160.341 156.044C161.356 156.044 162.951 156.044 163.531 156.766C163.966 157.487 163.531 158.496 162.951 159.362C161.646 161.525 151.643 168.88 139.175 176.812C128.447 183.59 114.53 191.666 107.716 193.83L108.006 194.551Z" fill="#3F5651"/>
<path d="M108.876 190.368C109.89 195.56 111.63 200.32 114.82 203.781C114.82 203.781 112.355 205.8 110.035 204.646C108.151 203.781 104.236 195.849 105.251 191.378C106.556 190.224 107.861 189.936 108.876 190.368Z" fill="#3F5651"/>
<path d="M56.3949 98.7897C56.3949 98.7897 54.9451 100.376 53.6404 99.5108C53.2054 99.2224 52.7705 98.7897 52.4806 97.9244L50.4509 77.878L54.0753 77.7338L56.3949 98.7897Z" fill="#E79C4D"/>
<path d="M53.6404 99.5108C53.2054 99.2224 52.7705 98.7897 52.4806 97.9244L50.4509 77.8781H51.3208L53.6404 99.5108Z" fill="#D47F25"/>
<path d="M54.0754 98.3571C54.0754 98.3571 52.6256 99.6551 51.3208 99.0782C50.8859 98.934 50.451 98.6456 50.161 97.9245L47.5515 83.6468L51.1759 83.3584L54.0754 98.3571Z" fill="#E79C4D"/>
<path d="M51.3208 99.0782C50.8859 98.934 50.451 98.6456 50.161 97.9245L47.5515 83.6468L48.4214 83.5026L51.3208 99.0782Z" fill="#D47F25"/>
<path d="M50.1613 99.0782C50.1613 99.0782 48.8565 100.809 47.5517 100.088C47.1168 99.7993 46.6819 99.3666 46.247 98.5013L42.7676 78.7434L46.3919 78.3107L50.1613 99.0782Z" fill="#E79C4D"/>
<path d="M47.4067 100.088C46.9718 99.7993 46.5369 99.3667 46.1019 98.5013L42.6226 78.7434L43.4924 78.5992L47.4067 100.088Z" fill="#D47F25"/>
<path d="M49.5812 111.481C49.5812 111.481 48.4214 113.644 46.9716 112.779C46.5367 112.49 45.9568 111.914 45.5219 110.904L39.7229 86.0985L43.2023 85.5216L49.5812 111.481Z" fill="#E79C4D"/>
<path d="M46.9716 112.779C46.5367 112.49 45.9568 111.914 45.5219 110.904L39.7229 86.0984L40.5927 85.9542L46.9716 112.779Z" fill="#D47F25"/>
<path d="M27.98 103.549C27.98 103.549 27.1102 105.28 25.8054 105.28C25.3705 105.28 24.7906 105.135 24.3557 104.703L16.3821 92.2999L19.5715 90.7135L27.98 103.549Z" fill="#E79C4D"/>
<path d="M25.8054 105.28C25.3705 105.28 24.7906 105.135 24.3557 104.703L16.3821 92.2999L17.107 91.8672L25.8054 105.28Z" fill="#D47F25"/>
<path d="M35.2286 102.684C35.2286 102.684 34.0688 104.126 32.764 103.837C32.3291 103.693 31.8942 103.549 31.4593 102.972L26.0952 89.4155L29.5746 88.406L35.2286 102.684Z" fill="#E79C4D"/>
<path d="M32.764 103.982C32.3291 103.837 31.8942 103.693 31.4593 103.116L26.0952 89.4155L26.9651 89.1271L32.764 103.982Z" fill="#D47F25"/>
<path d="M30.7345 103.837C30.7345 103.837 29.7197 105.712 28.2699 105.28C27.835 105.135 27.2551 104.703 26.6752 103.982L19.4265 85.2332L22.9059 84.2236L30.7345 103.837Z" fill="#E79C4D"/>
<path d="M28.2699 105.28C27.835 105.135 27.2551 104.703 26.6752 103.982L19.4265 85.2331L20.1514 84.9447L28.2699 105.28Z" fill="#D47F25"/>
<path d="M45.6669 114.077C45.6669 114.077 44.5071 116.529 43.0574 115.375C42.6224 115.086 42.1875 114.365 41.6076 113.067L35.9536 84.0794L39.433 83.5026L45.6669 114.077Z" fill="#E79C4D"/>
<path d="M43.2024 115.375C42.7674 115.086 42.3325 114.365 41.7526 113.067L36.0986 84.0795L36.9685 83.9352L43.2024 115.375Z" fill="#D47F25"/>
<path d="M43.2023 114.365C43.2023 114.365 42.3325 116.817 40.7378 115.952C40.3028 115.663 39.7229 115.086 39.143 113.933L30.4446 86.5311L33.924 85.6658L43.2023 114.365Z" fill="#E79C4D"/>
<path d="M40.8827 115.952C40.4478 115.663 39.8679 115.086 39.288 113.933L30.4446 86.5312L31.3144 86.2427L40.8827 115.952Z" fill="#D47F25"/>
<path d="M55.9601 93.7421L56.395 95.6169L62.6289 128.066L38.2733 135.854L24.3557 105.424L23.6309 103.982C27.4002 103.116 31.1695 102.251 34.9389 101.241C35.0838 101.674 35.3738 102.395 35.8087 103.116C36.9685 105.135 38.9981 107.587 42.4775 106.433C45.9569 105.28 46.2468 102.107 45.9569 99.7992C45.8119 98.9339 45.6669 98.2128 45.522 97.7802C49.1463 96.6264 52.4807 95.3285 55.9601 93.7421Z" fill="#DD6635"/>
<path d="M23.6309 103.982C23.6309 103.982 39.1431 116.673 38.1283 135.854L23.6309 103.982Z" fill="#B44A1E"/>
<path d="M55.9602 93.7421C55.9602 93.7421 50.5962 113.067 62.629 128.066L55.9602 93.7421Z" fill="#B44A1E"/>
<path d="M34.9389 101.241C35.0838 101.674 35.3738 102.395 35.8087 103.116L24.3557 105.424L23.6309 103.982C27.4002 103.261 31.1695 102.251 34.9389 101.241Z" fill="white"/>
<path d="M55.9599 93.7421L56.3948 95.6169L46.1017 99.7992C45.9567 98.9339 45.8117 98.2129 45.6667 97.7802C49.1461 96.6264 52.4805 95.3285 55.9599 93.7421Z" fill="white"/>
<path d="M179.359 55.7567C181.002 48.0425 176.048 40.4637 168.293 38.8291C160.539 37.1945 152.92 42.123 151.277 49.8372C149.634 57.5514 154.588 65.1301 162.343 66.7647C170.097 68.3994 177.716 63.4709 179.359 55.7567Z" fill="#487F76"/>
<path d="M161.356 59.1296H161.211C160.921 59.1296 160.631 58.8412 160.486 58.5527L158.312 54.5146C158.022 53.9377 158.312 53.3608 158.747 53.0724C159.327 52.784 159.907 53.0724 160.196 53.5051L161.646 56.3894L171.649 47.5921C172.084 47.1595 172.809 47.3037 173.099 47.7363C173.534 48.169 173.389 48.8901 172.954 49.1785L161.936 58.8412C161.791 58.9854 161.501 59.1296 161.356 59.1296Z" fill="white"/>
<path d="M153.238 58.2643L149.468 68.3596C149.178 69.0807 149.903 69.6575 150.483 69.3691L160.486 65.6194L153.238 58.2643Z" fill="#487F76"/>
<path d="M134.853 17.6819C136.79 10.0355 132.13 2.27455 124.443 0.347377C116.757 -1.5798 108.955 3.05655 107.018 10.7029C105.08 18.3493 109.741 26.1103 117.428 28.0374C125.114 29.9646 132.916 25.3283 134.853 17.6819Z" fill="#487F76"/>
<path d="M118.444 11.6817C118.444 10.3838 119.604 9.23002 120.909 9.23002C122.213 9.23002 123.373 10.3838 123.373 11.6817C123.373 12.9797 122.213 14.1335 120.909 14.1335C119.604 14.1335 118.444 13.1239 118.444 11.6817ZM115.11 12.2586C115.11 13.4124 115.4 14.4219 115.834 15.2872C116.124 15.7199 116.414 16.1525 116.559 16.5852L120.764 24.0845L123.518 19.1811C124.243 17.8831 124.968 16.5852 125.838 15.2872C126.418 14.4219 126.708 13.4124 126.708 12.4028C126.708 9.0858 123.953 6.48987 120.474 6.63409C117.574 6.92252 115.255 9.37424 115.11 12.2586Z" fill="white"/>
<path d="M114.965 24.8056L119.169 34.6125C119.459 35.3336 120.329 35.3336 120.764 34.6125L125.403 25.094L114.965 24.8056Z" fill="#487F76"/>
<path d="M76.0977 53.5222C81.7026 47.9465 81.7026 38.9064 76.0977 33.3307C70.4928 27.755 61.4054 27.755 55.8005 33.3307C50.1955 38.9064 50.1955 47.9465 55.8005 53.5222C61.4054 59.0979 70.4928 59.0979 76.0977 53.5222Z" fill="#E79C4D"/>
<path d="M66.9781 50.3322V52.4955H64.2236V50.4765C62.3389 50.3322 60.4542 49.7554 59.2944 49.0343L60.7442 45.7172C62.0489 46.4383 63.6437 47.0152 65.2384 47.0152C66.5431 47.0152 66.9781 46.7268 66.9781 46.2941C66.9781 44.5635 59.4394 45.8615 59.5844 40.958C59.5844 38.7948 61.1791 36.9199 64.3685 36.6315V34.4682H67.123V36.4873C68.5728 36.6315 69.8775 37.0641 71.0373 37.641L69.5876 40.958C68.2828 40.2369 66.9781 39.9485 65.8183 39.9485C64.5135 39.9485 64.0786 40.3812 64.0786 40.8138C64.0786 42.4002 71.6172 41.1023 71.4723 46.1499C71.4723 48.0247 70.0225 49.8996 66.9781 50.3322Z" fill="white"/>
<path d="M77.996 49.0343L81.7654 59.1296C82.0553 59.8507 81.3304 60.4276 80.7505 60.1391L70.7473 56.3894L77.996 49.0343Z" fill="#E79C4D"/>
<path d="M195.28 98.6455L197.165 86.8195L193.686 85.3774L194.41 83.791L199.195 85.6658L197.02 98.9339L195.28 98.6455Z" fill="white"/>
<path d="M206.878 106.866L205.718 109.606L203.689 114.942L201.949 119.413L199.919 124.749L198.18 129.22L196.005 134.412L194.265 139.027L192.381 144.074L173.534 138.306L174.549 133.979L175.564 129.797L176.579 125.182L177.448 120.999L178.463 116.384L179.478 112.202L180.493 107.587L181.363 103.405L182.378 99.5107L206.878 106.866Z" fill="#DD6635"/>
<path d="M190.786 102.107L180.493 107.587L181.363 103.405L186.582 100.809L190.786 102.107Z" fill="white"/>
<path d="M200.21 104.847L178.463 116.384L179.478 112.202L195.86 103.549L200.21 104.847Z" fill="white"/>
<path d="M206.878 106.866L205.718 109.606L176.579 125.182L177.448 120.999L205.284 106.433L206.878 106.866Z" fill="white"/>
<path d="M203.689 114.942L201.949 119.413L174.549 133.979L175.564 129.797L203.689 114.942Z" fill="white"/>
<path d="M199.92 124.749L198.18 129.22L178.318 139.748L173.824 138.45L199.92 124.749Z" fill="white"/>
<path d="M196.005 134.412L194.266 139.027L187.597 142.488L183.103 141.19L196.005 134.412Z" fill="white"/>
<path d="M207.458 107.01L181.653 99.2223C181.218 99.0781 181.073 98.6454 181.073 98.2128V98.0686C181.218 97.6359 181.653 97.4917 182.088 97.4917L207.893 105.28C208.328 105.424 208.473 105.856 208.473 106.289V106.433C208.328 107.01 207.893 107.154 207.458 107.01Z" fill="#B44A1E"/>
<path d="M207.313 105.279L182.812 97.9244C182.957 97.3475 183.392 96.7706 183.682 96.4822C183.972 96.338 184.117 96.0495 184.407 95.9053C185.132 95.4726 186.147 95.3284 187.017 95.6169L204.994 101.097C206.153 101.53 207.023 102.395 207.313 103.549C207.458 104.126 207.458 104.703 207.313 105.279Z" fill="white"/>
<g opacity="0.2">
<path opacity="0.2" d="M191.511 139.171C191.076 139.027 190.786 138.594 190.931 138.161L202.384 108.741C202.529 108.308 202.964 108.164 203.399 108.308C203.834 108.452 203.979 108.885 203.834 109.318L192.381 138.738C192.381 139.171 191.946 139.315 191.511 139.171Z" fill="white"/>
</g>
<path d="M215.722 175.802C215.722 173.206 217.751 171.187 220.361 171.187C222.97 171.187 225 173.206 225 175.802C225 178.398 222.97 180.417 220.361 180.417C217.896 180.417 215.722 178.398 215.722 175.802ZM217.026 175.802C217.026 177.677 218.476 179.119 220.361 179.119C222.246 179.119 223.695 177.677 223.695 175.802C223.695 173.928 222.246 172.485 220.361 172.485C218.621 172.485 217.026 173.928 217.026 175.802Z" fill="#DD6635"/>
<path d="M209.053 187.628C209.343 187.628 209.633 187.34 209.633 187.051V183.446C209.633 183.158 209.343 182.869 209.053 182.869C208.763 182.869 208.473 183.158 208.473 183.446V187.051C208.473 187.484 208.618 187.628 209.053 187.628Z" fill="#487F76"/>
<path d="M210.213 188.926H213.837C214.127 188.926 214.417 188.638 214.417 188.349C214.417 188.061 214.127 187.773 213.837 187.773H210.213C209.923 187.773 209.633 188.061 209.633 188.349C209.633 188.638 209.923 188.926 210.213 188.926Z" fill="#487F76"/>
<path d="M204.269 188.926H207.893C208.183 188.926 208.473 188.638 208.473 188.349C208.473 188.061 208.183 187.773 207.893 187.773H204.269C203.979 187.773 203.689 188.061 203.689 188.349C203.689 188.638 203.834 188.926 204.269 188.926Z" fill="#487F76"/>
<path d="M209.053 193.397C209.343 193.397 209.633 193.109 209.633 192.82V189.215C209.633 188.926 209.343 188.638 209.053 188.638C208.763 188.638 208.473 188.926 208.473 189.215V192.82C208.473 193.109 208.618 193.397 209.053 193.397Z" fill="#487F76"/>
<path d="M23.9207 33.6029C23.9207 31.007 25.9503 28.9879 28.5598 28.9879C31.1694 28.9879 33.199 31.007 33.199 33.6029C33.199 36.1988 31.1694 38.2179 28.5598 38.2179C26.0953 38.2179 23.9207 36.1988 23.9207 33.6029ZM25.2254 33.6029C25.2254 35.4777 26.6752 36.9199 28.5598 36.9199C30.4445 36.9199 31.8942 35.4777 31.8942 33.6029C31.8942 31.7281 30.4445 30.2859 28.5598 30.2859C26.8201 30.2859 25.2254 31.7281 25.2254 33.6029Z" fill="#487F76"/>
<path d="M14.3524 42.4003C14.6423 42.4003 14.9323 42.1118 14.9323 41.8234V38.2179C14.9323 37.9295 14.6423 37.6411 14.3524 37.6411C14.0624 37.6411 13.7725 37.9295 13.7725 38.2179V41.8234C13.7725 42.1118 14.0624 42.4003 14.3524 42.4003Z" fill="#DD6635"/>
<path d="M15.5123 43.554H19.1366C19.4266 43.554 19.7165 43.2656 19.7165 42.9771C19.7165 42.6887 19.4266 42.4003 19.1366 42.4003H15.5123C15.2223 42.4003 14.9324 42.6887 14.9324 42.9771C14.9324 43.2656 15.2223 43.554 15.5123 43.554Z" fill="#DD6635"/>
<path d="M9.56818 43.554H13.1925C13.4825 43.554 13.7724 43.2656 13.7724 42.9771C13.7724 42.6887 13.4825 42.4003 13.1925 42.4003H9.56818C9.27823 42.4003 8.98828 42.6887 8.98828 42.9771C8.98828 43.2656 9.27823 43.554 9.56818 43.554Z" fill="#DD6635"/>
<path d="M14.3524 48.169C14.6423 48.169 14.9323 47.8806 14.9323 47.5921V43.9867C14.9323 43.6982 14.6423 43.4098 14.3524 43.4098C14.0624 43.4098 13.7725 43.6982 13.7725 43.9867V47.5921C13.7725 47.8806 14.0624 48.169 14.3524 48.169Z" fill="#DD6635"/>
</g>
<defs>
<clipPath id="clip0_2326:1288">
<rect width="225" height="227" fill="white"/>
</clipPath>
</defs>
</svg>
