<svg height="512" viewBox="0 0 60 61" width="512" xmlns="http://www.w3.org/2000/svg"><g id="019---Veggie-Burger"><path id="Shape" d="m9 15c.54 0 .57-.15 2.71-2.29.3921222-.3921222.3921222-1.0278778 0-1.42s-1.0278778-.3921222-1.42 0l-2 2c-.28845995.2860905-.37516186.7182668-.21937095 1.0934815s.52310588.6188811.92937095.6165185z"/><path id="Shape" d="m23 9c.54 0 .57-.15 2.71-2.29.3921222-.39212217.3921222-1.02787783 0-1.42s-1.0278778-.39212217-1.42 0l-2 2c-.2884599.28609046-.3751619.71826679-.219371 1.09348151.155791.37521471.5231059.61888111.929371.61651849z"/><path id="Shape" d="m32 9c.54 0 .57-.15 2.71-2.29.2536586-.25365856.3527236-.62337399.2598781-.96987806-.0928455-.34650406-.363496-.61715454-.71-.71000002-.3465041-.09284548-.7162195.00621949-.9698781.25987808l-2 2c-.2884599.28609046-.3751619.71826679-.219371 1.09348151.155791.37521471.5231059.61888111.929371.61651849z"/><path id="Shape" d="m16 10c.5522847 0 1-.44771525 1-1v-2c0-.55228475-.4477153-1-1-1s-1 .44771525-1 1v2c0 .55228475.4477153 1 1 1z"/><path id="Shape" d="m16.29 12.29c-.1893127.1877666-.2957983.4433625-.2957983.71s.1064856.5222334.2957983.71l2 2c.3921222.3921222 1.0278778.3921222 1.42 0s.3921222-1.0278778 0-1.42l-2-2c-.1877666-.1893127-.4433625-.2957983-.71-.2957983s-.5222334.1064856-.71.2957983z"/><path id="Shape" d="m41.29 15.71c.3921222.3921221 1.0278778.3921221 1.42 0 .3921221-.3921222.3921221-1.0278778 0-1.42l-2-2c-.3921222-.3921221-1.0278778-.3921221-1.42 0-.3921221.3921222-.3921221 1.0278778 0 1.42z"/><path id="Shape" d="m25.29 13.29c-.1893127.1877666-.2957983.4433625-.2957983.71s.1064856.5222334.2957983.71l2 2c.3921222.3921222 1.0278778.3921222 1.42 0s.3921222-1.0278778 0-1.42l-2-2c-.1877666-.1893127-.4433625-.2957983-.71-.2957983s-.5222334.1064856-.71.2957983z"/><path id="Shape" d="m32.29 11.29c-.1893127.1877666-.2957983.4433625-.2957983.71s.1064856.5222334.2957983.71l2 2c.3921222.3921221 1.0278778.3921221 1.42 0 .3921221-.3921222.3921221-1.0278778 0-1.42l-2-2c-.1877666-.1893127-.4433625-.2957983-.71-.2957983s-.5222334.1064856-.71.2957983z"/><path id="Shape" d="m51.94 31.72c.2088529-1.4352386-.2157917-2.8904436-1.1637725-3.9881056s-2.3258744-1.7296065-3.7762275-1.7318944v-5h1c1.1045695 0 2-.8954305 2-2 0-10.49341025-8.5065898-19-19-19h-10c-10.4934102 0-19 8.50658975-19 19 0 1.1045695.8954305 2 2 2h1v5c-2.36538641.0027833-4.40519711 1.6627178-4.88859321 3.9781851-.48339609 2.3154673.72189612 4.6528764 2.88859321 5.6018149v2.42c0 6.0751322 4.92486775 11 11 11h16.56c1.8152606 6.616289 7.8881321 11.1576797 14.7477081 11.0285727 6.859576-.1291071 12.757256-4.8958007 14.322263-11.5757112 1.5650071-6.6799105-1.6016006-13.5702366-7.6899711-16.7328615zm-30.94-29.72h10c9.3888407 0 17 7.61115925 17 17h-44c0-9.38884075 7.6111593-17 17-17zm-14 19h38v5h-38zm-5 10c0-1.6568542 1.34314575-3 3-3h42c1.6073858-.0015098 2.9303473 1.2641233 3 2.87-5.9597635-2.1206519-12.6091149-.2580323-16.6 4.65-.2355283-.1519171-.450614-.3333957-.64-.54-.189833-.2152504-.4629994-.3385622-.75-.3385622s-.560167.1233118-.75.3385622c-.5694991.6457513-1.3889983 1.0156865-2.25 1.0156865s-1.6805009-.3699352-2.25-1.0156865c-.189833-.2152504-.4629994-.3385622-.75-.3385622s-.560167.1233118-.75.3385622c-.5694991.6457513-1.3889983 1.0156865-2.25 1.0156865s-1.6805009-.3699352-2.25-1.0156865c-.189833-.2152504-.4629994-.3385622-.75-.3385622s-.560167.1233118-.75.3385622c-.5694991.6457513-1.3889983 1.0156865-2.25 1.0156865s-1.6805009-.3699352-2.25-1.0156865c-.189833-.2152504-.4629994-.3385622-.75-.3385622s-.560167.1233118-.75.3385622c-.7062439.7927502-1.7789012 1.1531676-2.8205454.9477151-1.04164415-.2054525-1.89711487-.9461713-2.2494546-1.9477151-.10155433-.2950356-.33500356-.5257589-.63121159-.623841-.29620802-.0980821-.62122182-.0522804-.87878841.123841-.91866538.6209528-2.10493246.6845358-3.08470902.165338-.97977657-.5191978-1.59326755-1.5364988-1.59529098-2.645338zm12 16c-4.97056275 0-9-4.0294373-9-9v-2c.60750752-.0014624 1.21002201-.1097796 1.78-.32.74698839 1.1761908 1.95088697 1.9873357 3.3215157 2.2379216 1.3706288.2505859 2.7836522-.082119 3.8984843-.9179216 1.7914961 1.2915227 4.2085039 1.2915227 6 0 1.7914961 1.2915227 4.2085039 1.2915227 6 0 1.7777778 1.3333333 4.2222222 1.3333333 6 0l.24.15c-1.8296988 2.9368542-2.5694384 6.4231868-2.09 9.85zm31 11c-7.1797017 0-13-5.8202983-13-13s5.8202983-13 13-13 13 5.8202983 13 13c0 3.4478144-1.3696389 6.7544152-3.8076118 9.1923882-2.437973 2.4379729-5.7445738 3.8076118-9.1923882 3.8076118z"/><path id="Shape" d="m52.44 39c-.21 0-4.82 1.22-7.38 3.23-2.58-1.95-6.93-3.08-7.52-3.23-.2730114-.0679073-.5619989-.0176733-.7960797.1383805-.2340807.1560539-.3915996.4034908-.4339203.6816195-.11.72-1 7.12.86 9.93s5.63 4.25 8.32 2.45c1.1276632-.79653 1.8992461-2.0023525 2.15-3.36l2.08-2.14c.3865993-.397645.377645-1.0334007-.02-1.42s-1.0334007-.377645-1.42.02l-.75.78c-.214694-.851203-.5731805-1.6594887-1.06-2.39 1.659334-1.0698886 3.4693567-1.8855786 5.37-2.42.26 2.44.29 5.84-.62 7.21-.5440318.831761-1.3142112 1.4909235-2.22 1.9-.4274182.1947244-.6617191.6606653-.5631423 1.1198892.0985769.4592238.5034623.7879572.9731423.7901108 1.4421226-.4472616 2.6675657-1.4126544 3.44-2.71 1.82-2.77.89-9 .78-9.74-.0385631-.2730727-.1881869-.5180973-.4134921-.6771362-.2253051-.1590389-.5062878-.2179719-.7765079-.1628638zm-13.61 9.67c-1-1.53-.9-5.2-.68-7.4 2.43.73 5.69 2.09 6.64 3.5 1.049561 1.3857066 1.2385736 3.2411154.49 4.81l-2.49-3.19c-.2087685-.3078935-.57119-.4744549-.9408003-.4323723-.3696102.0420825-.6853128.2858528-.8195237.6327968-.134211.3469439-.0647453.7397118.180324 1.0195755l2.52 3.24c-1.6.53-3.66-.34-4.9-2.18z"/></g></svg>