<svg id="carrot" enable-background="new 0 0 300 300" height="512" viewBox="0 0 300 300" width="512" xmlns="http://www.w3.org/2000/svg"><g><path d="m228.177 235.87c2.211 0 4-1.791 4-4v-8c0-2.209-1.789-4-4-4s-4 1.791-4 4v8c0 2.209 1.789 4 4 4z"/><path d="m228.177 243.87c-2.211 0-4 1.791-4 4v8c0 2.209 1.789 4 4 4s4-1.791 4-4v-8c0-2.209-1.789-4-4-4z"/><path d="m220.177 235.87h-8c-2.211 0-4 1.791-4 4s1.789 4 4 4h8c2.211 0 4-1.791 4-4s-1.789-4-4-4z"/><path d="m244.177 235.87h-8c-2.211 0-4 1.791-4 4s1.789 4 4 4h8c2.211 0 4-1.791 4-4s-1.789-4-4-4z"/><path d="m120.173 63.87c2.209 0 4-1.791 4-4v-8c0-2.209-1.791-4-4-4s-4 1.791-4 4v8c0 2.209 1.791 4 4 4z"/><path d="m120.173 71.87c-2.209 0-4 1.791-4 4v8c0 2.209 1.791 4 4 4s4-1.791 4-4v-8c0-2.209-1.791-4-4-4z"/><path d="m104.173 71.87h8c2.209 0 4-1.791 4-4s-1.791-4-4-4h-8c-2.209 0-4 1.791-4 4s1.791 4 4 4z"/><path d="m128.173 71.87h8c2.211 0 4-1.791 4-4s-1.789-4-4-4h-8c-2.209 0-4 1.791-4 4s1.791 4 4 4z"/><path d="m66.173 127.87c7.719 0 14-6.281 14-14s-6.281-14-14-14-14 6.281-14 14 6.281 14 14 14zm0-20c3.309 0 6 2.691 6 6s-2.691 6-6 6-6-2.691-6-6 2.692-6 6-6z"/><path d="m41.083 48.682c2.362 0 4.277-1.915 4.277-4.276s-1.915-4.276-4.277-4.276-4.276 1.915-4.276 4.276 1.914 4.276 4.276 4.276z"/><path d="m249.083 200.13c-2.362 0-4.276 1.915-4.276 4.276s1.915 4.276 4.276 4.276 4.277-1.915 4.277-4.276-1.916-4.276-4.277-4.276z"/><path d="m256.638 45.526c-3.977-3.152-8.934-4.559-13.984-3.986-4.754.551-9.035 2.812-12.145 6.396-3.027-1.852-6.57-2.631-10.148-2.223-4.246.49-8.047 2.605-10.699 5.955-5.457 6.881-4.328 16.902 2.496 22.402l-1.311 2.894c-4.245-1.762-8.672-3.229-13.303-4.349-14.293-3.461-29.035 2.709-36.668 15.352-12.526 20.746-27.274 50.987-40.889 83.775-8.311-11.991-22.152-19.872-37.814-19.872-25.365 0-46 20.635-46 46s20.635 46 46 46c4.579 0 8.995-.694 13.172-1.945-.235 1.048-.472 2.102-.641 3.011-.855 4.619.916 9.303 4.625 12.223 2.262 1.781 4.994 2.699 7.75 2.699 1.717 0 3.441-.357 5.068-1.082 52.768-23.586 112.76-96.158 129.893-117.84 10.055-12.736 9.766-30.5-.688-42.236-1.357-1.523-2.764-2.975-4.203-4.381l.281-.216c2.836 2.215 6.258 3.387 9.809 3.387.621 0 1.246-.035 1.871-.107 4.246-.49 8.047-2.605 10.699-5.955 4.629-5.838 4.516-13.941.223-19.605 6.153-8.197 4.684-19.894-3.394-26.297zm-212.465 152.344c0-20.953 17.047-38 38-38s38 17.047 38 38-17.047 38-38 38-38-17.047-38-38zm191.59-61.892c-7.551 9.555-23.567 29.16-43.53 49.939l-13.271-12.914c-1.586-1.541-4.113-1.504-5.656.078-1.539 1.582-1.504 4.115.078 5.656l13.267 12.911c-12.508 12.671-26.308 25.458-40.421 36.427-.001-.001-.001-.003-.003-.004l-7.266-7.068c-1.586-1.541-4.113-1.504-5.656.078-1.541 1.584-1.506 4.115.078 5.656l6.385 6.211c-10.344 7.559-20.767 14.001-30.885 18.523-2.215.988-3.959-.09-4.605-.598-1.387-1.092-2.025-2.768-1.707-4.479.416-2.248 1.07-5.021 1.943-8.246.01-.036-.002-.071.007-.107 14.091-7.871 23.651-22.918 23.651-40.172 0-6.005-1.19-11.728-3.292-16.991 8.846-21.736 18.261-42.522 27.279-60.352l17.954 10.772c.645.387 1.355.57 2.055.57 1.359 0 2.684-.691 3.434-1.941 1.137-1.895.523-4.352-1.371-5.488l-18.398-11.039c4.109-7.848 8.108-15.03 11.894-21.299 5.816-9.637 17.023-14.357 27.934-11.709 15.797 3.82 29.156 11.77 39.715 23.627 7.871 8.836 8.032 22.275.387 31.959zm16.352-60.825c.062.047.164.113.266.178 3.336 2.766 3.863 7.717 1.164 11.127-1.328 1.674-3.23 2.73-5.352 2.977-2.125.248-4.215-.348-5.891-1.678l-2.352-1.863c-1.438-1.141-3.469-1.154-4.922-.037l-3.993 3.07c-4.048-3.253-8.379-6.085-12.963-8.521l2.663-5.879c.758-1.672.277-3.645-1.16-4.785l-2.352-1.863c-3.453-2.74-4.035-7.783-1.297-11.24 1.328-1.674 3.23-2.73 5.352-2.977 2.102-.232 4.207.35 5.891 1.682.422.334.801.705 1.133 1.102.875 1.037 2.223 1.568 3.551 1.391 1.344-.166 2.512-1.002 3.105-2.219.379-.783.789-1.445 1.262-2.035 1.824-2.303 4.434-3.756 7.352-4.094 2.914-.338 5.793.482 8.098 2.309 4.754 3.768 5.555 10.699 1.785 15.455-.461.582-.984 1.123-1.559 1.604-.945.791-1.469 1.973-1.426 3.203s.648 2.371 1.645 3.093z"/><path d="m82.173 166.948c-17.051 0-30.922 13.871-30.922 30.922s13.871 30.922 30.922 30.922 30.922-13.871 30.922-30.922-13.871-30.922-30.922-30.922zm0 53.844c-12.639 0-22.922-10.283-22.922-22.922s10.283-22.922 22.922-22.922 22.922 10.283 22.922 22.922-10.283 22.922-22.922 22.922z"/></g></svg>