<svg height="512" viewBox="0 0 60 60" width="512" xmlns="http://www.w3.org/2000/svg"><g id="014---Healthy-Living" transform="translate(-1)"><path id="Shape" d="m59.07 23.61c-.1183422-.2735849-.3525644-.4801132-.6388107-.5632794-.2862464-.0831661-.5946713-.0342988-.8411893.1332794-3.2275257 2.4011682-6.9754937 4.0079296-10.94 4.69-5.37.87-10.15 1.91-14.29 5.83-1.0097006.9692683-1.8721666 2.0810408-2.56 3.3-.9097787-1.779355-2.1095218-3.3947837-3.55-4.78-3.63-3.37-7.83-4.27-12.54-5-3.4446301-.5736504-6.70784223-1.9433092-9.53-4-.246518-.1675782-.55494293-.2164455-.84118928-.1332794-.28624634.0831662-.52046848.2896945-.63881072.5632794-4.73 11 .57 26.26 13.07 30.15 4.0657802 1.1686533 8.3688338 1.2376678 12.47.2.4571833-.1128155.7737136-.5293028.76-1 0-6.38.6-10.4 1.67-13.2l.06-.14c.6432032-1.712329 1.6693421-3.2549579 3-4.51 3.71-3.53 8.18-4.49 13.22-5.31 3.8363682-.6460262 7.4869606-2.1164985 10.7-4.31 4.72 13.36-2.9 33.71-24.65 32.47 3.4671947-6.8539722 8.6310791-12.7063745 15-17 .3140985-.1949429.4950264-.5472678.4704546-.9161266s-.2506345-.6940717-.5878153-.8456291c-.3371809-.1515574-.7304686-.1047325-1.0226393.1217557-12.26 8.4-16.11 18.7-16.27 19.13-.1067039.2904143-.0729708.6138651.0913606.8760128.1643314.2621476.440752.433466.7486394.4639872 4.305997.4560993 8.6597883.0203798 12.79-1.28 14.14-4.5 20.24-22.13 14.85-34.94zm-32.07 26.48c-1.53-2.49-5.49-7.73-13.42-13.09-.4583963-.3092794-1.0807205-.1883963-1.39.27-.3092794.4583963-.1883963 1.0807205.27 1.39 9.76 6.64 13.28 13.13 13.61 13.75-17.56 2.91-26.36-14.41-21.97-26.9 2.80128405 1.8626577 5.9689764 3.1038203 9.29 3.64 4.54.72 8.28 1.52 11.49 4.51 1.6649953 1.6138337 2.9672112 3.5637486 3.82 5.72-1.1254136 3.4586137-1.6991084 7.0728907-1.7 10.71z"/><path id="Shape" d="m30.29 30.7c.1877666.1893127.4433625.2957983.71.2957983s.5222334-.1064856.71-.2957983l13.38-13.53c6.2-6.26 1.91-17.17-7.09-17.17-2.6418893.01765433-5.1652232 1.09908315-7 3-1.8557059-1.88849912-4.3923457-2.95224747-7.04-2.95224747s-5.1842941 1.06374835-7.04 2.95224747c-3.8912687 3.94137276-3.8912687 10.2786272 0 14.22zm-11.95-26.34c1.4832352-1.50796209 3.5098318-2.35723622 5.625-2.35723622s4.1417648.84927413 5.625 2.35723622l.7.7c.1877666.18931265.4433625.29579832.71.29579832s.5222334-.10648567.71-.29579832l.71-.71c2.3016215-2.2403475 5.7199847-2.88692553 8.680846-1.64196836 2.9608614 1.24495716 4.8900614 4.14003194 4.899154 7.35196836.0083495 2.1334945-.8295391 4.1832648-2.33 5.7l-12.67 12.82-12.66-12.82c-3.1212479-3.1590665-3.1212479-8.24093347 0-11.4z"/><path id="Shape" d="m20 14.1c.3751995-.0027703.7172758-.2153382.8859174-.5505133.1686415-.3351751.1354666-.7365486-.0859174-1.0394867-1.194584-1.6303089-1.0337902-3.88565399.38-5.33.2518722-.25365857.3492866-.622421.2555479-.96737804-.0937386-.34495705-.3643891-.61370154-.71-.70500001-.3456109-.09129848-.7136757.00871947-.9655479.26237805-2.1036491 2.14943014-2.3407018 5.5062651-.56 7.93.1888544.2518058.4852427.4.8.4z"/><path id="Shape" d="m24 6c.2692071-.00025923.5375797.02993269.8.09.5522847.1159798 1.0940202-.23771525 1.21-.79s-.2377153-1.0940202-.79-1.21c-.4031239-.06670109-.8114522-.09682367-1.22-.09-.5522847 0-1 .44771525-1 1s.4477153 1 1 1z"/></g></svg>