<svg id="Capa_1" enable-background="new 0 0 508.845 508.845" height="512" viewBox="0 0 508.845 508.845" width="512" xmlns="http://www.w3.org/2000/svg"><g><path d="m421.152 4.665c-2.744-3.236-6.91-4.965-11.14-4.623l-3.002.239c-38.431 3.044-79.89 7.999-96.001 21.662-8.065 6.84-14.093 15.643-17.669 25.692h-183.121c-7.078 0-13.669 2.82-18.557 7.939s-7.399 11.834-7.071 18.921l19.87 409.88c.637 13.721 11.894 24.469 25.629 24.469h169.566c13.735 0 24.992-10.748 25.628-24.453l13.979-288.341c1.641.046 3.309.069 4.998.069 22.583 0 48.87-3.879 63.91-6.098l2.981-.439c4.2-.614 7.872-3.23 9.822-6.996s1.968-8.275.045-12.059l-1.362-2.689c-10.373-20.487-21.782-41.709-33.276-57.575 8.126-7.057 15.769-21.265 23.354-43.439 6.005-17.556 10.653-36.298 13.431-47.496l.726-2.92c1.027-4.118.003-8.508-2.74-11.743zm-98.465 223.527c-.522-1.242-1.366-2.336-2.473-3.146l-25.443-18.64c-.001-.001-.001-.001-.002-.002l-37.842-27.724-63.288-46.367c-1.643-1.203-3.704-1.688-5.71-1.34-2.006.347-3.785 1.494-4.929 3.179-12.539 18.476-17.363 40.79-13.584 62.831 3.79 22.1 15.841 41.571 33.934 54.826 4.197 3.075 8.62 5.723 13.207 7.963-2.345 3.229-3.63 7.091-3.63 11.159 0 5.092 1.983 9.879 5.583 13.479l22.819 22.819c3.6 3.6 8.387 5.583 13.479 5.583 5.093 0 9.88-1.983 13.48-5.583l22.818-22.819c3.601-3.6 5.584-8.387 5.584-13.479 0-4.255-1.402-8.286-3.958-11.601 11.146-5.577 21.023-13.562 28.937-23.585.27-.342.501-.708.705-1.086l-10.126 208.88h-145.445c-4.143 0-7.5 3.358-7.5 7.5s3.357 7.5 7.5 7.5h144.717l-1.219 25.145c-.264 5.699-4.939 10.163-10.645 10.163h-169.566c-5.705 0-10.381-4.464-10.646-10.179l-1.218-25.129h18.577c4.143 0 7.5-3.358 7.5-7.5s-3.357-7.5-7.5-7.5h-19.304l-15.376-317.183h122.685c4.143 0 7.5-3.358 7.5-7.5s-3.357-7.5-7.5-7.5h-123.412l-1.821-37.568c-.137-2.937.907-5.726 2.938-7.853 2.03-2.126 4.768-3.298 7.707-3.298h209.309c2.939 0 5.677 1.171 7.707 3.298s3.074 4.915 2.938 7.837l-1.822 37.584h-73.543c-4.143 0-7.5 3.358-7.5 7.5s3.357 7.5 7.5 7.5h72.816zm-44.002 38.05 1.815 1.815c.767.767 1.189 1.787 1.189 2.872s-.423 2.105-1.19 2.873l-22.819 22.819c-.767.767-1.787 1.189-2.872 1.189s-2.105-.423-2.872-1.19l-22.819-22.819c-.767-.767-1.189-1.787-1.189-2.872s.423-2.105 1.19-2.873l2.589-2.589c7.246 1.962 14.743 2.978 22.331 2.978 3.923 0 7.871-.268 11.817-.81 4.06-.557 8.04-1.399 11.921-2.499.263.39.564.762.909 1.106zm-14.869-13.467c-18.34 2.515-36.663-2.124-51.601-13.067s-24.886-27.017-28.015-45.261c-2.677-15.613-.127-31.39 7.188-45.188l13.52 9.905c-10.992 23.244-4.199 51.635 17.07 67.218 9.667 7.082 20.955 10.518 32.164 10.518 13.455 0 26.788-4.967 37.07-14.506l13.523 9.908c-10.952 11.132-25.225 18.319-40.919 20.473zm14.998-39.466c-13.646 10.89-33.364 11.673-47.971.971s-19.803-29.736-13.534-46.032zm127.709-38.206-.541.08c-15.636 2.307-43.82 6.461-65.992 5.883l.592-12.211c1.176 2.843 3.929 4.64 6.903 4.64.752 0 1.518-.114 2.272-.354 3.948-1.254 6.132-5.471 4.877-9.419l-2.677-8.426 16.301 8.441c1.103.571 2.281.841 3.443.841 2.713 0 5.332-1.477 6.666-4.053 1.904-3.678.467-8.204-3.211-10.109l-16.302-8.441 3.724-1.183c3.948-1.254 6.132-5.471 4.878-9.419-1.255-3.948-5.473-6.132-9.419-4.877l-15.643 4.97 1.699-35.052c4.253.799 8.328 2.185 12.164 4.172 16.988 8.797 40.984 56.189 50.018 74.031zm2.084-159.385c-4.754 19.171-17.286 69.7-31.653 82.866-4.649-5.059-9.27-8.975-13.799-11.321-5.763-2.984-11.906-4.976-18.329-5.954l.105-2.171 8.786-7.451c.525.166 1.074.281 1.646.328l16.991 1.397c.209.017.416.026.623.026 3.863 0 7.144-2.967 7.466-6.886.34-4.128-2.731-7.75-6.86-8.089l-3.894-.32 14.001-11.873c3.159-2.679 3.549-7.412.869-10.571-2.678-3.159-7.411-3.548-10.57-.869l-14.002 11.874.32-3.895c.34-4.128-2.732-7.75-6.86-8.089-4.107-.337-7.75 2.731-8.089 6.861l-1.396 16.991c-.047.572-.022 1.132.055 1.677l-1.626 1.379c-1.119-2.182-2.557-4.22-4.305-6.051-4.888-5.12-11.479-7.939-18.557-7.939h-9.899c2.732-5.478 6.508-10.372 11.083-14.252 14.592-12.375 67.548-16.57 87.483-18.149l.543-.043z"/><path d="m122.963 288.313 6.475 38.83c.837 5.022 3.58 9.418 7.724 12.378 3.269 2.334 7.101 3.554 11.038 3.554 1.054 0 2.115-.087 3.176-.264l38.83-6.474c10.367-1.729 17.396-11.57 15.667-21.938l-6.475-38.831c-1.729-10.368-11.58-17.396-21.938-15.667l-38.83 6.475c-10.367 1.728-17.395 11.569-15.667 21.937zm18.134-7.142 38.83-6.475c.226-.038.449-.056.67-.056 1.949 0 3.675 1.411 4.006 3.395l6.474 38.83c.369 2.209-1.129 4.307-3.338 4.675l-38.83 6.474c-1.073.18-2.146-.07-3.029-.701-.883-.63-1.468-1.567-1.646-2.637l-6.475-38.83c-.369-2.209 1.129-4.307 3.338-4.675z"/><path d="m207.776 391.736 20.702 20.701c3.716 3.716 8.597 5.574 13.479 5.574 4.881 0 9.763-1.858 13.479-5.574l20.7-20.701h-.001c3.601-3.6 5.584-8.387 5.584-13.479s-1.983-9.879-5.583-13.479l-20.701-20.701c-7.432-7.432-19.524-7.432-26.958 0l-20.701 20.701c-7.431 7.432-7.431 19.525 0 26.958zm10.607-16.352 20.7-20.701c.793-.792 1.833-1.188 2.873-1.188s2.081.396 2.872 1.188l20.701 20.701c.767.767 1.189 1.787 1.189 2.872s-.423 2.105-1.189 2.872h-.001l-20.699 20.7c-1.586 1.584-4.163 1.584-5.745 0l-20.701-20.7c-1.584-1.583-1.584-4.16 0-5.744z"/></g></svg>