<?xml version="1.0" encoding="utf-8"?>
<!-- Generator: Adobe Illustrator 23.0.6, SVG Export Plug-In . SVG Version: 6.00 Build 0)  -->
<svg version="1.0" id="Ebene_1" xmlns="http://www.w3.org/2000/svg" xmlns:xlink="http://www.w3.org/1999/xlink" x="0px" y="0px"
	 viewBox="0 0 55 23" style="enable-background:new 0 0 55 23;" xml:space="preserve">
<style type="text/css">
	.st0{fill:#303030;}
	.st1{fill:#4CAF50;}
	.st2{fill:#FAFAFA;}
</style>
<g>
	<path class="st0" d="M34.7,16.4h1.4c0.7,0,1.1,0.1,1.4,0.3c0.3,0.2,0.4,0.5,0.4,0.9c0,0.3-0.1,0.5-0.2,0.7
		c-0.1,0.2-0.4,0.3-0.6,0.4v0c0.3,0.1,0.6,0.2,0.7,0.4c0.2,0.2,0.2,0.4,0.2,0.8c0,0.4-0.2,0.8-0.5,1c-0.3,0.2-0.7,0.4-1.3,0.4h-1.7
		V16.4z M35.5,18.4h0.8c0.3,0,0.6-0.1,0.7-0.2c0.2-0.1,0.2-0.3,0.2-0.5c0-0.2-0.1-0.4-0.2-0.5c-0.2-0.1-0.4-0.2-0.8-0.2h-0.7V18.4z
		 M35.5,19v1.5h0.8c0.3,0,0.6-0.1,0.7-0.2c0.2-0.1,0.3-0.3,0.3-0.6c0-0.2-0.1-0.4-0.3-0.6c-0.2-0.1-0.4-0.2-0.8-0.2L35.5,19L35.5,19
		z"/>
	<path class="st0" d="M44.2,21.2l-0.5-1.3h-1.8l-0.5,1.3h-0.8l1.8-4.8h0.9l1.8,4.8H44.2z M43.5,19.2l-0.5-1.3c0-0.1-0.1-0.2-0.1-0.4
		c-0.1-0.2-0.1-0.3-0.1-0.4c-0.1,0.3-0.1,0.6-0.3,0.9l-0.4,1.3C42.1,19.2,43.5,19.2,43.5,19.2z"/>
	<path class="st0" d="M48.5,19.3v1.9h-0.8v-4.8h1.4c0.6,0,1.1,0.1,1.4,0.4s0.4,0.6,0.4,1.1c0,0.6-0.3,1-0.9,1.3l1.4,2.1h-0.9
		l-1.2-1.9H48.5z M48.5,18.6h0.5c0.4,0,0.6-0.1,0.8-0.2c0.2-0.1,0.2-0.3,0.2-0.6c0-0.3-0.1-0.5-0.3-0.6C49.7,17.1,49.4,17,49,17
		h-0.5L48.5,18.6L48.5,18.6z"/>
</g>
<path class="st1" d="M31.6,1.8h22.9C54.8,1.8,55,2,55,2.3v12.1c0,0.2-0.2,0.4-0.5,0.4H31.6c-0.3,0-0.5-0.2-0.5-0.4V2.3
	C31,2,31.3,1.8,31.6,1.8z"/>
<g>
	<path class="st2" d="M43,11.3c-1.1,0.1-2-0.7-2.2-1.7V7C41,6,42,5.2,43,5.3c1.4,0,2.1,0.4,2.2,1.3C45.2,6.8,45,7,44.8,7
		c-0.2,0-0.4-0.2-0.5-0.4c0-0.3-0.5-0.5-1.3-0.5c-0.7,0-1.3,0.4-1.3,0.9v2.6c0,0.5,0.6,0.9,1.3,0.9c0.8,0,1.3-0.2,1.3-0.5
		c0-0.2,0.2-0.4,0.5-0.4c0.2,0,0.4,0.2,0.4,0.5C45.1,10.9,44.4,11.3,43,11.3z"/>
	<path class="st2" d="M43,7.9h-2.6c-0.2,0-0.4-0.2-0.4-0.4S40.2,7,40.4,7H43c0.2,0,0.4,0.2,0.4,0.4S43.3,7.9,43,7.9z"/>
	<path class="st2" d="M43,9.6h-2.6c-0.2,0-0.4-0.2-0.4-0.4s0.2-0.4,0.4-0.4H43c0.2,0,0.4,0.2,0.4,0.4S43.3,9.6,43,9.6z"/>
	<path class="st2" d="M53,4.4h-1.7c-0.2,0-0.4-0.2-0.4-0.4s0.2-0.4,0.4-0.4H53c0.2,0,0.4,0.2,0.4,0.4S53.2,4.4,53,4.4z"/>
	<path class="st2" d="M34.8,13.1h-1.7c-0.2,0-0.4-0.2-0.4-0.4s0.2-0.4,0.4-0.4h1.7c0.2,0,0.4,0.2,0.4,0.4S35.1,13.1,34.8,13.1z"/>
</g>
</svg>
