<?xml version="1.0" encoding="utf-8"?>
<!-- Generator: Adobe Illustrator 23.0.6, SVG Export Plug-In . SVG Version: 6.00 Build 0)  -->
<svg version="1.0" id="Ebene_1" xmlns="http://www.w3.org/2000/svg" xmlns:xlink="http://www.w3.org/1999/xlink" x="0px" y="0px"
	 viewBox="0 0 55 23" style="enable-background:new 0 0 55 23;" xml:space="preserve">
<style type="text/css">
	.st0{fill:#005CA8;}
	.st1{fill:#F6A723;}
	.st2{fill:none;}
	.st3{fill:#231F20;}
	.st4{fill:#FF5F00;}
	.st5{fill:#EB001B;}
	.st6{fill:#F79E1B;}
</style>
<g>
	<g>
		<polygon class="st0" points="18,15.4 15.8,15.4 17.2,7 19.4,7 		"/>
		<path class="st0" d="M14,7l-2.1,5.8l-0.2-1.2l0,0l-0.7-3.8c0,0-0.1-0.8-1-0.8H6.4l0,0.1c0,0,1.1,0.2,2.3,1l1.9,7.3h2.3L16.3,7H14z
			"/>
		<path class="st0" d="M31.2,15.4h2L31.4,7h-1.8c-0.8,0-1,0.6-1,0.6l-3.3,7.8h2.3l0.5-1.2h2.8L31.2,15.4z M28.8,12.4l1.1-3.1
			l0.6,3.1H28.8z"/>
		<path class="st0" d="M25.6,9l0.3-1.8c0,0-1-0.4-2-0.4c-1.1,0-3.7,0.5-3.7,2.8c0,2.2,3,2.2,3,3.3s-2.7,0.9-3.6,0.2l-0.3,1.9
			c0,0,1,0.5,2.5,0.5c1.5,0,3.7-0.8,3.7-2.9c0-2.2-3.1-2.4-3.1-3.3C22.5,8.4,24.6,8.5,25.6,9z"/>
	</g>
	<path class="st1" d="M11.6,11.5l-0.7-3.8c0,0-0.1-0.8-1-0.8H6.4l0,0.1c0,0,1.7,0.3,3.2,1.6C11.1,10,11.6,11.5,11.6,11.5z"/>
</g>
<g id="Layer_2">
	<g id="Layer_1-2">
		<rect x="34" y="1.9" class="st2" width="23.4" height="19.2"/>
		<path class="st3" d="M39.8,18.7v-1c0-0.3-0.2-0.6-0.5-0.6c0,0,0,0-0.1,0c-0.2,0-0.4,0.1-0.5,0.3c-0.1-0.2-0.3-0.3-0.5-0.3
			c-0.2,0-0.3,0.1-0.4,0.2v-0.2h-0.3v1.5h0.3v-0.8c0-0.2,0.1-0.4,0.3-0.4c0,0,0,0,0.1,0c0.2,0,0.3,0.1,0.3,0.4v0.8h0.3v-0.8
			c0-0.2,0.1-0.4,0.3-0.4c0,0,0,0,0.1,0c0.2,0,0.3,0.1,0.3,0.4v0.8L39.8,18.7z M44.7,17.2h-0.5v-0.5h-0.3v0.5h-0.3v0.3h0.3v0.7
			c0,0.4,0.1,0.6,0.5,0.6c0.1,0,0.3,0,0.4-0.1l-0.1-0.3c-0.1,0.1-0.2,0.1-0.3,0.1c-0.2,0-0.2-0.1-0.2-0.3v-0.7h0.5L44.7,17.2z
			 M47.5,17.1c-0.2,0-0.3,0.1-0.4,0.2v-0.2h-0.3v1.5h0.3v-0.9c0-0.3,0.1-0.4,0.3-0.4c0.1,0,0.1,0,0.2,0l0.1-0.3
			C47.7,17.1,47.6,17.1,47.5,17.1L47.5,17.1z M43.3,17.3c-0.2-0.1-0.4-0.2-0.6-0.2c-0.4,0-0.6,0.2-0.6,0.5c0,0.2,0.2,0.4,0.5,0.4
			l0.2,0c0.2,0,0.3,0.1,0.3,0.2c0,0.1-0.1,0.2-0.3,0.2c-0.2,0-0.4-0.1-0.5-0.2L42,18.5c0.2,0.1,0.4,0.2,0.7,0.2
			c0.4,0,0.7-0.2,0.7-0.5s-0.2-0.4-0.5-0.5l-0.2,0c-0.1,0-0.3,0-0.3-0.1s0.1-0.2,0.3-0.2c0.2,0,0.3,0,0.5,0.1L43.3,17.3z M52.2,17.1
			c-0.2,0-0.3,0.1-0.4,0.2v-0.2h-0.3v1.5h0.3v-0.9c0-0.3,0.1-0.4,0.3-0.4c0.1,0,0.1,0,0.2,0l0.1-0.3C52.3,17.1,52.2,17.1,52.2,17.1
			L52.2,17.1z M47.9,17.9c0,0.4,0.3,0.8,0.7,0.8c0,0,0,0,0.1,0c0.2,0,0.4-0.1,0.5-0.2l-0.2-0.3c-0.1,0.1-0.3,0.1-0.4,0.1
			c-0.3,0-0.5-0.3-0.4-0.5c0-0.2,0.2-0.4,0.4-0.4c0.1,0,0.3,0,0.4,0.1l0.2-0.3c-0.2-0.1-0.3-0.2-0.5-0.2
			C48.3,17.1,47.9,17.4,47.9,17.9C47.9,17.9,47.9,17.9,47.9,17.9L47.9,17.9z M51,17.9v-0.8h-0.3v0.2c-0.1-0.1-0.3-0.2-0.5-0.2
			c-0.4,0-0.8,0.4-0.8,0.8s0.4,0.8,0.8,0.8c0.2,0,0.4-0.1,0.5-0.2v0.2H51V17.9z M49.8,17.9c0-0.3,0.2-0.4,0.5-0.4s0.4,0.2,0.4,0.5
			c0,0.2-0.2,0.4-0.5,0.4C50,18.4,49.8,18.2,49.8,17.9C49.7,18,49.7,17.9,49.8,17.9z M45.8,17.1c-0.4,0-0.8,0.4-0.8,0.8
			c0,0.4,0.4,0.8,0.8,0.8l0,0c0.2,0,0.5-0.1,0.6-0.2l-0.2-0.2c-0.1,0.1-0.3,0.2-0.4,0.2c-0.2,0-0.4-0.1-0.5-0.4h1.1c0,0,0-0.1,0-0.1
			C46.5,17.5,46.2,17.1,45.8,17.1L45.8,17.1z M45.8,17.4c0.2,0,0.4,0.2,0.4,0.4c0,0,0,0,0,0h-0.8C45.4,17.6,45.5,17.4,45.8,17.4
			L45.8,17.4z M54.1,17.9v-1.4h-0.3v0.8c-0.1-0.1-0.3-0.2-0.5-0.2c-0.4,0-0.8,0.4-0.8,0.8s0.4,0.8,0.8,0.8c0.2,0,0.4-0.1,0.5-0.2
			v0.2h0.3V17.9z M54.6,18.5C54.6,18.5,54.6,18.5,54.6,18.5c0.1,0,0.1,0,0.1,0c0,0,0,0,0,0c0,0,0,0.1,0,0.1c0,0,0,0,0,0c0,0,0,0,0,0
			c0,0,0,0-0.1,0c-0.1,0-0.1,0-0.1-0.1c0,0,0-0.1,0-0.1c0,0,0,0,0,0C54.5,18.5,54.5,18.5,54.6,18.5C54.6,18.5,54.6,18.5,54.6,18.5
			L54.6,18.5z M54.6,18.7C54.6,18.7,54.6,18.7,54.6,18.7C54.7,18.7,54.7,18.7,54.6,18.7c0.1-0.1,0.1-0.1,0.1-0.2c0,0,0,0,0,0
			c0,0,0,0,0,0c0,0,0,0,0,0c0,0,0,0,0,0C54.5,18.6,54.5,18.7,54.6,18.7C54.5,18.7,54.5,18.7,54.6,18.7
			C54.6,18.7,54.6,18.7,54.6,18.7L54.6,18.7z M54.6,18.6C54.6,18.6,54.6,18.6,54.6,18.6C54.7,18.6,54.7,18.6,54.6,18.6
			C54.7,18.6,54.7,18.6,54.6,18.6C54.7,18.6,54.6,18.6,54.6,18.6l0.1,0.1h0L54.6,18.6L54.6,18.6l0,0.1h0L54.6,18.6L54.6,18.6z
			 M54.6,18.6L54.6,18.6L54.6,18.6C54.6,18.6,54.6,18.6,54.6,18.6C54.6,18.6,54.6,18.6,54.6,18.6C54.6,18.6,54.6,18.6,54.6,18.6
			C54.6,18.6,54.6,18.6,54.6,18.6L54.6,18.6z M52.8,17.9c0-0.3,0.2-0.4,0.5-0.4c0.3,0,0.4,0.2,0.4,0.5c0,0.2-0.2,0.4-0.5,0.4
			C53,18.4,52.8,18.2,52.8,17.9C52.8,18,52.8,17.9,52.8,17.9z M41.6,17.9v-0.8h-0.3v0.2c-0.1-0.1-0.3-0.2-0.5-0.2
			c-0.4,0-0.8,0.4-0.8,0.8s0.4,0.8,0.8,0.8c0.2,0,0.4-0.1,0.5-0.2v0.2h0.3V17.9z M40.4,17.9c0-0.3,0.2-0.4,0.5-0.4
			c0.3,0,0.4,0.2,0.4,0.5c0,0.2-0.2,0.4-0.5,0.4C40.6,18.4,40.4,18.2,40.4,17.9C40.4,18,40.4,17.9,40.4,17.9L40.4,17.9z"/>
		<g id="_Group_">
			<rect x="43.2" y="5.6" class="st4" width="5" height="9"/>
			<path id="_Path_" class="st5" d="M43.5,10.1c0-1.8,0.8-3.4,2.2-4.5c-2.5-2-6.1-1.5-8.1,1s-1.5,6.1,1,8.1c2.1,1.6,5,1.6,7.1,0
				C44.3,13.5,43.5,11.8,43.5,10.1z"/>
			<path class="st6" d="M55,10.1c0,3.2-2.6,5.7-5.7,5.7c-1.3,0-2.5-0.4-3.5-1.2c2.5-2,2.9-5.6,1-8.1c-0.3-0.4-0.6-0.7-1-1
				c2.5-2,6.1-1.5,8.1,1C54.5,7.5,55,8.8,55,10.1L55,10.1z"/>
			<path class="st6" d="M54.4,13.6v-0.2h0.1v0h-0.2v0h0.1L54.4,13.6L54.4,13.6z M54.8,13.6v-0.2h-0.1l-0.1,0.2l-0.1-0.2h-0.1v0.2h0
				v-0.2l0.1,0.1L54.8,13.6l0-0.2L54.8,13.6L54.8,13.6z"/>
		</g>
	</g>
</g>
</svg>
