<?xml version="1.0" encoding="utf-8"?>
<!-- Generator: Adobe Illustrator 23.0.6, SVG Export Plug-In . SVG Version: 6.00 Build 0)  -->
<svg version="1.0" id="Ebene_1" xmlns="http://www.w3.org/2000/svg" xmlns:xlink="http://www.w3.org/1999/xlink" x="0px" y="0px"
	 viewBox="0 0 55 23" style="enable-background:new 0 0 55 23;" xml:space="preserve">
<style type="text/css">
	.st0{fill:#5DC4E9;}
	.st1{fill:#004994;}
	.st2{fill:#FFFFFF;}
</style>
<g>
	<path class="st0" d="M55,18.1V4.9c0-0.1,0-0.4-0.4-0.4H44.2c0.4,0,0.4,0.3,0.4,0.4v13.2c0,0.4-0.3,0.4-0.4,0.4h10.3
		C54.7,18.6,55,18.5,55,18.1L55,18.1z"/>
	<path class="st1" d="M22.9,10.8h-0.6v3.1h0.6V10.8L22.9,10.8z M21.1,12.4c0,0.1,0,0.4-0.2,0.7c-0.2,0.3-0.5,0.4-0.7,0.4
		c-0.2,0-0.4-0.1-0.6-0.2c-0.2-0.2-0.3-0.6-0.3-0.9c0-0.5,0.1-0.7,0.4-0.9c0.1-0.1,0.3-0.2,0.5-0.2c0.2,0,0.4,0.1,0.5,0.2
		C21.1,11.7,21.1,12.4,21.1,12.4 M21.4,14.8c0.2-0.3,0.3-0.6,0.3-1.3l0-2.7h-0.5v0.5c0,0-0.1-0.2-0.3-0.3c-0.1-0.1-0.4-0.3-0.8-0.3
		c-0.3,0-0.6,0.1-0.7,0.2c-0.2,0.1-0.3,0.3-0.4,0.4c-0.2,0.3-0.3,0.7-0.3,1.1c0,0.1,0,0.4,0.1,0.7c0,0.1,0.1,0.4,0.4,0.7
		c0.2,0.1,0.4,0.3,0.8,0.3c0.2,0,0.5-0.1,0.8-0.3c0.1-0.1,0.1-0.1,0.2-0.2l0,0.4c0,0.1,0,0.3-0.1,0.4c0,0.1-0.1,0.2-0.1,0.2
		c-0.2,0.2-0.3,0.3-0.7,0.3c-0.4,0-0.7-0.1-0.8-0.1c-0.2-0.1-0.2-0.1-0.3-0.2L19,15.1c0.1,0,0.2,0.1,0.2,0.1c0.2,0,0.5,0.1,0.9,0.1
		c0.4,0,0.7-0.1,0.9-0.2C21.2,15,21.3,14.9,21.4,14.8 M22.3,10.1h0.6V9.4h-0.6V10.1L22.3,10.1z M25,11.3c0.2,0,0.2,0,0.4,0.1v-0.6
		c0,0-0.2,0-0.3,0c-0.2,0-0.5,0.1-0.7,0.3c0,0-0.1,0.1-0.2,0.2l0-0.5h-0.5c0,0.4,0,0.7,0,1.1c0,0.5,0,0.8,0,1.2v0.9h0.6v-1.5
		c0-0.3,0-0.7,0.3-1C24.7,11.3,24.9,11.3,25,11.3 M27.9,12.3c0,0.3-0.1,0.8-0.5,1.1c-0.1,0-0.2,0.1-0.4,0.1c0,0-0.2,0-0.4-0.1
		c0,0-0.1,0-0.2-0.1c-0.1-0.1-0.2-0.2-0.3-0.4c-0.1-0.2-0.1-0.4-0.1-0.6c0-0.4,0.2-0.7,0.4-0.9c0.1-0.1,0.3-0.2,0.6-0.2
		c0.5,0,0.7,0.3,0.8,0.6C27.8,11.9,27.9,12.1,27.9,12.3 M28,13.6c0.4-0.4,0.5-0.9,0.5-1.3c0-0.8-0.4-1.2-0.8-1.4
		c-0.1-0.1-0.4-0.2-0.7-0.2c-0.7,0-1.2,0.4-1.4,0.7c-0.2,0.3-0.2,0.6-0.2,0.9c0,0.6,0.2,1,0.5,1.3c0.1,0.1,0.1,0.1,0.2,0.1
		c0.2,0.1,0.4,0.2,0.8,0.2c0.3,0,0.5-0.1,0.7-0.1C27.7,13.8,27.8,13.7,28,13.6 M30.3,14c0.4,0,0.6-0.1,0.8-0.2l0-0.5
		c-0.1,0-0.4,0.2-0.7,0.2c0,0-0.2,0-0.4-0.1c-0.5-0.2-0.6-0.7-0.6-1.1c0-0.5,0.3-0.8,0.5-1c0.2-0.1,0.5-0.1,0.5-0.1
		c0.2,0,0.4,0.1,0.5,0.1l0-0.5c-0.1,0-0.3-0.1-0.6-0.1c-0.6,0-1,0.3-1.3,0.6c-0.3,0.3-0.3,0.8-0.3,1.1c0,0.8,0.5,1.3,0.9,1.5
		C29.8,13.9,30,14,30.3,14 M33.3,12.5c0,0.2,0,0.3,0,0.4c0,0,0,0.1-0.1,0.3c-0.2,0.2-0.4,0.3-0.6,0.3c-0.3,0-0.6-0.1-0.6-0.5
		c0-0.4,0.3-0.5,0.6-0.6c0.1,0,0.2,0,0.4,0C33,12.4,33.1,12.4,33.3,12.5L33.3,12.5L33.3,12.5z M33.3,13.9h0.5v-2.2
		c0-0.3-0.1-0.4-0.2-0.5c-0.2-0.3-0.5-0.5-1-0.5c-0.1,0-0.5,0-0.8,0.2c-0.1,0-0.1,0.1-0.2,0.1v0.5c0.1-0.1,0.5-0.3,0.9-0.3
		c0.4,0,0.6,0.2,0.7,0.4c0,0.1,0.1,0.3,0.1,0.4c-0.1,0-0.3,0-0.5,0c-0.3,0-0.7,0-1,0.2c-0.2,0.1-0.6,0.3-0.6,0.8c0,0.1,0,0.1,0,0.2
		c0,0.2,0.1,0.4,0.3,0.6c0.2,0.1,0.4,0.2,0.7,0.2c0.4,0,0.6-0.1,0.8-0.2c0.1-0.1,0.2-0.2,0.3-0.3V13.9L33.3,13.9z M35.8,11.3
		c0.2,0,0.2,0,0.4,0.1v-0.6c0,0-0.2,0-0.3,0c-0.2,0-0.5,0.1-0.7,0.3c0,0-0.1,0.1-0.2,0.2l0-0.5h-0.5c0,0.4,0,0.7,0,1.1
		c0,0.5,0,0.8,0,1.2v0.9H35v-1.5c0-0.3,0-0.7,0.3-1C35.6,11.3,35.8,11.3,35.8,11.3 M38.6,12.4c0,0.1,0,0.2-0.1,0.4
		c-0.1,0.4-0.5,0.7-0.9,0.7c-0.3,0-0.6-0.2-0.8-0.5c-0.1-0.2-0.1-0.4-0.1-0.6c0-0.1,0-0.3,0.1-0.5c0.2-0.6,0.7-0.6,0.8-0.6
		c0.4,0,0.7,0.2,0.8,0.7C38.6,12,38.6,12.2,38.6,12.4 M39.2,13.3c0-0.6,0-1,0-1.7c0-0.8,0-1.5,0-2.3h-0.6v1.9
		c-0.1-0.1-0.1-0.1-0.2-0.2c-0.2-0.1-0.4-0.3-0.8-0.3c-0.1,0-0.6,0-1,0.4c-0.5,0.5-0.4,1.2-0.4,1.3c0,0.2,0,0.5,0.1,0.7
		c0.2,0.4,0.5,0.9,1.2,0.9c0.1,0,0.5,0,0.8-0.3c0.1,0,0.1-0.1,0.2-0.2l0,0.5h0.5C39.2,13.7,39.2,13.5,39.2,13.3"/>
	<g>
		<path class="st1" d="M13.7,11C13.7,10.9,13.6,10.9,13.7,11l-0.9-0.1c0,0-0.1,0-0.1,0.1l0,0.7c0,0,0,0.1,0.1,0.1h0.9
			c0.1,0,0.1-0.1,0.1-0.1L13.7,11L13.7,11z"/>
		<path class="st1" d="M14.9,11c0-0.1-0.1-0.1-0.1-0.1H14c0,0-0.1,0-0.1,0.1l0,0.7c0,0.1,0.1,0.1,0.1,0.1h0.9c0,0,0.1,0,0.1-0.1
			C15,11.7,14.9,11.3,14.9,11"/>
		<path class="st1" d="M12.2,12h-0.9c-0.1,0-0.1,0.1-0.1,0.1c0,0.1-0.1,0.8-0.1,0.8c0,0.1,0,0.1,0.1,0.1h1c0.1,0,0.1-0.1,0.1-0.1
			L12.2,12C12.3,12.1,12.3,12,12.2,12"/>
		<path class="st1" d="M13.7,12.1C13.7,12.1,13.7,12,13.7,12.1l-1-0.1c0,0-0.1,0-0.1,0.1l0,0.8c0,0,0,0.1,0.1,0.1h1
			c0.1,0,0.1-0.1,0.1-0.1L13.7,12.1L13.7,12.1z"/>
		<path class="st1" d="M15.1,12.1C15.1,12,15,12,15,12h-0.9c0,0-0.1,0.1-0.1,0.1c0,0,0.1,0.8,0.1,0.8c0,0.1,0,0.2,0.1,0.2h1
			c0.1,0,0.1,0,0.1-0.1C15.2,13,15.1,12.3,15.1,12.1"/>
		<polygon class="st1" points="16.6,15.3 15.2,9.6 15.2,9.6 15.2,9.6 14.6,9.6 14.6,9.7 14.6,9.7 14.6,9.7 15.1,9.7 16.4,15.2 
			9.9,15.2 11.2,9.7 11.8,9.7 11.8,9.6 11.7,9.6 11.7,9.6 11.1,9.6 9.7,15.3 9.8,15.3 9.8,15.3 16.6,15.3 		"/>
		<path class="st0" d="M14.4,7.4c0,0-0.1,0-0.1,0H12c-0.1,0-0.2,0.1-0.2,0.2l0,2.3h0v0h0.2l0-2.3c0,0,0-0.1,0.1-0.1h0.4v1.6H12
			l0.6,0.7h0l0,0h1.1l0.6-0.7h0l0,0h-0.5V7.5h0.4c0,0,0,0,0.1,0c0,0,0,0,0,0.1v2.3h0v0h0.2V7.6C14.6,7.5,14.5,7.4,14.4,7.4L14.4,7.4
			z"/>
		<path class="st1" d="M12.2,13.4C12.1,13.4,12.1,13.4,12.2,13.4l-1,0c-0.1,0-0.1,0-0.1,0.1c0,0.1-0.2,1.1-0.2,1.1
			c0,0,0,0.1,0.1,0.1c0,0,0,0,0,0H12c0.1,0,0.1-0.1,0.1-0.2l0.1-1.1C12.2,13.4,12.2,13.4,12.2,13.4L12.2,13.4z"/>
		<path class="st1" d="M15.3,13.5c0-0.1,0-0.1-0.1-0.1c0,0,0,0-0.1,0h-1c-0.1,0-0.1,0.1-0.1,0.1c0,0,0.1,1.1,0.1,1.1
			c0,0.1,0,0.1,0.1,0.1c0,0,0,0,0.1,0h1.1c0.1,0,0.1-0.1,0.1-0.1C15.5,14.6,15.4,13.8,15.3,13.5L15.3,13.5z"/>
		<path class="st1" d="M13.8,13.7L13.8,13.7l0-0.2c0-0.1,0-0.1-0.1-0.1c0,0,0,0-0.1,0h-1c0,0-0.1,0-0.1,0.1l0,0.3h0l0,0.8
			c0,0,0,0.1,0.1,0.1c0,0,0,0,0.1,0h1.1c0.1,0,0.1-0.1,0.1-0.1L13.8,13.7L13.8,13.7z"/>
		<path class="st1" d="M14.7,10.1C14.7,10,14.7,10,14.7,10.1c-0.1,0-0.1-0.1-0.1-0.1h-0.7c0,0-0.1,0-0.1,0.1l0,0.5c0,0,0,0.1,0,0.1
			c0,0,0,0,0.1,0h0.8c0,0,0.1,0,0.1-0.1C14.9,10.6,14.8,10.3,14.7,10.1L14.7,10.1z"/>
		<path class="st1" d="M13.6,10.1C13.6,10,13.6,10,13.6,10.1C13.6,10,13.5,10,13.5,10h-0.7c0,0-0.1,0-0.1,0.1l0,0.6c0,0,0,0.1,0,0.1
			c0,0,0,0,0,0h0.8c0,0,0.1,0,0.1-0.1L13.6,10.1L13.6,10.1z"/>
		<path class="st1" d="M12.4,10C12.4,10,12.4,10,12.4,10l-0.8,0c-0.1,0-0.1,0-0.1,0.1c0,0.2-0.1,0.6-0.1,0.6c0,0,0,0,0,0.1
			c0,0,0,0,0.1,0h0.8c0,0,0.1,0,0.1-0.1C12.4,10.7,12.5,10.1,12.4,10C12.5,10.1,12.5,10,12.4,10L12.4,10z"/>
		<path class="st1" d="M12.4,11C12.4,11,12.4,10.9,12.4,11C12.3,10.9,12.3,10.9,12.4,11l-0.9-0.1c-0.1,0-0.1,0-0.1,0.1
			c0,0.1-0.1,0.7-0.1,0.7c0,0.1,0,0.1,0,0.1c0,0,0,0,0,0h0.9c0.1,0,0.1,0,0.1-0.1C12.4,11.7,12.4,11,12.4,11L12.4,11z"/>
	</g>
	<path class="st2" d="M52,16.2c-0.2,0-0.3-0.2-0.3-0.4c0-0.1,0-0.2,0.2-0.5c0.7-1.3,0.9-2.4,0.9-3.8c0-1.4-0.3-2.4-0.9-3.7
		c-0.1-0.3-0.2-0.5-0.2-0.6c0-0.1,0.1-0.3,0.2-0.4c0.2-0.1,0.4-0.1,0.6,0c0.1,0,0.2,0.3,0.3,0.5c0.4,0.9,0.8,1.8,0.9,2.8
		c0.1,0.6,0.1,1.8,0,2.4c-0.1,1-0.4,2-0.9,2.9c-0.3,0.6-0.4,0.8-0.6,0.8c0,0-0.1,0-0.1,0C52.1,16.3,52.1,16.3,52,16.2L52,16.2
		L52,16.2L52,16.2z M50.2,15.3c-0.2-0.1-0.4-0.4-0.3-0.6c0-0.1,0.1-0.3,0.2-0.5c0.5-1,0.7-2.1,0.6-3.2c-0.1-0.9-0.2-1.4-0.6-2.2
		c-0.3-0.5-0.3-0.6-0.1-0.8c0.1-0.2,0.5-0.2,0.7-0.1c0.1,0.1,0.6,1,0.7,1.5c0.5,1.6,0.5,3.4-0.2,5C50.8,15.1,50.5,15.4,50.2,15.3
		L50.2,15.3L50.2,15.3z M48.3,14.3c-0.1-0.1-0.3-0.2-0.3-0.4c0-0.1,0-0.2,0.2-0.5c0.6-1.3,0.6-2.5,0-3.7c-0.3-0.5-0.3-0.7,0-0.9
		c0.1-0.1,0.2-0.1,0.3-0.1c0.3,0,0.4,0.1,0.6,0.6c0.4,0.7,0.5,1.4,0.5,2.2c0,0.9-0.1,1.4-0.5,2.2c-0.2,0.5-0.3,0.6-0.6,0.6
		C48.5,14.4,48.4,14.3,48.3,14.3L48.3,14.3L48.3,14.3L48.3,14.3z M46.6,13.4c-0.1,0-0.2-0.2-0.3-0.3c0-0.2,0-0.3,0.2-0.6
		c0.2-0.4,0.3-0.6,0.3-1c0-0.5-0.1-0.7-0.3-1c-0.1-0.1-0.1-0.3-0.2-0.3c-0.1-0.2,0.1-0.5,0.4-0.6c0.2,0,0.4,0.1,0.6,0.4
		c0.6,0.9,0.6,2.2,0,3.1C47,13.4,46.8,13.5,46.6,13.4L46.6,13.4L46.6,13.4L46.6,13.4z"/>
</g>
</svg>
