<?xml version="1.0" encoding="utf-8"?>
<!-- Generator: Adobe Illustrator 23.0.6, SVG Export Plug-In . SVG Version: 6.00 Build 0)  -->
<svg version="1.0" id="Ebene_1" xmlns="http://www.w3.org/2000/svg" xmlns:xlink="http://www.w3.org/1999/xlink" x="0px" y="0px"
	 viewBox="0 0 55 23" style="enable-background:new 0 0 55 23;" xml:space="preserve">
<style type="text/css">
	.st0{fill:#FFB3C7;}
	.st1{fill:#0A0B09;}
</style>
<g>
	<path class="st0" d="M25.1,2.3h26.7c1.8,0,3.2,1.4,3.2,3.2v12c0,1.8-1.4,3.2-3.2,3.2H25.1c-1.8,0-3.2-1.4-3.2-3.2v-12
		C22,3.8,23.4,2.3,25.1,2.3z"/>
	<path class="st1" d="M51.9,13.1c-0.4,0-0.8,0.4-0.8,0.8c0,0.4,0.4,0.8,0.8,0.8c0.4,0,0.8-0.4,0.8-0.8
		C52.7,13.4,52.4,13.1,51.9,13.1z M49.3,12.5c0-0.6-0.5-1.1-1.1-1.1c-0.6,0-1.1,0.5-1.1,1.1c0,0.6,0.5,1.1,1.1,1.1
		C48.8,13.6,49.3,13.1,49.3,12.5z M49.4,10.4h1.2v4.2h-1.2v-0.3c-0.4,0.2-0.8,0.4-1.2,0.4c-1.2,0-2.2-1-2.2-2.2s1-2.2,2.2-2.2
		c0.5,0,0.9,0.1,1.2,0.4V10.4L49.4,10.4z M39.4,10.9v-0.5h-1.3v4.2h1.3v-2c0-0.7,0.7-1,1.2-1c0,0,0,0,0,0v-1.2
		C40.1,10.4,39.6,10.6,39.4,10.9L39.4,10.9z M36.2,12.5c0-0.6-0.5-1.1-1.1-1.1c-0.6,0-1.1,0.5-1.1,1.1c0,0.6,0.5,1.1,1.1,1.1
		C35.7,13.6,36.2,13.1,36.2,12.5z M36.2,10.4h1.2v4.2h-1.2v-0.3c-0.4,0.2-0.8,0.4-1.2,0.4c-1.2,0-2.2-1-2.2-2.2s1-2.2,2.2-2.2
		c0.5,0,0.9,0.1,1.2,0.4V10.4L36.2,10.4z M43.7,10.3c-0.5,0-1,0.2-1.3,0.6v-0.5h-1.2v4.2h1.3v-2.2c0-0.6,0.4-1,0.9-1
		c0.5,0,0.9,0.3,0.9,0.9v2.2h1.2v-2.7C45.5,10.9,44.7,10.3,43.7,10.3L43.7,10.3z M30.9,14.6h1.3V8.5h-1.3V14.6z M25.2,14.6h1.4V8.5
		h-1.4V14.6z M30,8.5c0,1.3-0.5,2.5-1.4,3.5l1.9,2.6h-1.7l-2.1-2.9l0.5-0.4c0.9-0.7,1.4-1.7,1.4-2.8L30,8.5L30,8.5z"/>
</g>
</svg>
