<?xml version="1.0" encoding="utf-8"?>
<!-- Generator: Adobe Illustrator 23.0.6, SVG Export Plug-In . SVG Version: 6.00 Build 0)  -->
<svg version="1.0" id="Ebene_1" xmlns="http://www.w3.org/2000/svg" xmlns:xlink="http://www.w3.org/1999/xlink" x="0px" y="0px"
	 viewBox="0 0 55 23" style="enable-background:new 0 0 55 23;" xml:space="preserve">
<style type="text/css">
	.st0{fill-rule:evenodd;clip-rule:evenodd;fill:#009EE3;}
	.st1{fill-rule:evenodd;clip-rule:evenodd;fill:#113984;}
	.st2{fill-rule:evenodd;clip-rule:evenodd;fill:#172C70;}
</style>
<path class="st0" d="M10.8,8.4h3.3c1.8,0,2.4,0.9,2.3,2.2c-0.2,2.2-1.5,3.4-3.2,3.4h-0.9c-0.2,0-0.4,0.2-0.5,0.6l-0.4,2.5
	c0,0.2-0.1,0.3-0.2,0.3H9.1c-0.2,0-0.3-0.1-0.2-0.5l1.3-8C10.2,8.6,10.4,8.4,10.8,8.4z"/>
<path class="st1" d="M25.1,8.3c1.1,0,2.1,0.6,2,2.1c-0.2,1.8-1.1,2.8-2.7,2.8h-1.3c-0.2,0-0.3,0.2-0.3,0.5l-0.3,1.6
	c0,0.2-0.2,0.4-0.4,0.4H21c-0.2,0-0.3-0.1-0.2-0.4l1-6.5c0.1-0.3,0.2-0.4,0.4-0.4H25.1L25.1,8.3z M23.1,11.8h1c0.6,0,1-0.5,1.1-1.2
	c0-0.5-0.3-0.8-0.8-0.8l-0.9,0L23.1,11.8L23.1,11.8z M30.5,15.1c0.1-0.1,0.2-0.2,0.2,0l0,0.3c0,0.2,0,0.2,0.2,0.2H32
	c0.2,0,0.3-0.1,0.3-0.4l0.7-4.2c0-0.2,0-0.3-0.2-0.3h-1.2c-0.1,0-0.2,0.1-0.2,0.2l0,0.3c0,0.1-0.1,0.2-0.1,0
	c-0.2-0.5-0.7-0.7-1.5-0.7c-1.7,0-2.8,1.3-3,3c-0.1,1.3,0.8,2.3,2,2.3C29.7,15.8,30.1,15.5,30.5,15.1L30.5,15.1L30.5,15.1z
	 M29.6,14.5c-0.7,0-1.2-0.6-1.1-1.3s0.8-1.3,1.5-1.3s1.2,0.6,1.1,1.3S30.3,14.5,29.6,14.5L29.6,14.5z M35.1,10.7H34
	c-0.2,0-0.3,0.2-0.2,0.4l1.4,4l-1.4,1.9c-0.1,0.2,0,0.3,0.1,0.3h1.2c0.1,0,0.3-0.1,0.4-0.2l4.2-6.1c0.1-0.2,0.1-0.4-0.1-0.4h-1.2
	c-0.2,0-0.3,0.1-0.4,0.2l-1.8,2.6L35.5,11C35.4,10.8,35.3,10.7,35.1,10.7L35.1,10.7z"/>
<path class="st0" d="M44.2,8.3c1.1,0,2.1,0.6,2,2.1c-0.2,1.8-1.1,2.8-2.7,2.8h-1.3c-0.2,0-0.3,0.2-0.3,0.5l-0.3,1.6
	c0,0.2-0.2,0.4-0.4,0.4H40c-0.2,0-0.3-0.1-0.2-0.4l1-6.5c0.1-0.3,0.2-0.4,0.4-0.4L44.2,8.3L44.2,8.3z M42.2,11.8h1
	c0.6,0,1-0.5,1.1-1.2c0-0.5-0.3-0.8-0.8-0.8l-0.9,0L42.2,11.8L42.2,11.8z M49.6,15.1c0.1-0.1,0.2-0.2,0.2,0l0,0.3
	c0,0.2,0,0.2,0.2,0.2H51c0.2,0,0.3-0.1,0.3-0.4l0.7-4.2c0-0.2,0-0.3-0.2-0.3h-1.2c-0.1,0-0.2,0.1-0.2,0.2l0,0.3c0,0.1-0.1,0.2-0.1,0
	c-0.2-0.5-0.7-0.7-1.5-0.7c-1.7,0-2.8,1.3-3,3c-0.1,1.3,0.8,2.3,2,2.3C48.7,15.8,49.1,15.5,49.6,15.1L49.6,15.1L49.6,15.1z
	 M48.6,14.5c-0.7,0-1.2-0.6-1.1-1.3c0.1-0.7,0.8-1.3,1.5-1.3s1.2,0.6,1.1,1.3S49.4,14.5,48.6,14.5L48.6,14.5z M53.7,15.7h-1.3
	c-0.1,0-0.2-0.1-0.2-0.1c0,0,0,0,0,0l1.1-7c0-0.1,0.1-0.2,0.2-0.2h1.3c0.1,0,0.2,0.1,0.2,0.1c0,0,0,0,0,0l-1.1,7
	C53.9,15.6,53.8,15.7,53.7,15.7L53.7,15.7z"/>
<path class="st1" d="M8.7,5.6H12c0.9,0,2,0,2.8,0.7c0.5,0.4,0.8,1.1,0.7,1.9c-0.2,2.5-1.7,4-3.8,4h-1.6c-0.3,0-0.5,0.2-0.5,0.7
	l-0.5,2.9c0,0.2-0.1,0.3-0.3,0.3h-2c-0.2,0-0.3-0.2-0.2-0.5L8,6.2C8.1,5.8,8.3,5.6,8.7,5.6z"/>
<path class="st2" d="M9.6,12.5l0.6-3.7c0.1-0.3,0.2-0.5,0.6-0.5h3.3c0.5,0,1,0.1,1.3,0.2c-0.3,2.3-1.8,3.5-3.7,3.5h-1.6
	C9.9,12.2,9.7,12.3,9.6,12.5z"/>
</svg>
