<?xml version="1.0" encoding="UTF-8" standalone="no"?>
<svg width="23" height="23" viewBox="0 0 23 23" xmlns="http://www.w3.org/2000/svg">
<path d="M11.5172 0C5.13793 0 0 5.13793 0 11.5172C0 17.8966 5.13793 23.0345 11.5172 23.0345C17.8966 23.0345 23.0345 17.8966 23.0345 11.5172C23.0345 5.13793 17.8621 0 11.5172 0ZM13.8966 17.8276C13.3103 18.069 12.8276 18.2414 12.4828 18.3448C12.1379 18.4828 11.7241 18.5172 11.2414 18.5172C10.5172 18.5172 9.96552 18.3448 9.58621 18C9.17241 17.6552 9 17.2069 9 16.6552C9 16.4483 9 16.2414 9.03448 16C9.06896 15.7931 9.10345 15.5517 9.17241 15.2759L9.89655 12.6552C9.96552 12.4138 10.0345 12.1724 10.069 11.931C10.1034 11.7241 10.1379 11.5172 10.1379 11.3103C10.1379 10.9655 10.069 10.7586 9.93103 10.6207C9.7931 10.4828 9.51724 10.4138 9.13793 10.4138C8.93103 10.4138 8.75862 10.4483 8.55172 10.5172C8.34483 10.5862 8.17241 10.6207 8.03448 10.6897L8.24138 9.89655C8.72414 9.68965 9.2069 9.51724 9.62069 9.37931C10.069 9.24138 10.4828 9.17241 10.8621 9.17241C11.5862 9.17241 12.1379 9.34483 12.5172 9.68965C12.8966 10.0345 13.1034 10.4828 13.1034 11.0345C13.1034 11.1379 13.1034 11.3448 13.069 11.6207C13.0345 11.8966 13 12.1724 12.931 12.4138L12.2069 15.0345C12.1379 15.2414 12.1034 15.4828 12.0345 15.7586C12 16.0345 11.9655 16.2414 11.9655 16.3793C11.9655 16.7241 12.0345 16.9655 12.2069 17.1034C12.3448 17.2414 12.6207 17.2759 13 17.2759C13.1724 17.2759 13.3793 17.2414 13.6207 17.1724C13.8621 17.1034 14 17.069 14.1034 17L13.8966 17.8276ZM13.7586 7.24138C13.4138 7.55172 13 7.72414 12.5172 7.72414C12.0345 7.72414 11.6207 7.55172 11.2759 7.24138C10.931 6.93103 10.7586 6.51724 10.7586 6.06897C10.7586 5.62069 10.931 5.24138 11.2759 4.89655C11.6207 4.58621 12.0345 4.41379 12.5172 4.41379C13 4.41379 13.4138 4.58621 13.7586 4.89655C14.1034 5.2069 14.2759 5.62069 14.2759 6.06897C14.2759 6.51724 14.1034 6.93103 13.7586 7.24138Z"/>
</svg>
