<svg width="512" height="512" viewBox="0 0 512 512" fill="none" xmlns="http://www.w3.org/2000/svg">
<rect width="512" height="512" fill="#E8413A"/>
<path d="M454.9 328C453.05 326.35 427.75 317.15 407.3 310.5C407.3 308 407.3 305.05 407.4 301.7C407.5 298.25 407.7 294.4 408 289.8C408.95 276.15 411.5 257.4 414.25 244.35C415.95 236.35 417.15 233.15 418.75 230.2L419.2 229.25C421.25 227.2 405.6 222.2 401.1 222.85C399.25 223.1 388.5 242.65 378.35 259.95C371.35 271.85 364.65 282.7 361.45 285.55C361 285.95 360.6 286.2 360.3 286.2C359.65 286.2 359.15 285.7 358.85 284.8C356.75 276.65 360.45 257 363.2 244.55C363.6 242.8 363.95 241.2 364.3 239.8C365.2 236.1 366.8 231.2 367.85 230.1C367.85 230.1 368.4 229.45 368.4 229.4L368.45 229.35C370.4 227.15 350.15 220.35 348.05 223.75C345.15 228.7 342.7 236.5 340.8 244.8C337.2 260.35 335.5 277.7 336.5 281.3C338.6 288.2 364.6 300.4 368.45 295.85L369.25 294.95C373.35 289.8 381.5 273.2 390 254.45C390.45 253.4 390.95 252.4 391.4 251.4C389.15 270.75 388.65 278.25 388 286.15C387.9 287.2 387.7 290.65 387.45 295.35C387.3 298.5 387.1 302.25 386.95 306.55C377.55 305.75 359.4 306.45 345.95 312C332 317.75 315.6 338.15 309.65 356.05C305.85 367.45 305.2 376.95 308.7 386.15C312.9 397.15 319.1 404.75 330.25 408.5C330.5 408.55 330.75 408.65 331 408.75C357.2 416.65 385.6 384.2 394.65 364.05C401.1 349.9 404 332.7 405.7 325.4C409.25 326.4 410.4 326.65 418.15 329.95C431.15 335.45 443.95 344.35 446.55 346.35L446.75 346.5C449.35 348.85 452.55 347.65 454.2 344C455.9 340.3 458.45 331.4 454.9 328ZM368 365.2C352.55 388.25 334.4 384.6 329.55 380.85C324.4 376.7 324.3 372.25 325.65 364.5C329.3 343.65 340.55 332.55 354.1 324.85C363.5 319.5 380.8 320.1 385.95 320.8C384.9 328.2 380.7 346.25 368 365.2Z" fill="white"/>
<path d="M223.15 237.75C224.05 234.05 226.95 229.25 227.35 227.45C227.7 225.9 214.6 220.75 208.95 220.85C208 220.85 207.15 221.6 206.85 222C205.8 223.4 204.45 226.35 203.35 230.3C196.05 221.75 183.1 218.5 173 218.45C166.55 218.4 159.95 224.15 155.3 232.3C147.25 246.4 143.05 267.7 147.1 279.05C149.55 285.95 167.25 294.45 178.55 294.5C182 294.5 190.05 278.75 198 261.3C197.25 266.65 196.1 281.6 197.35 285C198.6 288.45 216.45 302.45 219.5 296.2C219.8 295.55 219.45 294.4 219.05 293.25C217.35 288.15 217.85 278.85 218.65 268.25C219.2 260.7 220.15 250.65 223.15 237.75ZM171.75 285.5C170.65 285.5 169.5 284.45 169.1 283.3C163.3 268.35 174.55 227.6 188.6 227.65C193.8 227.65 197.55 231.5 200.45 235.35C193.45 254.2 177.25 285.55 171.75 285.5Z" fill="white"/>
<path d="M335.3 254.75C335.9 245.85 334.95 237 332.15 232.3C329.45 227.85 316.65 220.65 308.15 220.6C304.85 220.6 297.95 223.75 289.4 236.45C286.85 240.4 284 245.6 281.4 251.45C283.9 235.15 288.05 217.15 289.8 211.05C290.85 207.35 298.4 174.6 298.75 172.8C299 171.6 286.6 166.5 280.95 166.6C280 166.6 279.05 167.35 278.75 167.85C277.1 169.9 275.25 176.15 273.85 181.5C273.15 184.15 271.75 190.9 270.1 199.15L259.7 198.85C260.9 195.1 262.55 190.45 262.8 189.05C263.05 187.85 250.65 182.75 245 182.85C244.05 182.85 243.1 183.6 242.8 184.1C241.15 186.15 239.3 192.4 237.9 197.75C237.85 197.9 237.8 198.05 237.8 198.2L197.95 197C195.35 198.25 191.3 211.8 198.15 211.25L235.75 209C235.6 209.7 235.45 210.45 235.3 211.2L233.8 218.85C232.65 224.45 229.7 239 229.05 242.95C225.25 265.75 224.7 281.95 225.7 284.75C227.1 288.2 242.1 302.3 245.05 295.8C246.95 291.65 245.85 283.05 246.6 270.15C247.25 258.8 252.3 231.55 255.15 217.5L256.45 211.4C256.75 209.95 257.05 208.75 257.25 207.75L268.65 207.05C265.7 222.4 262.6 239.7 261.75 245.15C257.95 267.95 257.7 281.85 258.7 284.65C260.1 288.1 273.7 301.7 276.3 295C278.1 290.4 278.65 281.55 279.8 276.85C282.45 266.15 290 250.75 295.9 241.35C301.45 232.55 308.9 228 310.9 229.15C313.55 230.8 313.65 241.3 312.75 251.1C311.4 263.6 308.35 286.9 292.05 286.6C289.35 286.6 285.45 286.2 283.9 285.8C282.4 285.55 279.7 285.55 280.8 287.2C284.4 292.7 289.95 295.4 295.65 296.7C302.15 298.15 307.7 297.05 311.9 296C326.35 292.4 334.05 273.75 335.3 254.75Z" fill="white"/>
<path d="M97.85 285.85C98.05 273.1 101.1 253.25 104.4 235.05C106.85 234.95 109.35 234.85 111.75 234.8L124.7 234.3C134.3 234.2 140.35 234.15 144.4 233.15C146.15 232.7 150.55 225.5 146.55 225.1C138.35 224.3 138.05 224.25 127.8 224.1L113.45 223.9C111.15 223.9 108.8 223.9 106.5 223.85L107.35 219.9C110.15 208.05 112.5 196.4 114.3 193C131.9 191.2 152.45 193.6 157.95 189.5C159.4 188.45 161.8 182 160.1 181.25C128.05 178.75 111.6 178 97.35 181.45C94.65 182.1 92.55 190.35 90.8 194.25C88.5 200.85 85.7 210.6 83.45 220.85L82.8 223.8H62.5C57.95 224.4 49.2 238.15 56.85 237.5L80.25 236.15C77.25 251.65 72.35 275.8 76.1 286.55C78.25 298.3 94.35 298.75 100.4 298.4C124.2 296.85 116.35 297.55 142.9 294.35C144.85 294.1 147.5 289.6 146.05 288.25C146.55 285.45 134.35 283.25 97.85 285.85Z" fill="white"/>
</svg>
