<svg width="10" height="15" viewBox="0 0 10 15"
    xmlns="http://www.w3.org/2000/svg">
    <g clip-path="url(#clip0)">
        <path d="M9.72654 6.61545L8.84691 2.58447C9.02284 2.38225 9.14012 2.00476 9.14012 1.57336C9.14012 0.899278 8.87037 0.386979 8.51852 0.386979H1.07099C0.719136 0.373497 0.461111 0.885796 0.461111 1.55987C0.461111 2.23395 0.719136 2.74625 1.07099 2.74625H1.1179L0.285185 6.61545C0.261728 6.70983 0.25 6.8042 0.25 6.89857V14.3808C0.25 14.5156 0.343827 14.6235 0.461111 14.6235H9.55062C9.6679 14.6235 9.76173 14.5156 9.76173 14.3808V6.89857C9.75 6.8042 9.73827 6.70983 9.72654 6.61545ZM9.33951 6.89857V13.8011L8.7179 13.0866V7.26257C8.7179 7.12775 8.62407 7.0199 8.50679 7.0199C8.38951 7.0199 8.29568 7.12775 8.29568 7.26257V13.1001L7.67407 13.8146V6.89857C7.67407 6.84464 7.6858 6.77723 7.69753 6.72331L8.50679 3.01588L9.31605 6.72331C9.32778 6.79071 9.33951 6.84464 9.33951 6.89857ZM8.50679 13.5315L9.0463 14.1516H7.97901L8.50679 13.5315ZM8.7179 1.55987C8.7179 2.01825 8.56543 2.2744 8.50679 2.2744C8.45988 2.2744 8.29568 2.01825 8.29568 1.55987C8.29568 1.1015 8.44815 0.845351 8.50679 0.845351C8.56543 0.845351 8.7179 1.1015 8.7179 1.55987ZM0.871605 1.55987C0.871605 1.07454 1.0358 0.845351 1.08272 0.845351H8.0142C7.9321 1.07454 7.89691 1.31721 7.89691 1.55987C7.89691 1.80254 7.9321 2.04521 8.0142 2.2744H1.07099C1.0358 2.2744 0.871605 2.04521 0.871605 1.55987ZM0.660494 6.89857C0.660494 6.84464 0.672222 6.77723 0.683951 6.72331L1.55185 2.74625H8.15494L7.31049 6.61545C7.28704 6.70983 7.27531 6.8042 7.27531 6.89857V14.1382H0.660494V6.89857Z"/>
    </g>
    <defs>
        <clipPath id="clip0">
            <rect width="9.5" height="14.25" fill="white" transform="translate(0.25 0.375)"/>
        </clipPath>
    </defs>
</svg>
