<!-- <svg width="28" height="38" viewBox="0 0 28 38" fill="none" xmlns="http://www.w3.org/2000/svg">
<g clip-path="url(#clip0)">
<path d="M27.9309 16.6452L25.3383 5.89595C25.8568 5.35669 26.2025 4.35007 26.2025 3.19964C26.2025 1.4021 25.4074 0.0359717 24.3704 0.0359717H2.41975C1.38272 2.09324e-05 0.622222 1.36615 0.622222 3.16369C0.622222 4.96123 1.38272 6.32736 2.41975 6.32736H2.55802L0.103704 16.6452C0.0345679 16.8969 0 17.1486 0 17.4002V37.3529C0 37.7124 0.276543 38 0.622222 38H27.4123C27.758 38 28.0346 37.7124 28.0346 37.3529V17.4002C28 17.1486 27.9654 16.8969 27.9309 16.6452ZM26.7901 17.4002V35.807L24.958 33.9016V18.3709C24.958 18.0114 24.6815 17.7238 24.3358 17.7238C23.9901 17.7238 23.7136 18.0114 23.7136 18.3709V33.9376L21.8815 35.843V17.4002C21.8815 17.2564 21.916 17.0767 21.9506 16.9328L24.3358 7.04638L26.721 16.9328C26.7556 17.1126 26.7901 17.2564 26.7901 17.4002ZM24.3358 35.088L25.9259 36.7417H22.7802L24.3358 35.088ZM24.958 3.16369C24.958 4.38602 24.5086 5.06908 24.3358 5.06908C24.1975 5.06908 23.7136 4.38602 23.7136 3.16369C23.7136 1.94136 24.163 1.2583 24.3358 1.2583C24.5086 1.2583 24.958 1.94136 24.958 3.16369ZM1.8321 3.16369C1.8321 1.86946 2.31605 1.2583 2.45432 1.2583H22.8839C22.642 1.86946 22.5383 2.51658 22.5383 3.16369C22.5383 3.81081 22.642 4.45792 22.8839 5.06908H2.41975C2.31605 5.06908 1.8321 4.45792 1.8321 3.16369ZM1.20988 17.4002C1.20988 17.2564 1.24444 17.0767 1.27901 16.9328L3.83704 6.32736H23.2988L20.8099 16.6452C20.7407 16.8969 20.7062 17.1486 20.7062 17.4002V36.7058H1.20988V17.4002Z" fill="#212121"/>
<path d="M10.3358 16.4655C9.99012 16.4655 9.71357 16.7531 9.71357 17.1126V19.018H8.5037V17.1126C8.5037 16.7531 8.22715 16.4655 7.88147 16.4655C7.53579 16.4655 7.25925 16.7531 7.25925 17.1126V19.018H6.04938V17.1126C6.04938 16.7531 5.77283 16.4655 5.42715 16.4655C5.08147 16.4655 4.80493 16.7531 4.80493 17.1126V19.6291C4.80493 19.737 4.8395 19.8089 4.87407 19.9167L6.01481 22.2895L5.49629 32.14C5.42715 33.1826 6.18765 34.0813 7.19012 34.1532C7.22468 34.1532 7.25925 34.1532 7.32839 34.1532H8.36542C9.36789 34.1532 10.1975 33.2904 10.1975 32.2479C10.1975 32.2119 10.1975 32.176 10.1975 32.1041L9.74814 22.2895L10.8889 19.9167C10.9234 19.8448 10.958 19.737 10.958 19.6291V17.1126C10.958 16.7531 10.6815 16.4655 10.3358 16.4655ZM9.36789 20.2762L8.74567 21.5345H7.05184L6.42962 20.2762H9.36789ZM8.88394 32.7152C8.78024 32.859 8.6074 32.9309 8.43456 32.9309H7.39752C7.05184 32.9309 6.7753 32.6433 6.7753 32.2838V32.2479L7.25925 22.7928H8.53826L9.02221 32.2479C9.05678 32.4276 8.98765 32.6074 8.88394 32.7152Z" fill="#212121"/>
<path d="M16.9037 32.1041L16.4197 24.6622V17.1126C16.4197 16.7531 16.1432 16.4655 15.7975 16.4655C12.0987 16.4655 11.5802 23.0804 11.5802 23.368C11.5456 23.6197 11.6839 23.8713 11.9259 23.9792L12.7901 24.4465V24.6622L12.3061 32.1041C12.2024 33.1466 12.9629 34.0814 13.9654 34.1892C14.0345 34.1892 14.0691 34.1892 14.1382 34.1892H15.1061C16.1086 34.1892 16.9382 33.3264 16.9382 32.2838C16.9037 32.2479 16.9037 32.176 16.9037 32.1041ZM13.3777 20.456C13.8617 19.018 14.4493 18.1551 15.2098 17.8675V24.087H14C14 23.8354 13.8617 23.6197 13.6543 23.5118L12.8247 23.0804C12.9284 22.1816 13.1358 21.2829 13.3777 20.456ZM15.5555 32.7152C15.4518 32.859 15.279 32.9309 15.1061 32.9309H14.1382C13.7926 32.9309 13.516 32.6433 13.516 32.2838C13.516 32.2479 13.516 32.2479 13.516 32.2119C13.516 32.2119 13.516 32.2119 13.516 32.176L13.9654 25.3094H15.2444L15.6938 32.176C15.6938 32.176 15.6938 32.176 15.6938 32.2119C15.7284 32.3917 15.6592 32.5714 15.5555 32.7152Z" fill="#212121"/>
</g>
<defs>
<clipPath id="clip0">
<rect width="28" height="38" fill="white"/>
</clipPath>
</defs>
</svg> -->

<?xml version="1.0" encoding="utf-8"?>
<!-- Generator: Adobe Illustrator 23.0.6, SVG Export Plug-In . SVG Version: 6.00 Build 0)  -->
<svg version="1.1" id="Ebene_1"
    xmlns="http://www.w3.org/2000/svg"
    xmlns:xlink="http://www.w3.org/1999/xlink" x="0px" y="0px" viewBox="0 0 36 48" style="enable-background:new 0 0 36 48;" xml:space="preserve">
    <style type="text/css">
	.st0{clip-path:url(#SVGID_2_);}
    </style>
    <g>
        <defs>
            <rect id="SVGID_1_" y="0" width="36" height="48"/>
        </defs>
        <clipPath id="SVGID_2_">
            <use xlink:href="#SVGID_1_" style="overflow:visible;"/>
        </clipPath>
        <g class="st0">
            <path class="st1" d="M35.9,21L32.6,7.4c0.7-0.7,1.1-2,1.1-3.4c0-2.3-1-4-2.4-4H3.1C1.8,0,0.8,1.7,0.8,4s1,4,2.3,4h0.2L0.1,21
			C0,21.3,0,21.7,0,22v25.2C0,47.6,0.4,48,0.8,48h34.4c0.4,0,0.8-0.4,0.8-0.8V22C36,21.7,36,21.3,35.9,21z M34.4,22v23.3l-2.4-2.4
			V23.2c0-0.5-0.4-0.8-0.8-0.8c-0.4,0-0.8,0.4-0.8,0.8v19.7l-2.4,2.4V22c0-0.2,0-0.4,0.1-0.6l3.1-12.5l3.1,12.5
			C34.4,21.6,34.4,21.8,34.4,22z M31.3,44.3l2,2.1h-4L31.3,44.3z M32.1,4c0,1.5-0.6,2.4-0.8,2.4c-0.2,0-0.8-0.9-0.8-2.4
			s0.6-2.4,0.8-2.4S32.1,2.5,32.1,4z M2.4,4c0-1.6,0.6-2.4,0.8-2.4h26.3C29.1,2.4,29,3.2,29,4s0.1,1.6,0.4,2.4H3.1
			C3,6.4,2.4,5.6,2.4,4z M1.6,22c0-0.2,0-0.4,0.1-0.6L4.9,8h25l-3.2,13c-0.1,0.3-0.1,0.6-0.1,1v24.4H1.6V22z"/>
        </g>
    </g>
    <path class="st1" d="M14,35.8c-5.1,0-9.1-2.6-9.1-6s4-6,9.1-6s9.1,2.6,9.1,6S19.1,35.8,14,35.8z M14,25.8c-3.9,0-7.1,1.8-7.1,4
	s3.3,4,7.1,4s7.1-1.8,7.1-4S17.8,25.8,14,25.8z"/>
</svg>
