<svg width="32" height="26" viewBox="0 0 32 26" xmlns="http://www.w3.org/2000/svg">
<path d="M8.40733 18.4369H22.1263C22.4521 18.4369 22.778 18.2097 22.8432 17.8851L25.8737 7.30336C25.9389 7.07615 25.9063 6.81647 25.7434 6.65417C25.613 6.45942 25.3849 6.36204 25.1242 6.36204H6.64766L6.12627 3.89512C6.0611 3.53807 5.73523 3.31085 5.37678 3.31085H0.749491C0.325866 3.31085 0 3.63545 0 4.05742C0 4.47939 0.325866 4.80399 0.749491 4.80399H4.75764L7.49491 17.1061C6.68024 17.4632 6.12627 18.2422 6.12627 19.1835C6.12627 20.4494 7.13646 21.4557 8.40733 21.4557H22.1263C22.5499 21.4557 22.8758 21.1311 22.8758 20.7091C22.8758 20.2871 22.5499 19.9625 22.1263 19.9625H8.40733C7.98371 19.9625 7.65784 19.6379 7.65784 19.216C7.65784 18.7615 7.98371 18.4369 8.40733 18.4369Z"/>
<path d="M7.65784 23.7278C7.65784 24.9938 8.66802 26 9.9389 26C11.2098 26 12.22 24.9938 12.22 23.7278C12.22 22.4619 11.2098 21.4557 9.9389 21.4557C8.66802 21.4557 7.65784 22.4619 7.65784 23.7278Z"/>
<path d="M18.3462 23.7278C18.3462 24.9938 19.3564 26 20.6273 26C21.8981 26 22.9083 24.9938 22.9083 23.7278C22.9083 22.4619 21.8981 21.4557 20.6273 21.4557C19.3564 21.4557 18.3462 22.4619 18.3462 23.7278Z"/>
</svg>
