<?xml version="1.0" encoding="UTF-8" standalone="no"?>
<svg width="13" height="13" viewBox="0 0 13 13"  xmlns="http://www.w3.org/2000/svg">
<path d="M10.5497 2.48428C9.49477 1.42931 7.82723 1.42931 6.77226 2.48428C6.73823 2.51832 6.7042 2.58638 6.67017 2.62041C6.73823 2.85863 6.87435 3.09685 7.04451 3.30104C7.48692 3.74345 8.16755 3.87957 8.74608 3.60732C8.84818 3.53926 8.9843 3.57329 9.0864 3.64135C9.18849 3.70942 9.25655 3.81151 9.25655 3.94764C9.29058 4.32198 9.42671 4.6623 9.69896 4.93455C10.0733 5.30889 10.6178 5.44502 11.0942 5.34292C11.5026 4.32198 11.2984 3.23298 10.5497 2.48428Z"/>
<path d="M9.18848 5.44502C8.91623 5.17277 8.71204 4.83246 8.60995 4.45811C7.86126 4.62827 7.0445 4.39005 6.5 3.84555C6.36387 3.70942 6.26178 3.57329 6.15969 3.40314L4.52618 7.48691C3.50524 10.0393 1.49738 11.4005 0.612565 11.9791C0.374346 12.1152 0.204188 12.2513 0.102094 12.3534C0.0340314 12.4215 0 12.5236 0 12.6597C0 12.8298 0.136126 12.966 0.306283 13C0.306283 13 0.306283 13 0.340314 13C0.918848 13 7.6911 12.5576 10.7539 6.12565C10.2094 6.09162 9.63089 5.88743 9.18848 5.44502Z"/>
<path d="M12.966 0.272219C12.8979 0.0680308 12.6937 -0.0340634 12.4895 0.0339994C11.7749 0.272219 10.9241 0.918816 10.3796 1.42929C10.5838 1.56541 10.822 1.70154 10.9921 1.90573C11.4346 1.49735 12.1492 0.952848 12.7277 0.748659C12.9319 0.680596 13.034 0.476408 12.966 0.272219Z"/>
</svg>
