<svg width="15" height="15" viewBox="0 0 15 15"
    xmlns="http://www.w3.org/2000/svg">
    <g clip-path="url(#clip0)">
        <path d="M9.66372 8.7583L7.67688 7.26817V4.23276C7.67688 3.92755 7.43017 3.68085 7.12497 3.68085C6.81976 3.68085 6.57306 3.92755 6.57306 4.23276V7.54416C6.57306 7.718 6.65475 7.88193 6.79382 7.98568L9.00141 9.64138C9.10074 9.71589 9.21666 9.75177 9.33199 9.75177C9.50032 9.75177 9.6659 9.67615 9.77408 9.53045C9.95735 9.28703 9.90767 8.94099 9.66372 8.7583Z"/>
        <path d="M7.125 0.375C3.19604 0.375 0 3.57104 0 7.5C0 11.429 3.19604 14.625 7.125 14.625C11.054 14.625 14.25 11.429 14.25 7.5C14.25 3.57104 11.054 0.375 7.125 0.375ZM7.125 13.5212C3.80533 13.5212 1.10379 10.8197 1.10379 7.5C1.10379 4.18033 3.80533 1.47879 7.125 1.47879C10.4452 1.47879 13.1462 4.18033 13.1462 7.5C13.1462 10.8197 10.4447 13.5212 7.125 13.5212Z"/>
    </g>
    <defs>
        <clipPath id="clip0">
            <rect y="0.375" width="14.25" height="14.25" rx="7.125" fill="white"/>
        </clipPath>
    </defs>
</svg>
