<svg width="16" height="19" viewBox="0 0 16 19"  xmlns="http://www.w3.org/2000/svg">
<g clip-path="url(#clip0)">
<path d="M10.7057 6.88857C10.4424 6.88857 10.2377 7.08619 10.2377 7.34027V15.7533C10.2377 16.0074 10.4424 16.2051 10.7057 16.2051C10.9689 16.2051 11.1737 16.0074 11.1737 15.7533V7.34027C11.1737 7.08619 10.9689 6.88857 10.7057 6.88857Z" />
<path d="M5.26513 6.88857C5.00187 6.88857 4.79712 7.08619 4.79712 7.34027V15.7533C4.79712 16.0074 5.00187 16.2051 5.26513 16.2051C5.52838 16.2051 5.73313 16.0074 5.73313 15.7533V7.34027C5.73313 7.08619 5.52838 6.88857 5.26513 6.88857Z" />
<path d="M1.31633 5.64636V16.6003C1.31633 17.2496 1.55033 17.8707 1.98909 18.2942C2.42784 18.7459 3.01285 18.9718 3.62711 18.9718H12.3437C12.958 18.9718 13.5723 18.7177 13.9818 18.2942C14.4205 17.8707 14.6545 17.2496 14.6545 16.6003V5.64636C15.5028 5.42051 16.0586 4.63001 15.9416 3.78306C15.8246 2.93611 15.0933 2.31501 14.1865 2.31501H11.8172V1.75037C11.8172 1.27043 11.6417 0.846954 11.2907 0.508172C10.9982 0.169391 10.5302 0 10.033 0H5.9379C5.44064 0 4.97263 0.169391 4.65088 0.508172C4.29987 0.846954 4.12437 1.29866 4.12437 1.75037V2.31501H1.75508C0.877569 2.31501 0.117058 2.93611 5.58477e-05 3.78306C-0.0876955 4.63001 0.468063 5.44874 1.31633 5.64636ZM12.3437 18.1248H3.62711C2.83735 18.1248 2.22309 17.4755 2.22309 16.6285V5.70282H13.7478V16.6285C13.7478 17.4473 13.1335 18.1248 12.3437 18.1248ZM5.03113 1.75037C5.03113 1.52452 5.11889 1.29866 5.29439 1.12927C5.46989 0.959881 5.70389 0.875186 5.9379 0.875186H10.033C10.267 0.875186 10.501 0.959881 10.6765 1.12927C10.852 1.29866 10.9397 1.52452 10.9397 1.75037V2.31501H5.03113V1.75037ZM1.75508 3.19019H14.2158C14.6838 3.19019 15.0348 3.55721 15.0348 3.98068C15.0348 4.40416 14.6838 4.79941 14.2158 4.79941H1.75508C1.28708 4.79941 0.93607 4.43239 0.93607 4.00891C0.93607 3.58544 1.31633 3.19019 1.75508 3.19019Z" />
<path d="M7.98534 6.88857C7.72209 6.88857 7.51733 7.08619 7.51733 7.34027V15.7533C7.51733 16.0074 7.72209 16.2051 7.98534 16.2051C8.2486 16.2051 8.45335 16.0074 8.45335 15.7533V7.34027C8.45335 7.08619 8.2486 6.88857 7.98534 6.88857Z" />
</g>
<defs>
<clipPath id="clip0">
<rect width="16" height="19" fill="white"/>
</clipPath>
</defs>
</svg>
