<svg width="15" height="10" viewBox="0 0 15 10"
    xmlns="http://www.w3.org/2000/svg">
    <g clip-path="url(#clip0)">
        <path d="M15.0001 1.84149V8.15851L9.92798 5.08158L15.0001 1.84149Z" />
        <path d="M5.04808 5.08158L0 8.15851V1.84149L5.04808 5.08158Z" />
        <path d="M14.9521 0.769231C14.8799 0.32634 14.5194 0 14.0626 0H0.937631C0.480901 0 0.0962853 0.32634 0.0241699 0.769231L7.50013 5.54779L14.9521 0.769231Z" />
        <path d="M7.74052 6.45687C7.6684 6.50349 7.57225 6.5268 7.47609 6.5268C7.37994 6.5268 7.30782 6.50349 7.21167 6.45687L5.88955 5.61771L0.0241699 9.23076C0.0962853 9.67365 0.456862 9.99999 0.937632 9.99999H14.0626C14.5194 9.99999 14.904 9.67365 14.9761 9.23076L9.08667 5.61771L7.74052 6.45687Z" />
    </g>
    <defs>
        <clipPath id="clip0">
            <rect width="15" height="10" fill="white"/>
        </clipPath>
    </defs>
</svg>
