<svg width="14" height="17" viewBox="0 0 14 17" fill="none" xmlns="http://www.w3.org/2000/svg">
<g clip-path="url(#clip0_760_204)">
<path d="M1.59422 2.67651H11.9974C12.609 2.67651 13.1067 3.34679 13.1067 4.17065V12.8294C13.1067 13.6533 12.609 14.3236 11.9974 14.3236H1.59422C0.98253 14.3236 0.48488 13.6533 0.48488 12.8294V4.17065C0.48488 3.34679 0.98253 2.67651 1.59422 2.67651ZM1.739 3.67261L1.88706 3.83866L6.35565 8.85037C6.6107 9.13638 6.98092 9.13638 7.23592 8.85037L11.7045 3.83866L11.8526 3.67261H1.739ZM12.3671 4.39172L8.72623 8.47514L12.3671 11.7388V4.39172ZM1.59422 13.3275H11.9974C12.176 13.3275 12.3255 13.1559 12.3597 12.9287L8.13325 9.14017L7.70914 9.61583C7.44453 9.9126 7.12013 10.061 6.79576 10.061C6.47139 10.061 6.14702 9.9126 5.88238 9.61583L5.45827 9.14017L1.23183 12.9286C1.2661 13.1559 1.41554 13.3275 1.59422 13.3275ZM1.22444 11.7388L4.86534 8.47517L1.22444 4.39172V11.7388Z" fill="#000842"/>
</g>
<defs>
<clipPath id="clip0_760_204">
<rect width="12.6218" height="17" fill="white" transform="matrix(-1 0 0 1 13.1067 0)"/>
</clipPath>
</defs>
</svg>
