<svg width="16" height="15" viewBox="0 0 16 15" fill="none" xmlns="http://www.w3.org/2000/svg">
<path d="M16 7.51282C16 3.35897 12.4171 0 8.01368 0C3.61026 0 0 3.35897 0 7.51282C0 11.6667 3.58291 15.0256 8.01368 15.0256C8.06838 15.0256 8.09573 15.0256 8.15043 15.0256V9.15385H6.42735V7.28205H8.15043V5.89744C8.15043 4.28205 9.18974 3.41026 10.7214 3.41026C11.4598 3.41026 12.0889 3.46154 12.253 3.48718V5.15385H11.2137C10.3932 5.15385 10.2291 5.51282 10.2291 6.07692V7.28205H12.2256L11.9795 9.15385H10.2564V14.718C13.5658 13.8205 16 10.9231 16 7.51282Z" fill="white"/>
</svg>
