<svg width="18" height="17" viewBox="0 0 18 17"
    xmlns="http://www.w3.org/2000/svg">
    <path d="M12.7778 1.44446C12.5589 1.44446 12.3422 1.48757 12.14 1.57133C11.9378 1.65509 11.754 1.77785 11.5993 1.93262C11.4445 2.08738 11.3217 2.27111 11.238 2.47332C11.1542 2.67553 11.1111 2.89226 11.1111 3.11113C11.1111 3.33 11.1542 3.54673 11.238 3.74893C11.3217 3.95114 11.4445 4.13488 11.5993 4.28964C11.754 4.44441 11.9378 4.56717 12.14 4.65093C12.3422 4.73469 12.5589 4.7778 12.7778 4.7778C13.2198 4.7778 13.6437 4.6022 13.9563 4.28964C14.2689 3.97708 14.4444 3.55316 14.4444 3.11113C14.4444 2.6691 14.2689 2.24518 13.9563 1.93262C13.6437 1.62006 13.2198 1.44446 12.7778 1.44446ZM10.0556 2.55557C10.1831 1.92764 10.5237 1.36309 11.0199 0.957586C11.516 0.552084 12.137 0.330566 12.7778 0.330566C13.4185 0.330566 14.0396 0.552084 14.5357 0.957586C15.0318 1.36309 15.3725 1.92764 15.5 2.55557H17.7778V3.66668H15.5C15.3725 4.29462 15.0318 4.85917 14.5357 5.26467C14.0396 5.67017 13.4185 5.89169 12.7778 5.89169C12.137 5.89169 11.516 5.67017 11.0199 5.26467C10.5237 4.85917 10.1831 4.29462 10.0556 3.66668H0V2.55557H10.0556ZM5 7.00002C4.55797 7.00002 4.13405 7.17561 3.82149 7.48817C3.50893 7.80073 3.33333 8.22466 3.33333 8.66669C3.33333 9.10871 3.50893 9.53264 3.82149 9.8452C4.13405 10.1578 4.55797 10.3334 5 10.3334C5.44203 10.3334 5.86595 10.1578 6.17851 9.8452C6.49107 9.53264 6.66667 9.10871 6.66667 8.66669C6.66667 8.22466 6.49107 7.80073 6.17851 7.48817C5.86595 7.17561 5.44203 7.00002 5 7.00002ZM2.27778 8.11113C2.40529 7.48319 2.74596 6.91864 3.24208 6.51314C3.7382 6.10764 4.35925 5.88612 5 5.88612C5.64075 5.88612 6.2618 6.10764 6.75792 6.51314C7.25404 6.91864 7.59471 7.48319 7.72222 8.11113H17.7778V9.22224H7.72222C7.59471 9.85018 7.25404 10.4147 6.75792 10.8202C6.2618 11.2257 5.64075 11.4472 5 11.4472C4.35925 11.4472 3.7382 11.2257 3.24208 10.8202C2.74596 10.4147 2.40529 9.85018 2.27778 9.22224H0V8.11113H2.27778ZM12.7778 12.5556C12.3358 12.5556 11.9118 12.7312 11.5993 13.0437C11.2867 13.3563 11.1111 13.7802 11.1111 14.2222C11.1111 14.6643 11.2867 15.0882 11.5993 15.4008C11.9118 15.7133 12.3358 15.8889 12.7778 15.8889C13.2198 15.8889 13.6437 15.7133 13.9563 15.4008C14.2689 15.0882 14.4444 14.6643 14.4444 14.2222C14.4444 13.7802 14.2689 13.3563 13.9563 13.0437C13.6437 12.7312 13.2198 12.5556 12.7778 12.5556ZM10.0556 13.6667C10.1831 13.0387 10.5237 12.4742 11.0199 12.0687C11.516 11.6632 12.137 11.4417 12.7778 11.4417C13.4185 11.4417 14.0396 11.6632 14.5357 12.0687C15.0318 12.4742 15.3725 13.0387 15.5 13.6667H17.7778V14.7778H15.5C15.3725 15.4057 15.0318 15.9703 14.5357 16.3758C14.0396 16.7813 13.4185 17.0028 12.7778 17.0028C12.137 17.0028 11.516 16.7813 11.0199 16.3758C10.5237 15.9703 10.1831 15.4057 10.0556 14.7778H0V13.6667H10.0556Z"/>
</svg>
