<svg width="12" height="12" viewBox="0 0 12 12" fill="none" xmlns="http://www.w3.org/2000/svg">
<g clip-path="url(#clip0)">
<path d="M2.65945 7.25176L2.24175 8.8111L0.715055 8.8434C0.258797 7.99714 0 7.02891 0 6.00001C0 5.00506 0.241969 4.06681 0.670875 3.24066H0.671203L2.03039 3.48985L2.6258 4.84088C2.50118 5.20419 2.43326 5.59419 2.43326 6.00001C2.4333 6.44044 2.51309 6.86244 2.65945 7.25176Z" fill="#FBBB00"/>
<path d="M11.8951 4.87912C11.964 5.24207 11.9999 5.61691 11.9999 6C11.9999 6.42956 11.9548 6.84857 11.8687 7.25275C11.5766 8.62814 10.8135 9.82912 9.75621 10.679L9.75588 10.6787L8.04391 10.5913L7.80162 9.07879C8.50315 8.66737 9.0514 8.02352 9.3402 7.25275H6.13184V4.87912H9.387H11.8951Z" fill="#518EF8"/>
<path d="M9.75596 10.6787L9.75629 10.679C8.72806 11.5055 7.42189 12 6.00003 12C3.71509 12 1.7285 10.7229 0.715088 8.84341L2.65949 7.25177C3.16618 8.60407 4.47069 9.56672 6.00003 9.56672C6.65738 9.56672 7.27323 9.38901 7.80167 9.07879L9.75596 10.6787Z" fill="#28B446"/>
<path d="M9.8298 1.38131L7.88606 2.97262C7.33915 2.63077 6.69265 2.43328 6.00002 2.43328C4.43606 2.43328 3.10716 3.44009 2.62584 4.84087L0.671227 3.24066H0.670898C1.66948 1.31538 3.68112 0 6.00002 0C7.45584 0 8.79068 0.518578 9.8298 1.38131Z" fill="#F14336"/>
</g>
<defs>
<clipPath id="clip0">
<rect width="12" height="12" fill="white"/>
</clipPath>
</defs>
</svg>
