<?xml version="1.0" encoding="UTF-8" standalone="no"?>
<svg width="28" height="24" viewBox="0 0 28 24"  xmlns="http://www.w3.org/2000/svg">
<path d="M25.7105 2.3565C24.2466 0.833837 22.2574 0 20.118 0C18.504 0 17.0402 0.507553 15.7265 1.45015C15.0885 1.9577 14.4879 2.53776 13.9625 3.22659C13.437 2.53776 12.8365 1.92145 12.1984 1.45015C10.8847 0.507553 9.42091 0 7.80697 0C5.63003 0 3.64075 0.833837 2.21448 2.3565C0.788204 3.8429 0 5.87311 0 8.12085C0 10.4048 0.863271 12.4713 2.77748 14.6828C4.46649 16.6405 6.90617 18.6344 9.72118 20.9547C10.6971 21.7523 11.7855 22.6586 12.9115 23.6012C13.2118 23.855 13.5871 24 14 24C14.4129 24 14.7882 23.855 15.0885 23.6012C16.2145 22.6586 17.3029 21.7523 18.2788 20.9547C21.0938 18.6344 23.5335 16.6405 25.2225 14.6828C27.0992 12.4713 28 10.4048 28 8.12085C27.9249 5.87311 27.1367 3.8429 25.7105 2.3565Z"/>
</svg>
