<?xml version="1.0" encoding="UTF-8" standalone="no"?>
<svg width="24" height="24" viewBox="0 0 24 24"
    xmlns="http://www.w3.org/2000/svg">
    <g>
        <path d="M5 0H1C0.448 0 0 0.448 0 1V5C0 5.552 0.448 6 1 6H5C5.552 6 6 5.552 6 5V1C6 0.448 5.552 0 5 0Z"/>
        <path d="M23 0H9C8.448 0 8 0.448 8 1V5C8 5.552 8.448 6 9 6H23C23.552 6 24 5.552 24 5V1C24 0.448 23.552 0 23 0Z"/>
        <path d="M5 9H1C0.448 9 0 9.448 0 10V14C0 14.552 0.448 15 1 15H5C5.552 15 6 14.552 6 14V10C6 9.448 5.552 9 5 9Z"/>
        <path d="M23 9H9C8.448 9 8 9.448 8 10V14C8 14.552 8.448 15 9 15H23C23.552 15 24 14.552 24 14V10C24 9.448 23.552 9 23 9Z"/>
        <path d="M5 18H1C0.448 18 0 18.448 0 19V23C0 23.552 0.448 24 1 24H5C5.552 24 6 23.552 6 23V19C6 18.448 5.552 18 5 18Z"/>
        <path d="M23 18H9C8.448 18 8 18.448 8 19V23C8 23.552 8.448 24 9 24H23C23.552 24 24 23.552 24 23V19C24 18.448 23.552 18 23 18Z"/>
    </g>
</svg>
