<?xml version="1.0" encoding="UTF-8" standalone="no"?>
<svg width="19" height="25" viewBox="0 0 19 25"  xmlns="http://www.w3.org/2000/svg">
<path d="M9.5 0C4.23846 0 0 3.91892 0 8.78378C0 10.4054 0.511538 12.027 1.38846 13.3784L8.91538 24.5946C9.06154 24.7973 9.28077 24.9324 9.57308 24.9324C9.86538 24.9324 10.0846 24.7973 10.2308 24.5946L17.6115 13.2432C18.4885 11.8919 18.9269 10.3378 18.9269 8.71622C19 3.91892 14.7615 0 9.5 0ZM16.2962 12.5676L9.64615 22.9054L2.77692 12.6351C1.97308 11.4865 1.60769 10.1351 1.60769 8.78378C1.60769 4.72973 5.11538 1.48649 9.5 1.48649C13.8846 1.48649 17.4654 4.72973 17.4654 8.78378C17.4654 10.1351 17.0269 11.4189 16.2962 12.5676Z"/>
<path d="M9.5 4.39197C6.86923 4.39197 4.75 6.35143 4.75 8.78386C4.75 11.2163 6.86923 13.1758 9.5 13.1758C12.2038 13.1758 14.25 11.1487 14.25 8.78386C14.25 6.35143 12.1308 4.39197 9.5 4.39197ZM9.5 11.7568C7.74615 11.7568 6.28462 10.4055 6.28462 8.78386C6.28462 7.16224 7.74615 5.81089 9.5 5.81089C11.2538 5.81089 12.6423 7.16224 12.6423 8.78386C12.7154 10.4055 11.2538 11.7568 9.5 11.7568Z"/>
</svg>
