<svg width="19" height="17" viewBox="0 0 19 17" fill="none" xmlns="http://www.w3.org/2000/svg">
<path d="M14.0035 7.2296V4.53742C14.0113 3.31927 13.4873 2.14798 12.552 1.29383C11.6476 0.457706 10.4639 0 9.21024 0C9.19083 0 9.16755 0 9.14814 0C6.47398 0.00360399 4.3005 2.03625 4.3005 4.53742V7.2296C3.29139 7.34132 2.55396 8.12699 2.55396 9.07844V15.1259C2.55396 16.1531 3.43887 17 4.54502 17H13.7629C14.8691 17 15.754 16.1531 15.754 15.1259V9.07844C15.7501 8.13059 15.0127 7.34132 14.0035 7.2296ZM5.07286 4.53742H5.07674C5.07674 2.43269 6.9048 0.709985 9.15202 0.709985H9.1559C10.2232 0.706381 11.2479 1.09922 12.0047 1.79839C12.7926 2.52279 13.2312 3.51028 13.2234 4.53742V7.2332H12.3695V4.53742C12.3773 3.71931 12.028 2.93364 11.4031 2.35701C10.8132 1.8092 10.0136 1.49926 9.17919 1.49926H9.1559C7.37054 1.49926 5.92673 2.86156 5.92673 4.53381V7.2332H5.07286V4.53742ZM11.5972 4.53742V7.2332H6.70685V4.53742C6.70685 3.26161 7.80136 2.22366 9.15978 2.22366H9.18307C9.81183 2.22366 10.4173 2.45792 10.8636 2.87238C11.3371 3.31206 11.6049 3.91393 11.5972 4.53742ZM15.0127 15.1367C15.0127 15.7674 14.4615 16.2792 13.7823 16.2792H4.56054C3.88133 16.2792 3.3302 15.7674 3.3302 15.1367V9.09646C3.3302 8.46576 3.88133 7.954 4.56054 7.954H13.7823C14.4615 7.954 15.0127 8.46576 15.0127 9.09646V15.1367Z" fill="#000842"/>
<path d="M10.4948 11.8933C10.324 11.3347 9.77673 10.9526 9.15185 10.9526C8.37949 10.9526 7.75073 11.5329 7.75073 12.2537C7.75073 12.8339 8.16214 13.3421 8.76373 13.5007V14.5098C8.76373 14.708 8.93838 14.8702 9.15185 14.8702C9.36532 14.8702 9.53997 14.708 9.53997 14.5098V13.5007C10.2813 13.3024 10.7121 12.5816 10.4948 11.8933ZM9.15185 12.8303C8.80642 12.8303 8.52698 12.5708 8.52698 12.2501C8.52698 11.9293 8.80642 11.6698 9.15185 11.6698C9.49728 11.6698 9.77673 11.9293 9.77673 12.2501C9.77673 12.5708 9.49728 12.8303 9.15185 12.8303Z" fill="#000842"/>
</svg>
