<?xml version="1.0" encoding="UTF-8" standalone="no"?>
<svg width="14" height="14" viewBox="0 0 14 14"  xmlns="http://www.w3.org/2000/svg">
<g clip-path="url(#clip0)">
<path d="M6.97676 1.18602H1.74418C1.42324 1.18602 1.16279 1.4465 1.16279 1.7674V12.2325C1.16279 12.5535 1.42327 12.8139 1.74418 12.8139H6.97676C7.29827 12.8139 7.55814 13.0738 7.55814 13.3953C7.55814 13.7168 7.29827 13.9767 6.97676 13.9767H1.74418C0.782551 13.9767 0 13.1942 0 12.2325V1.76743C0 0.805807 0.782551 0.0232573 1.74418 0.0232573H6.97676C7.29827 0.0232573 7.55814 0.283132 7.55814 0.60464C7.55814 0.926147 7.29827 1.18602 6.97676 1.18602Z"/>
<path d="M13.8268 7.41394L10.2919 10.9023C10.064 11.1279 9.69543 11.125 9.46984 10.8965C9.24426 10.668 9.24658 10.3 9.47567 10.0744L12.0018 7.5814H5.23263C4.91112 7.5814 4.65125 7.32152 4.65125 7.00001C4.65125 6.67851 4.91112 6.4186 5.23263 6.4186H12.0018L9.47567 3.92559C9.24661 3.70001 9.24486 3.33199 9.46984 3.1035C9.58378 2.98839 9.73379 2.93025 9.8838 2.93025C10.0315 2.93025 10.1791 2.98606 10.2919 3.09771L13.8268 6.58608C13.9373 6.69538 14.0001 6.84424 14.0001 7.00004C14.0001 7.15579 13.9379 7.30405 13.8268 7.41394Z"/>
</g>
<defs>
<clipPath id="clip0">
<rect width="14" height="14" fill="white" transform="matrix(1 0 0 -1 0 14)"/>
</clipPath>
</defs>
</svg>
