<svg width="94" height="89" viewBox="0 0 94 89" fill="none"
    xmlns="http://www.w3.org/2000/svg">
    <g clip-path="url(#clip0)">
        <path d="M84.9532 41.3987H46.2849L72.5802 14.8625L72.591 14.8516C65.2127 7.67698 55.2017 3.2652 44.1505 3.2652C21.5606 3.2652 3.23949 21.7313 3.23949 44.5C3.23949 67.2797 21.5606 85.7349 44.1505 85.7349C66.7404 85.7349 85.0615 67.2688 85.0615 44.5C85.0615 43.4517 85.029 42.4252 84.9532 41.3987Z" fill="white"/>
        <path d="M44.1505 84.1841C33.6302 84.1841 23.7492 80.0563 16.3059 72.565C8.87344 65.0737 4.76717 55.1035 4.76717 44.5C4.76717 33.8964 8.86261 23.9371 16.3059 16.4349C23.7384 8.94365 33.6302 4.8158 44.1505 4.8158C53.9016 4.8158 64.1835 9.52242 71.4101 16.0309L46.2741 41.3986H83.5339C83.5555 41.9228 83.523 43.9867 83.523 44.5C83.523 55.1035 79.4276 65.0628 71.9843 72.565C64.5627 80.0563 54.6708 84.1841 44.1505 84.1841Z" fill="#202020"/>
        <path d="M72.3635 32.4986C71.3234 32.4986 70.4783 33.3504 70.4783 34.3987C70.4783 35.4471 71.3234 36.2988 72.3635 36.2988C73.4037 36.2988 74.2487 35.4471 74.2487 34.3987C74.2487 33.3504 73.4037 32.4986 72.3635 32.4986Z" fill="white"/>
        <path d="M77.2065 24.8763C77.2065 23.2601 75.9064 21.9606 74.3137 21.9606C72.7102 21.9606 71.4209 23.271 71.4209 24.8763C71.4209 26.4925 72.7211 27.792 74.3137 27.792C75.9064 27.792 77.2065 26.4925 77.2065 24.8763Z" fill="white"/>
        <path d="M60.4781 34.1039C59.438 34.1039 58.5929 34.9557 58.5929 36.004C58.5929 37.0524 59.438 37.9042 60.4781 37.9042C61.5182 37.9042 62.3633 37.0524 62.3633 36.004C62.3633 34.9557 61.5182 34.1039 60.4781 34.1039Z" fill="white"/>
        <path d="M65.4186 28.5783C63.7285 28.5783 62.3525 29.9652 62.3525 31.6687C62.3525 33.3723 63.7285 34.7592 65.4186 34.7592C67.1088 34.7592 68.4848 33.3723 68.4848 31.6687C68.4848 29.9543 67.1196 28.5783 65.4186 28.5783Z" fill="white"/>
        <path d="M93.9892 38.9307C93.1874 28.0979 88.4744 17.9529 80.7278 10.3634L78.42 12.6785C85.4191 19.5036 89.9913 28.7749 90.7605 39.171H94.0108L93.9892 38.9307Z" fill="#202020"/>
        <path d="M82.8513 30.6313C82.8188 30.5767 82.7971 30.533 82.7646 30.4784C82.6888 30.3583 82.6021 30.2382 82.5154 30.129C82.4613 30.0744 82.4179 30.0089 82.3638 29.9543C82.3096 29.8887 82.2446 29.8341 82.1904 29.7795C82.1362 29.7359 82.0821 29.6813 82.0279 29.6376C81.9087 29.5393 81.7787 29.441 81.6379 29.3646C81.562 29.31 81.4753 29.2663 81.3887 29.2226C81.3562 29.2008 81.3237 29.1898 81.2911 29.1789C81.0961 29.0916 80.9011 29.0151 80.6844 28.9605C80.4027 28.8841 80.0994 28.8513 79.796 28.8513C79.4926 28.8513 79.1893 28.895 78.9076 28.9605C78.5717 29.0479 78.2467 29.1898 77.9541 29.3646C77.8566 29.4192 77.7591 29.4847 77.6724 29.5611C76.9899 30.0744 76.5023 30.8279 76.3181 31.7015C76.2748 31.9308 76.2423 32.1711 76.2423 32.4222C76.2423 34.3988 77.8349 35.9932 79.7852 35.9932C80.2727 35.9932 80.7386 35.8949 81.1611 35.7092C81.2695 35.6656 81.367 35.6109 81.4753 35.5563C81.5295 35.5236 81.5728 35.5017 81.627 35.469C82.6455 34.8465 83.3389 33.7108 83.3389 32.4113C83.328 31.767 83.1547 31.1555 82.8513 30.6313Z" fill="white"/>
        <path d="M78.42 12.6784L77.0224 14.0871C83.6531 20.5519 87.9869 29.3317 88.7128 39.1818H90.7605C89.9913 28.7748 85.4191 19.5035 78.42 12.6784Z" fill="white"/>
        <path d="M77.0224 14.0871L52.0597 39.1709L77.0224 14.0871Z" fill="#010202"/>
        <path d="M77.0224 14.0871L52.0597 39.1709H88.7019C87.9869 29.3318 83.6531 20.5519 77.0224 14.0871ZM60.5106 37.8932C60.4998 37.8932 60.4781 37.8932 60.4673 37.8932C59.4271 37.8932 58.5821 37.0415 58.5821 35.9931C58.5821 35.4034 58.8421 34.8902 59.2538 34.5407C59.5788 34.2677 60.0014 34.093 60.4673 34.093C61.5074 34.093 62.3525 34.9448 62.3525 35.9931C62.3525 37.0305 61.5399 37.8714 60.5106 37.8932ZM65.9603 34.7045C65.787 34.7373 65.6028 34.7482 65.4186 34.7482C63.7284 34.7482 62.3525 33.3613 62.3525 31.6578C62.3525 30.8715 62.645 30.1508 63.1325 29.6048C63.6959 28.9714 64.5085 28.5673 65.4186 28.5673C67.1088 28.5673 68.4848 29.9542 68.4848 31.6578C68.4848 33.1866 67.4013 34.4534 65.9603 34.7045ZM72.3635 36.2989C72.2552 36.2989 72.1577 36.288 72.0602 36.277C71.1609 36.1351 70.4783 35.3488 70.4783 34.4097C70.4783 33.7763 70.7925 33.2085 71.2692 32.8699C71.5726 32.6515 71.9518 32.5205 72.3635 32.5205C73.4036 32.5205 74.2487 33.3723 74.2487 34.4206C74.2487 35.4471 73.4036 36.2989 72.3635 36.2989ZM74.3029 27.792C72.6994 27.792 71.4101 26.4816 71.4101 24.8763C71.4101 24.2102 71.6268 23.6096 71.9952 23.1181C72.526 22.4192 73.3603 21.9606 74.3029 21.9606C75.9064 21.9606 77.1957 23.271 77.1957 24.8763C77.1957 26.2741 76.2206 27.4426 74.9096 27.7265C74.7146 27.7702 74.5196 27.792 74.3029 27.792ZM79.7852 36.004C79.666 36.004 79.536 35.9931 79.4168 35.9822C77.6291 35.7965 76.2423 34.2786 76.2423 32.4222C76.2423 31.1664 76.8815 30.0634 77.8566 29.43C78.4092 29.0588 79.0809 28.8513 79.796 28.8513C81.757 28.8513 83.3389 30.4565 83.3389 32.4222C83.328 34.3988 81.7462 36.004 79.7852 36.004Z" fill="#202020"/>
        <path d="M51.5288 58.336C54.9634 58.336 57.5528 56.4031 58.3762 53.2581H54.5083C53.9124 54.503 52.8181 55.1255 51.4855 55.1255C49.3294 55.1255 47.8451 53.5093 47.8451 50.9321C47.8451 48.3658 49.3294 46.7387 51.4855 46.7387C52.8181 46.7387 53.9124 47.3612 54.5083 48.6061H58.3762C57.5528 45.4501 54.9634 43.5063 51.5288 43.5063C47.2709 43.5063 44.2697 46.5749 44.2697 50.9321C44.2589 55.2893 47.2709 58.336 51.5288 58.336Z" fill="white"/>
        <path d="M27.9205 39.4985H23.8684L27.9205 33.6561V31.898H21.2681V33.7872H25.2877L21.2681 39.6404V41.3986H27.9205V39.4985Z" fill="white"/>
        <path d="M68.6582 55.4967H64.0535V43.681H60.5323V58.2268H68.6582V55.4967Z" fill="white"/>
        <path d="M19.7621 31.898H17.4652V41.3986H19.7621V31.898Z" fill="white"/>
        <path d="M79.1893 55.3875H73.8695V52.1988H78.5717V49.4578H73.8695V46.5203H79.1893V43.681H70.3483V58.2268H79.1893V55.3875Z" fill="white"/>
        <path d="M16.3276 46.7496C17.6602 46.7496 18.7545 47.372 19.3504 48.6169H23.2183C22.3949 45.461 19.8055 43.5172 16.3709 43.5172C12.113 43.5172 9.11182 46.5858 9.11182 50.9429C9.11182 55.3001 12.113 58.3469 16.3709 58.3469C19.8055 58.3469 22.3949 56.414 23.2183 53.269H19.3504C18.7545 54.5139 17.6602 55.1363 16.3276 55.1363C14.1715 55.1363 12.6872 53.5201 12.6872 50.9429C12.6872 48.3658 14.1715 46.7496 16.3276 46.7496Z" fill="white"/>
        <path d="M28.9064 43.681H25.3852V58.2377H28.9064V43.681Z" fill="white"/>
        <path d="M29.264 33.7872H33.2836L29.264 39.6404V41.3986H35.9164V39.4985H31.8643L35.9164 33.6561V31.898H29.264V33.7872Z" fill="white"/>
        <path d="M12.8064 31.898H9.09013V41.3986H11.387V37.9915H12.8064C15.2116 37.9915 16.2734 36.5282 16.2734 34.9666C16.2734 33.2084 15.1141 31.898 12.8064 31.898ZM12.633 36.146H11.387V33.7653H12.633C13.5431 33.7653 13.9331 34.224 13.9331 34.9556C13.9331 35.6873 13.5431 36.146 12.633 36.146Z" fill="white"/>
        <path d="M39.4484 52.4718C41.6695 51.8057 42.6554 50.0912 42.6554 48.2675C42.6554 45.734 40.8894 43.681 37.3465 43.681H31.4417V58.2377H34.9629V52.7448H35.808L38.8092 58.2377H42.7746L39.4484 52.4718ZM37.1515 50.2331H34.9738V46.6295H37.1515C38.4733 46.6295 39.08 47.3393 39.08 48.4095C39.08 49.5452 38.4625 50.2331 37.1515 50.2331Z" fill="white"/>
        <path d="M88.1927 41.3987H84.9532C85.029 42.4252 85.0724 43.4626 85.0724 44.5C85.0724 67.2796 66.7513 85.7348 44.1614 85.7348C21.5606 85.7348 3.23951 67.2796 3.23951 44.5C3.23951 21.7204 21.5606 3.26515 44.1505 3.26515C55.2017 3.26515 65.2128 7.67693 72.5802 14.8515L74.8663 12.5474L74.8338 12.5146C66.5563 4.44454 55.6676 0 44.1505 0C19.8054 0 0 19.9622 0 44.5C0 69.0378 19.8054 89 44.1505 89C68.4956 89 88.3011 69.0378 88.3011 44.5C88.3011 43.4735 88.2686 42.4252 88.1927 41.3987Z" fill="#202020"/>
        <path d="M46.2416 41.2785L42.8721 31.898H40.2176L36.8048 41.3986H39.21L39.7734 39.7169H43.2946L43.858 41.3986H46.2416H46.2633H46.285L46.2416 41.2785ZM40.3693 37.926L41.5286 34.4533L42.6987 37.926H40.3693Z" fill="white"/>
    </g>
    <defs>
        <clipPath id="clip0">
            <rect width="94" height="89" fill="white"/>
        </clipPath>
    </defs>
</svg>
