<?xml version="1.0" encoding="UTF-8" standalone="no"?>
<svg width="26" height="26" viewBox="0 0 26 26"  xmlns="http://www.w3.org/2000/svg">
<path d="M3.07507 13.6823C3.07507 15.4061 3.50084 17.0221 4.24592 18.4227L12.0871 13.8619L4.13948 9.15747C3.46536 10.5221 3.07507 12.0663 3.07507 13.6823ZM5.5587 16.1602C5.31034 16.268 5.02649 16.3398 4.77813 16.4116C4.67169 16.4475 4.35237 16.4834 4.28141 16.3039C4.24592 16.1243 4.52977 16.0166 4.67169 15.9807C4.84909 15.9448 5.06197 15.8729 5.23937 15.8011C5.3813 15.7293 5.66514 15.6575 5.80706 15.8011C5.94898 15.9448 5.66514 16.0884 5.5587 16.1602ZM8.96481 13.0359C9.31961 13.0359 9.63894 13.3591 9.63894 13.7182C9.63894 14.0774 9.31961 14.4006 8.96481 14.4006C8.61001 14.4006 8.29069 14.1133 8.29069 13.7182C8.29069 13.3232 8.61001 13.0359 8.96481 13.0359ZM7.11983 14.0774C7.11983 14.6519 6.65859 15.0829 6.0909 15.0829C5.52322 15.0829 5.09745 14.616 5.09745 14.0774C5.09745 13.5387 5.5587 13.0718 6.0909 13.0718C6.62311 13.0718 7.11983 13.5028 7.11983 14.0774ZM5.09745 10.5221C5.45226 10.5221 5.77158 10.8453 5.77158 11.2044C5.77158 11.5635 5.45226 11.8868 5.09745 11.8868C4.74265 11.8868 4.42333 11.5995 4.42333 11.2044C4.42333 10.8094 4.70717 10.5221 5.09745 10.5221ZM3.82016 13.4669C3.25247 13.4669 3.89112 13.0359 4.17496 13.0359C4.77813 13.0718 4.104 13.4669 3.82016 13.4669Z"/>
<path d="M12.5484 3.16023V1.36465C8.36171 1.5083 4.70723 3.80664 2.61389 7.21825L4.13955 8.11604C5.91356 5.24311 9.00036 3.30388 12.5484 3.16023Z"/>
<path d="M22.6958 6.75138L24.2214 5.85359C22.1635 2.44199 18.5091 0.143646 14.3224 0V1.79558C17.8704 1.93923 20.9217 3.87845 22.6958 6.75138Z"/>
<path d="M23.2634 20.2901L21.7022 19.3923C19.9282 22.1575 16.8769 24.0249 13.4353 24.1685V25.9641C17.551 25.8204 21.17 23.5939 23.2634 20.2901Z"/>
<path d="M22.2345 8.90609C22.9441 10.3426 23.3699 11.9586 23.3699 13.6823C23.3699 15.4779 22.9086 17.1658 22.1281 18.6381L23.6537 19.5359C24.5762 17.7763 25.1084 15.8011 25.1084 13.6823C25.1084 11.6354 24.6117 9.69615 23.7247 8.0083L22.2345 8.90609Z"/>
<path d="M3.82015 18.6381C3.03958 17.1298 2.57834 15.4779 2.57834 13.6823C2.57834 11.9586 3.0041 10.3426 3.71371 8.90609L2.18806 8.0083C1.30105 9.69615 0.804321 11.6354 0.804321 13.6823C0.804321 15.8011 1.33653 17.7763 2.25902 19.5359L3.82015 18.6381Z"/>
<path d="M12.5483 26V24.2044C9.07124 24.0249 6.05541 22.1575 4.28139 19.3923L2.75574 20.2901C4.8136 23.5939 8.43259 25.8204 12.5483 26Z"/>
<path d="M12.5484 3.66296C9.17775 3.80661 6.26836 5.67401 4.56531 8.40329L12.5484 13.0718V3.66296ZM7.61662 8.65468C7.04893 8.65468 6.62317 8.18782 6.62317 7.64915C6.62317 7.07457 7.08441 6.64363 7.61662 6.64363C8.1843 6.64363 8.64555 7.11048 8.64555 7.64915C8.64555 8.18782 8.1843 8.65468 7.61662 8.65468ZM10.6324 10.5221C10.2776 10.5221 9.95832 10.2348 9.95832 9.83976C9.95832 9.48064 10.2776 9.15744 10.6324 9.15744C10.9873 9.15744 11.3066 9.44473 11.3066 9.83976C11.3066 10.2348 11.0227 10.5221 10.6324 10.5221ZM10.6324 8.00827C10.4905 7.86462 10.3486 7.75689 10.1712 7.72097C9.95832 7.64915 9.92284 7.46959 10.0648 7.32595C10.2067 7.14639 10.455 7.11048 10.6679 7.14639C10.9873 7.21821 11.2356 7.39777 11.413 7.64915C11.6614 7.97236 10.8453 8.29556 10.6324 8.00827ZM10.9518 6.39225C10.597 6.39225 10.2776 6.06904 10.2776 5.70992C10.2776 5.35081 10.5615 5.0276 10.9518 5.0276C11.3066 5.0276 11.6259 5.3149 11.6259 5.70992C11.6259 6.06904 11.3421 6.39225 10.9518 6.39225Z"/>
<path d="M22.8731 13.6823C22.8731 12.0663 22.4828 10.5221 21.8087 9.19336L13.8611 13.826L21.7022 18.4226C22.4473 16.9862 22.8731 15.3702 22.8731 13.6823ZM21.5248 10.7735C22.0925 10.7735 21.4184 11.1685 21.17 11.1685C20.6024 11.1685 21.2765 10.7735 21.5248 10.7735ZM17.3382 14.4724C16.9834 14.4724 16.664 14.1492 16.664 13.79C16.664 13.4309 16.9834 13.1077 17.3382 13.1077C17.693 13.1077 18.0123 13.395 18.0123 13.79C18.0123 14.1851 17.7284 14.4724 17.3382 14.4724ZM19.1831 13.1077C19.6089 13.1077 18.7929 13.4668 18.6155 13.4668C18.2252 13.4309 19.0057 13.1077 19.1831 13.1077ZM18.7929 15.3342C18.2252 15.3342 18.7929 14.7956 19.1122 14.7956C19.7153 14.7956 19.1477 15.3342 18.7929 15.3342ZM20.5669 17.0221C20.2121 17.0221 19.8927 16.6989 19.8927 16.3398C19.8927 15.9807 20.2121 15.6574 20.5669 15.6574C20.9217 15.6574 21.241 15.9447 21.241 16.3398C21.241 16.7348 20.9572 17.0221 20.5669 17.0221ZM20.9217 14.3646C20.354 14.3646 19.8927 13.8978 19.8927 13.3232C19.8927 12.7486 20.354 12.3177 20.9217 12.3177C21.4894 12.3177 21.9151 12.7845 21.9151 13.3232C21.9151 13.8978 21.4894 14.3646 20.9217 14.3646Z"/>
<path d="M12.5483 23.6657V14.5801L4.70715 19.1768C6.41021 21.7624 9.28412 23.5221 12.5483 23.6657ZM11.1291 22.9475C10.5614 22.9475 11.1646 22.4807 11.4839 22.4807C12.0516 22.5166 11.4129 22.9475 11.1291 22.9475ZM10.9517 17.0221C11.3065 17.0221 11.6258 17.3094 11.6258 17.7044C11.6258 18.0635 11.3065 18.3867 10.9517 18.3867C10.5969 18.3867 10.2776 18.0994 10.2776 17.7044C10.2776 17.3453 10.5969 17.0221 10.9517 17.0221ZM9.21316 18.6381C9.78084 18.6381 9.24864 19.1768 8.89383 19.1768C8.32615 19.1768 8.89384 18.6381 9.21316 18.6381ZM9.63892 19.5359C10.2066 19.5359 10.6679 20.0028 10.6679 20.5414C10.6679 21.0801 10.2066 21.5829 9.63892 21.5829C9.07124 21.5829 8.64547 21.116 8.64547 20.5414C8.64547 19.9668 9.07124 19.5359 9.63892 19.5359ZM6.76501 18.7459C7.11982 18.7459 7.43914 19.0691 7.43914 19.4282C7.43914 19.7873 7.1553 20.1105 6.76501 20.1105C6.41021 20.1105 6.09089 19.8232 6.09089 19.4282C6.09089 19.0331 6.41021 18.7459 6.76501 18.7459Z"/>
<path d="M21.241 19.1768L13.4353 14.5801V23.6657C16.6995 23.5221 19.5734 21.7624 21.241 19.1768ZM14.89 22.2652C14.5352 22.2652 14.2159 21.9779 14.2159 21.5829C14.2159 21.1878 14.5352 20.9006 14.89 20.9006C15.2448 20.9006 15.5641 21.2238 15.5641 21.5829C15.5641 21.942 15.2448 22.2652 14.89 22.2652ZM15.3158 19.4282C14.7481 19.4282 14.3223 18.9613 14.3223 18.4227C14.3223 17.8481 14.7836 17.4171 15.3158 17.4171C15.848 17.4171 16.3092 17.884 16.3092 18.4227C16.3447 18.9613 15.8834 19.4282 15.3158 19.4282ZM16.3447 20.9365C15.9189 20.9365 16.735 20.5773 16.9124 20.5773C17.3381 20.5773 16.5221 20.9365 16.3447 20.9365ZM18.8993 20.2182C18.5445 20.2182 18.2251 19.895 18.2251 19.5359C18.2251 19.1768 18.5445 18.8536 18.8993 18.8536C19.2541 18.8536 19.5734 19.1409 19.5734 19.5359C19.5734 19.895 19.2541 20.2182 18.8993 20.2182Z"/>
<path d="M14.3224 2.29834V11.6713L22.27 7.00276C20.6024 4.30939 17.693 2.44199 14.3224 2.29834ZM16.9125 3.66298C17.2673 3.66298 17.5866 3.95027 17.5866 4.3453C17.5866 4.74033 17.2673 5.02762 16.9125 5.02762C16.5577 5.02762 16.2383 4.70442 16.2383 4.3453C16.2383 3.98618 16.5222 3.66298 16.9125 3.66298ZM15.4578 3.01657C16.0254 3.01657 15.4932 3.59116 15.1384 3.59116C14.5708 3.59116 15.103 3.01657 15.4578 3.01657ZM15.8835 9.37292C15.3158 9.37292 14.8901 8.90607 14.8901 8.3674C14.8901 7.79281 15.3513 7.32596 15.8835 7.32596C16.4512 7.32596 16.877 7.79281 16.877 8.3674C16.9125 8.90607 16.4512 9.37292 15.8835 9.37292ZM16.9125 6.32044C16.7351 6.46409 16.4867 6.5 16.3093 6.35635C16.1319 6.2127 15.8835 6.17679 15.6706 6.14088C15.4932 6.10497 15.3158 5.96132 15.3868 5.74585C15.4578 5.53038 15.7416 5.42265 15.9545 5.45856C16.3093 5.53038 16.6641 5.60221 16.9834 5.81768C17.1608 5.99723 17.0544 6.2127 16.9125 6.32044ZM17.4801 7.93646C16.9125 7.93646 17.4092 7.36188 17.7995 7.36188C18.3671 7.36188 17.8704 7.93646 17.4801 7.93646ZM18.8994 6.96685C18.5445 6.96685 18.2252 6.67955 18.2252 6.28453C18.2252 5.92541 18.5445 5.60221 18.8994 5.60221C19.2542 5.60221 19.5735 5.8895 19.5735 6.28453C19.5735 6.67955 19.2542 6.96685 18.8994 6.96685ZM20.0702 6.67955C19.6444 6.67955 20.4605 6.32044 20.6379 6.32044C21.0637 6.35635 20.2476 6.67955 20.0702 6.67955Z"/>
</svg>
