<svg width="16" height="20" viewBox="0 0 16 20" fill="none" xmlns="http://www.w3.org/2000/svg">
<path d="M7.54545 12.8125V1M10.8182 7.23077H12.4545C12.8885 7.23077 13.3048 7.41312 13.6116 7.7377C13.9185 8.06228 14.0909 8.50251 14.0909 8.96154V17.2692C14.0909 17.7283 13.9185 18.1685 13.6116 18.4931C13.3048 18.8177 12.8885 19 12.4545 19H2.63636C2.20237 19 1.78616 18.8177 1.47928 18.4931C1.1724 18.1685 1 17.7283 1 17.2692V8.96154C1 8.50251 1.1724 8.06228 1.47928 7.7377C1.78616 7.41312 2.20237 7.23077 2.63636 7.23077H4.27273H10.8182ZM10.8182 4.46154L7.54545 1L4.27273 4.46154H10.8182Z" stroke="#474747" stroke-width="2" stroke-linecap="round" stroke-linejoin="round"/>
</svg>
