<svg width="44" height="33" viewBox="0 0 44 33"
    xmlns="http://www.w3.org/2000/svg">
    <path d="M15.6855 27.2438H0V26.6224C0 22.4034 3.52672 18.9693 7.85954 18.9693C12.1924 18.9693 15.6855 22.4034 15.7191 26.6224V27.2438H15.6855ZM1.27634 26.001H14.3756C14.0061 22.4688 10.8153 19.8851 7.18779 20.2448C4.06412 20.5392 1.57863 22.9594 1.27634 26.001Z" />
    <path d="M7.85956 33C4.26566 33 1.34352 30.1546 1.30994 26.6224H2.55268C2.55268 29.4678 4.90383 31.7572 7.82597 31.7572C10.7481 31.7572 13.0992 29.4678 13.0992 26.6224H14.342C14.3756 30.1219 11.4534 33 7.85956 33Z" />
    <path d="M7.85951 30.3181C5.77706 30.3181 4.06409 28.6501 4.06409 26.6224H5.30683C5.30683 27.996 6.44882 29.0753 7.82592 29.0753C9.20302 29.0753 10.345 27.9633 10.345 26.6224H11.5878C11.6213 28.6501 9.94195 30.3181 7.85951 30.3181Z" />
    <path d="M31.0351 33C27.4076 33 24.4855 30.1219 24.4855 26.5897C24.4855 26.0664 24.5526 25.5104 24.687 25.0198L25.8962 25.3469C25.1572 28.0942 26.8366 30.9069 29.658 31.6264C32.4794 32.3459 35.3679 30.7106 36.1068 27.9633C36.2076 27.5382 36.2748 27.113 36.2748 26.6551C36.2748 26.1972 36.2076 25.7721 36.1068 25.3469L37.316 25.0525C37.4504 25.5758 37.5175 26.1318 37.5175 26.6551C37.5847 30.1219 34.629 33 31.0351 33Z" />
    <path d="M31.0351 30.2527C28.9527 30.2527 27.3069 28.6174 27.3069 26.5897C27.3069 25.9682 27.4748 25.3795 27.7771 24.8235L28.8855 25.4122C28.2138 26.5897 28.6504 28.0614 29.8596 28.6828C31.0687 29.3369 32.5802 28.9118 33.2183 27.7344C33.6214 27.0148 33.6214 26.1318 33.2183 25.4122L34.3267 24.8235C35.3344 26.5897 34.6626 28.8136 32.8489 29.7948C32.2779 30.1219 31.6733 30.2527 31.0351 30.2527Z" />
    <path d="M38.7939 25.772H14.913V24.5292H37.4504C36.913 20.2121 34.1252 16.4836 30.0611 14.6194L29.9267 14.554L30.4641 13.442L30.5985 13.5074C35.2672 15.6333 38.3908 20.0486 38.7603 25.0852L38.7939 25.772Z" />
    <path d="M6.78474 19.7869H5.54199V17.0396C5.54199 13.2457 6.85192 9.58271 9.27024 6.60649L10.0092 5.69073L10.9832 6.44297L10.2443 7.35872C7.9939 10.106 6.78474 13.5074 6.78474 17.0396V19.7869Z" />
    <path d="M16.8946 20.212C16.3237 20.212 15.7527 20.1466 15.1817 20.0812C13.603 19.9177 12.1252 19.1 11.1847 17.8245C8.19541 13.6055 11.9908 7.29331 12.1588 6.99896L13.2336 7.62037C13.2 7.68578 9.70686 13.5401 12.2259 17.105C12.9985 18.0862 14.1405 18.7076 15.3832 18.8384C17.3649 19.1328 18.8092 18.9038 19.8168 18.1189C20.7908 17.3667 21.3618 16.0584 21.4626 14.2269L22.7053 14.325C22.5374 16.5163 21.8321 18.0862 20.5893 19.0673C19.5145 19.885 18.2382 20.2775 16.8946 20.212Z" />
    <path d="M13.4015 7.94747H12.058V0H13.4015C15.5847 0 17.3649 1.7334 17.3649 3.85927V4.08821C17.3313 6.21407 15.5511 7.94747 13.4015 7.94747ZM13.3007 6.70466H13.3679C14.8458 6.70466 16.0549 5.52725 16.0549 4.08821V3.85927C16.0549 2.42022 14.8458 1.24281 13.3679 1.24281H13.3007V6.70466Z" />
    <path d="M12.058 7.06442C10.3115 7.06442 8.86719 5.69078 8.86719 3.95738C8.86719 2.22398 10.2779 0.850342 12.058 0.850342C12.3267 0.850342 12.5954 0.883048 12.8305 0.948459L12.4947 2.12586C12.3603 2.09316 12.1924 2.06045 12.058 2.06045C10.9832 2.06045 10.1435 2.9108 10.1435 3.92467C10.1435 4.93855 11.0168 5.7889 12.058 5.7889C12.1924 5.7889 12.3603 5.75619 12.4947 5.72348L12.8305 6.90089C12.5954 7.03171 12.3267 7.06442 12.058 7.06442Z" />
    <path d="M29.7252 14.6521H22.0335C20.8244 14.6521 19.8503 13.7037 19.8503 12.5263C19.8503 11.3489 20.8244 10.4004 22.0335 10.4004H29.7252C30.9343 10.4004 31.9084 11.3489 31.9084 12.5263C31.9084 13.7037 30.9343 14.6521 29.7252 14.6521ZM22.0335 11.6105C21.5297 11.6105 21.0931 12.003 21.0931 12.5263C21.0931 13.0495 21.4961 13.442 22.0335 13.442H29.7252C30.229 13.442 30.6656 13.0495 30.6656 12.5263C30.6656 12.003 30.2626 11.6105 29.7252 11.6105H22.0335Z" />
    <path d="M44 11.6105H32.0763V1.21008H44V11.6105ZM33.319 10.4004H42.7572V2.42019H33.319V10.4004Z" />
    <path d="M19.4137 5.78891H16.5251V4.5788H19.4137C19.7496 4.6115 20.0183 4.34986 20.0519 4.0228C20.0854 3.69574 19.8167 3.4341 19.4809 3.40139C19.4473 3.40139 19.4137 3.40139 19.4137 3.40139H16.5251V2.15858H19.4137C20.4213 2.12587 21.2946 2.91081 21.3282 3.89198C21.3618 4.87315 20.5557 5.72349 19.548 5.7562C19.5145 5.78891 19.4473 5.78891 19.4137 5.78891Z" />
    <path d="M29.7252 10.4004H32.9161V11.6105H29.7252V10.4004Z" />
</svg>
